<svg width="486" height="421" viewBox="0 0 486 421" fill="none" xmlns="http://www.w3.org/2000/svg">
<g clip-path="url(#clip0_2040_3732)">
<rect y="0.875" width="486" height="420" rx="16" fill="url(#paint0_linear_2040_3732)"/>
<g opacity="0.1">
<path d="M224.949 167.389C217.152 169.62 209.427 171.93 201.838 174.312C199.106 175.156 196.376 176.021 193.669 176.905C185.983 179.383 178.394 181.958 170.983 184.601C168.139 185.607 166.585 188.675 167.422 191.559L169.585 199.105C170.498 202.304 173.908 204.038 177.02 202.918C184.203 200.363 191.52 197.859 198.976 195.448C201.683 194.564 204.392 193.701 207.143 192.834C214.753 190.45 222.454 188.121 230.254 185.911C277.649 172.374 323.725 163.344 362.897 159.746C371.746 158.934 380.234 158.374 388.304 158.138C389.335 158.117 390.345 158.099 391.331 158.061C437.686 157.096 452.886 166.43 454.542 172.221C456.199 178.012 448.21 193.933 408.324 217.582C407.774 211.461 406.879 205.332 405.596 199.201C404.785 195.131 403.785 191.102 402.631 187.045C401.854 184.328 401.015 181.638 400.116 178.997C399.312 176.648 397.022 175.121 394.534 175.208L379.584 175.728C375.702 175.873 373.05 179.766 374.396 183.393C375.705 186.873 376.871 190.433 377.919 194.092C379.679 200.259 381.012 206.45 381.871 212.646C382.771 218.817 383.242 225.011 383.279 231.164C383.295 232.97 383.268 234.781 383.219 236.595L383.214 236.961C383.036 242.491 382.509 247.992 381.693 253.394C380.599 260.676 378.888 267.829 376.659 274.755C362.925 317.838 328.551 353.507 281.91 366.837C236.019 379.937 188.795 368.399 154.511 340.103C153.31 339.108 151.752 338.624 150.2 338.807L131.355 341.003C126.57 341.565 124.554 347.436 128.004 350.801C169.107 390.853 229.939 408.425 288.958 391.571C352.095 373.534 396.227 320.942 406.615 260.168C407.803 253.371 408.531 246.493 408.817 239.51C411.034 238.267 413.23 237.027 415.362 235.794C459.418 210.226 478.795 187.051 473.066 166.937C467.337 146.824 438.63 137.387 387.726 138.91C385.259 138.994 382.75 139.083 380.202 139.219C370.565 139.704 360.384 140.547 349.811 141.753C312.025 146.047 268.979 154.826 224.951 167.41L224.949 167.389Z" fill="#8866DD"/>
<path d="M99.3352 326.011C101.802 325.927 104.311 325.839 106.859 325.703C116.498 325.239 126.658 324.399 137.229 323.171C175.015 318.877 218.082 310.096 262.11 297.511C269.907 295.28 277.654 292.968 285.24 290.565C287.972 289.721 290.702 288.856 293.409 287.972C301.116 285.492 308.684 282.919 316.095 280.276C318.939 279.269 320.493 276.202 319.655 273.318L317.493 265.772C316.58 262.573 313.17 260.839 310.058 261.959C302.875 264.514 295.536 267.021 288.102 269.429C285.395 270.313 282.688 271.198 279.935 272.043C272.325 274.427 264.624 276.756 256.805 278.99C209.41 292.527 163.314 301.58 124.143 305.178C115.292 305.969 106.801 306.507 98.7316 306.743C97.7218 306.762 96.6908 306.783 95.7044 306.821C49.3707 307.783 34.152 298.472 32.4953 292.682C30.8385 286.891 38.8469 270.947 78.7113 247.3C79.2614 253.421 80.1567 259.549 81.442 265.701C82.2525 269.772 83.2548 273.822 84.4083 277.879C85.1859 280.596 86.0229 283.265 86.9217 285.905C87.7255 288.254 90.0155 289.781 92.5036 289.695L107.433 289.177C111.314 289.032 113.966 285.139 112.62 281.512C111.311 278.031 110.145 274.472 109.1 270.835C107.339 264.667 106.024 258.432 105.122 252.24C104.241 246.045 103.793 239.871 103.737 233.741C103.648 226.259 104.212 218.838 105.306 211.556C106.424 204.293 108.094 197.166 110.324 190.239C124.032 147.117 158.404 111.426 205.109 98.0895C250.999 84.9887 298.178 96.5101 332.463 124.807C333.664 125.801 335.221 126.285 336.774 126.102L355.663 123.924C360.448 123.362 362.464 117.49 359.015 114.125C317.914 74.0942 257.06 56.5242 198.041 73.3791C134.904 91.4154 90.7746 144.029 80.3842 204.782C79.2176 211.577 78.4689 218.457 78.1807 225.419C75.9398 226.642 73.7651 227.88 71.6117 229.115C27.5981 254.679 8.19802 277.835 13.9289 297.97C19.6598 318.105 48.3844 327.497 99.2668 325.976L99.3352 326.011Z" fill="#8866DD"/>
</g>
</g>
<defs>
<linearGradient id="paint0_linear_2040_3732" x1="-24.4848" y1="-13.962" x2="396.436" y2="510.714" gradientUnits="userSpaceOnUse">
<stop stop-color="#13141E"/>
<stop offset="1" stop-color="#11121C" stop-opacity="0.7"/>
</linearGradient>
<clipPath id="clip0_2040_3732">
<rect y="0.875" width="486" height="420" rx="16" fill="white"/>
</clipPath>
</defs>
</svg>
