<svg width="377" height="4792" viewBox="0 0 377 4792" fill="none" xmlns="http://www.w3.org/2000/svg">
<g clip-path="url(#clip0_2040_4788)">
<path d="M-670.609 445.853C-654.162 391.523 -622.277 340.959 -578.393 299.628C-534.51 258.296 -481.505 228.905 -425.109 214.622C-368.706 200.341 -308.192 200.986 -250.097 216.492C-192.01 231.995 -140.132 261.352 -100.09 301.376C-61.4267 340.023 -33.3287 387.796 -6.15344 434.004C4.09925 451.433 14.7035 469.461 25.7119 486.726C76.6255 566.555 131.103 613.476 192.264 630.157C305.732 661.111 417.158 584.443 473.472 535.992C499.018 514.015 523.659 489.958 547.483 466.696C596.468 418.865 647.127 369.411 708.205 335.59C754.498 309.948 810.139 296.543 860.87 298.8C887.829 300.001 912.566 305.475 934.397 315.066C957.937 325.41 977.544 340.349 992.665 359.463C1012.16 384.109 1023.01 414.258 1033.49 443.408C1044.15 473.041 1055.17 503.682 1075.26 528.266C1119.97 582.97 1207.99 603.372 1310.73 582.848C1340.78 576.847 1370.98 568.332 1400.19 560.101C1452.86 545.256 1507.31 529.907 1562.67 528.811C1606.62 527.939 1652.18 539.916 1687.69 561.668C1706.52 573.214 1721.88 587.025 1733.33 602.718C1745.7 619.68 1753.17 638.436 1755.53 658.471L1752.9 658.812C1743.23 576.877 1648.58 529.681 1562.67 531.382C1507.66 532.474 1453.38 547.77 1400.88 562.568C1371.63 570.811 1341.37 579.343 1311.22 585.363C1264.9 594.615 1219.7 595.671 1180.5 588.415C1169.27 586.336 1158.63 583.609 1148.62 580.242C1117.2 569.674 1091.9 552.808 1073.17 529.887C1052.79 504.968 1041.71 474.121 1030.98 444.298C1020.56 415.335 1009.79 385.381 990.542 361.053C928.941 283.191 799.264 288.092 709.481 337.822C648.727 371.471 598.203 420.793 549.34 468.5C525.484 491.792 500.813 515.874 475.203 537.911C431.987 575.093 385.724 603.727 341.411 620.716C287.998 641.199 237.559 645.212 191.488 632.646C157.445 623.364 124.889 604.454 94.7119 576.443C70.0588 553.561 46.7448 524.676 23.4348 488.127C12.3981 470.825 1.78603 452.781 -8.47858 435.327C-35.5719 389.256 -63.5879 341.621 -102.021 303.202C-183.362 221.902 -309.938 188.118 -424.501 217.124C-539.06 246.138 -634.673 336.187 -668.083 446.545L-670.626 445.861L-670.609 445.853Z" fill="url(#paint0_linear_2040_4788)" fill-opacity="0.2"/>
<path d="M-668.295 453.058C-653.358 404.393 -625.247 358.444 -586.992 320.179C-549.113 282.281 -502.797 253.372 -453.059 236.586C-443.725 233.437 -434.183 230.687 -424.684 228.409C-331.647 206.113 -228.494 225.389 -148.747 279.961C-132.987 290.748 -118.275 302.855 -105.014 315.956C-67.1584 353.34 -39.1198 399.218 -12.0098 443.584C-1.35176 461.021 9.67027 479.06 21.1147 496.288C27.3904 505.73 33.7393 514.75 39.9924 523.107C85.4927 583.944 133.565 620.246 186.986 634.077C225.187 643.969 266.462 642.242 309.662 628.949C373.188 609.367 427.681 568.903 462.204 538.407C486.791 516.708 510.518 493.047 533.46 470.157C581.296 422.434 630.761 373.092 690.698 338.965C756.658 301.411 839.473 291.449 901.656 313.549C933.068 324.661 958.508 343.024 977.256 368.126C990.925 386.438 999.833 406.962 1006.06 422.799C1009.58 431.747 1012.92 441.004 1016.16 449.957C1027.62 481.681 1039.47 514.482 1061.43 540.001C1066.62 546.026 1072.37 551.642 1078.53 556.689C1110.32 582.796 1154.24 596.142 1209.09 596.358C1237.33 596.44 1268.28 592.914 1301.07 585.872C1316.73 582.504 1332.33 578.706 1349.63 574.453L1359.16 572.102C1392.46 563.875 1426.9 555.371 1460.44 549.444C1496.2 543.1 1526.41 540.505 1555.5 541.275C1561.12 541.425 1566.89 541.78 1572.64 542.316C1614.93 546.272 1656.32 560.04 1689.18 581.077C1725.81 604.525 1748.64 634.896 1755.21 668.906L1752.6 669.428C1738.69 597.433 1651.39 552.28 1572.34 544.881C1566.64 544.345 1560.94 543.997 1555.38 543.848C1526.48 543.085 1496.45 545.666 1460.88 551.977C1427.43 557.892 1394.56 566.007 1359.78 574.6L1350.25 576.951C1332.92 581.216 1317.3 585.022 1301.61 588.392C1268.62 595.477 1237.48 599.021 1209.04 598.933C1153.56 598.711 1109.07 585.166 1076.8 558.666C1070.53 553.526 1064.68 547.805 1059.39 541.674C1037.13 515.807 1025.2 482.787 1013.66 450.853C1010.43 441.914 1007.1 432.673 1003.59 423.765C997.418 408.077 988.598 387.747 975.1 369.671C956.655 344.979 931.627 326.92 900.705 315.979C899.765 315.642 898.808 315.313 897.855 314.993C836.698 294.425 756.3 304.582 692.006 341.188C632.389 375.135 583.049 424.347 535.339 471.941C512.367 494.855 488.613 518.549 463.965 540.302C429.241 570.977 374.414 611.679 310.42 631.405C266.727 644.855 224.95 646.591 186.258 636.568C181.66 635.378 177.09 634.02 172.573 632.501C123.995 616.163 79.7981 580.754 37.8391 524.646C31.5577 516.252 25.1805 507.195 18.8851 497.713C7.41466 480.441 -3.61758 462.392 -14.2875 444.93C-41.3257 400.691 -69.2801 354.944 -106.915 317.778C-120.071 304.789 -134.664 292.776 -150.295 282.074C-229.437 227.911 -331.782 208.783 -424.088 230.907C-433.503 233.165 -442.967 235.893 -452.221 239.015C-553.796 273.307 -635.612 355.589 -665.742 453.752L-668.282 453.062L-668.295 453.058Z" fill="url(#paint1_linear_2040_4788)" fill-opacity="0.2"/>
<path d="M-665.98 460.272C-651.113 412.504 -623.091 367.557 -584.942 330.288C-547.307 293.511 -501.416 265.704 -452.231 249.854C-443.022 246.889 -433.615 244.312 -424.263 242.204C-333.111 221.636 -231.745 241.462 -153.119 295.235C-137.613 305.841 -123.086 317.715 -109.944 330.536C-72.9323 366.638 -44.995 410.599 -17.9757 453.113C-6.87726 470.576 4.59985 488.639 16.5176 505.843C22.8508 514.982 29.2447 523.696 35.5258 531.754C81.1019 590.316 128.914 625.071 181.693 637.98C219.482 647.232 260.035 645.077 302.235 631.589C351.438 615.822 402.85 584.426 450.906 540.805C474.534 519.398 497.344 496.125 519.4 473.614C566.079 425.984 614.347 376.728 673.168 342.324C705.097 323.647 741.993 311.422 779.858 306.963C818.945 302.366 856.122 306.502 887.391 318.939C918.298 331.124 943.344 350.582 961.834 376.772C974.996 395.45 983.876 416.597 990.138 432.927C993.083 440.604 995.943 448.527 998.716 456.194C1010.98 490.139 1023.66 525.246 1047.61 551.706C1053.04 557.711 1059.05 563.236 1065.45 568.131C1097.91 593.039 1142.69 604.588 1198.54 602.448C1225.96 601.354 1256.34 596.907 1291.4 588.867C1299.57 586.992 1307.89 585.015 1315.93 583.104C1324.13 581.157 1332.61 579.138 1340.97 577.225C1385.04 567.091 1420.76 560.566 1453.36 556.676C1487.79 552.544 1518.86 551.571 1548.33 553.707C1553.95 554.121 1559.73 554.721 1565.5 555.49C1608 561.12 1649.96 575.487 1683.66 595.943C1721.41 618.859 1746.04 647.681 1754.88 679.286L1752.31 680.008C1732.93 610.682 1641.67 568.187 1565.08 558.045C1559.36 557.279 1553.64 556.686 1548.08 556.276C1518.78 554.153 1487.89 555.12 1453.63 559.236C1421.13 563.11 1385.51 569.62 1341.52 579.73C1333.17 581.646 1324.7 583.66 1316.51 585.604C1308.47 587.52 1300.15 589.496 1291.97 591.374C1256.73 599.454 1226.19 603.914 1198.6 605.018C1142.1 607.181 1096.74 595.452 1063.78 570.161C1057.26 565.169 1051.14 559.539 1045.6 553.424C1021.33 526.6 1008.56 491.258 996.208 457.086C993.443 449.435 990.581 441.518 987.648 433.865C981.435 417.668 972.64 396.708 959.633 378.253C941.436 352.478 916.782 333.323 886.345 321.324C825.034 296.939 739.909 306.263 674.5 344.521C616.002 378.739 567.859 427.865 521.303 475.372C499.217 497.908 476.381 521.213 452.693 542.668C404.35 586.549 352.591 618.143 303.012 634.032C260.325 647.678 219.271 649.843 180.986 640.472C175.499 639.127 170.056 637.55 164.679 635.742C117.707 619.944 74.6116 586.289 33.3883 533.326C27.0789 525.23 20.6527 516.472 14.2975 507.298C2.35377 490.051 -9.13748 471.969 -20.2477 454.482C-47.1868 412.091 -75.0438 368.253 -111.846 332.359C-124.886 319.641 -139.292 307.855 -154.677 297.338C-232.711 243.97 -333.284 224.294 -423.716 244.699C-432.991 246.792 -442.318 249.341 -451.449 252.284C-552.263 284.76 -633.492 364.724 -663.451 460.957L-665.987 460.255L-665.98 460.272Z" fill="url(#paint2_linear_2040_4788)" fill-opacity="0.2"/>
<path d="M-663.667 467.512C-648.869 420.639 -620.934 376.696 -582.895 340.431C-545.504 304.778 -500.036 278.062 -451.411 263.168C-442.327 260.387 -433.056 257.991 -423.844 256.048C-379.396 246.663 -331.334 246.84 -284.865 256.557C-239.283 266.091 -195.237 284.766 -157.499 310.558C-142.254 320.98 -127.915 332.627 -114.886 345.17C-78.7578 379.96 -50.9664 421.988 -24.0884 462.631C-12.5087 480.139 -0.535603 498.246 11.8965 515.445C18.283 524.273 24.7256 532.688 31.0385 540.455C76.689 596.74 124.229 629.936 176.378 641.94C213.754 650.539 253.591 647.971 294.788 634.297C342.905 618.265 392.98 586.789 439.592 543.277C462.265 522.172 484.156 499.296 505.324 477.171C550.841 429.608 597.903 380.425 655.61 345.774C687.387 326.696 725.956 313.955 764.207 309.907C804.073 305.688 841.727 310.705 873.085 324.427C903.552 337.753 928.209 358.309 946.362 385.517C958.931 404.394 967.471 425.249 974.161 443.157C976.517 449.463 978.853 455.955 981.113 462.236C994.179 498.55 1007.69 536.096 1033.72 563.506C1039.4 569.485 1045.66 574.92 1052.3 579.673C1085.91 603.782 1130.28 613.257 1187.93 608.636C1221.77 605.839 1255.8 598.259 1281.67 591.961L1286.7 590.731C1301.57 587.103 1316.94 583.344 1332.22 580.086C1371.57 571.663 1409.93 566.25 1446.2 564.008C1479.61 561.902 1510.64 562.627 1541.07 566.238C1546.67 566.914 1552.46 567.762 1558.27 568.763C1601.03 576.079 1643.57 591.047 1678.06 610.909C1716.94 633.3 1743.36 660.565 1754.44 689.758L1751.95 690.689C1741.07 662.046 1715.04 635.227 1676.67 613.132C1642.45 593.425 1600.21 578.57 1557.76 571.3C1551.98 570.305 1546.25 569.459 1540.7 568.794C1510.43 565.205 1479.56 564.477 1446.32 566.579C1410.18 568.819 1371.96 574.208 1332.74 582.602C1317.51 585.852 1302.16 589.599 1287.31 593.225L1282.27 594.452C1256.3 600.774 1222.14 608.384 1188.1 611.197C1129.78 615.873 1084.84 606.238 1050.7 581.755C1043.93 576.912 1037.55 571.371 1031.75 565.273C1005.36 537.481 991.763 499.685 978.605 463.128C976.349 456.855 974.011 450.369 971.665 444.073C965.018 426.296 956.554 405.611 944.124 386.945C926.244 360.151 901.961 339.907 871.952 326.782C809.763 299.585 723.371 308.093 656.965 347.965C599.566 382.431 552.631 431.479 507.24 478.913C486.042 501.062 464.125 523.971 441.398 545.126C394.503 588.906 344.085 620.589 295.593 636.741C253.909 650.574 213.577 653.168 175.704 644.457C147.527 637.971 120.034 624.945 93.9918 605.748C71.8211 589.403 49.9345 567.982 28.9287 542.085C22.5876 534.28 16.1165 525.828 9.70178 516.963C-2.76246 499.72 -14.7497 481.594 -26.3413 464.061C-53.1429 423.533 -80.8604 381.626 -116.787 347.027C-129.711 334.581 -143.935 323.021 -159.066 312.685C-236 260.104 -334.797 239.874 -423.335 258.572C-432.463 260.495 -441.655 262.869 -450.661 265.629C-550.698 296.269 -631.35 373.9 -661.135 468.226L-663.673 467.51L-663.667 467.512Z" fill="url(#paint3_linear_2040_4788)" fill-opacity="0.2"/>
<path d="M-661.353 474.757C-646.621 428.773 -618.782 385.832 -580.847 350.58C-543.693 316.046 -498.655 290.426 -450.584 276.49C-441.633 273.897 -432.492 271.677 -423.424 269.898C-379.751 261.329 -332.551 262.087 -286.937 272.085C-242.35 281.861 -199.098 300.468 -161.879 325.886C-146.888 336.127 -132.742 347.538 -119.828 359.809C-84.6249 393.267 -57.0268 433.338 -30.3401 472.093C-18.2378 489.668 -5.71484 507.844 7.27733 525.046C13.7132 533.555 20.1985 541.669 26.5494 549.148C72.2594 603.155 119.531 634.801 171.059 645.883C208.025 653.83 247.146 650.835 287.336 636.986C334.362 620.703 383.092 589.144 428.273 545.725C449.99 524.929 470.973 502.453 491.262 480.71C535.601 433.202 581.443 384.074 638.062 349.2C670.171 329.423 709.423 316.486 748.58 312.776C789.269 308.924 827.374 314.839 858.791 329.884C888.763 344.237 913.02 365.886 930.904 394.226C942.94 413.349 951.46 434.843 958.207 453.346C959.961 458.168 961.728 463.124 963.438 467.911C977.288 506.745 991.619 546.901 1019.85 575.271C1025.78 581.224 1032.29 586.572 1039.18 591.174C1073.48 614.198 1118.67 621.922 1177.35 614.783C1209.05 610.829 1241.47 602.844 1271.96 595.013C1291 590.109 1307.06 586.173 1323.5 582.917C1361.27 575.406 1400.15 571.502 1439.08 571.31C1471.23 571.101 1502.23 573.53 1533.86 578.736C1539.44 579.665 1545.24 580.765 1551.08 582.003C1594.19 591.042 1637.31 606.609 1672.5 625.842C1712.53 647.722 1740.73 673.433 1754.03 700.183L1751.63 701.339C1723.01 643.778 1629.98 601.185 1550.47 584.52C1544.66 583.292 1538.91 582.202 1533.36 581.276C1501.89 576.096 1471.04 573.676 1439.04 573.883C1400.29 574.073 1361.58 577.961 1323.98 585.439C1307.61 588.683 1291.59 592.604 1272.6 597.497C1242.02 605.354 1209.5 613.362 1177.63 617.335C1118.28 624.555 1072.49 616.691 1037.65 593.3C1030.62 588.603 1023.98 583.147 1017.93 577.073C989.294 548.3 974.872 507.881 960.929 468.788C959.224 464.004 957.455 459.054 955.705 454.24C949.003 435.861 940.552 414.521 928.638 395.597C911.014 367.667 887.109 346.335 857.584 332.194C795.643 302.528 705.944 310.405 639.456 351.363C583.153 386.048 537.432 435.039 493.213 482.416C472.9 504.185 451.893 526.687 430.123 547.534C384.667 591.217 335.584 622.987 288.185 639.405C247.51 653.427 207.896 656.448 170.443 648.392C142.664 642.417 115.447 630.115 89.5495 611.824C67.4243 596.2 45.5364 575.663 24.4934 550.802C18.1164 543.28 11.6006 535.135 5.1302 526.587C-7.90047 509.338 -20.4353 491.137 -32.5518 473.544C-59.1661 434.895 -86.6855 394.934 -121.697 361.657C-134.506 349.482 -148.551 338.154 -163.424 327.994C-239.284 276.191 -336.297 255.408 -422.932 272.409C-431.924 274.172 -440.987 276.371 -449.86 278.943C-547.617 307.292 -629.635 384.432 -658.807 475.47L-661.342 474.747L-661.353 474.757Z" fill="url(#paint4_linear_2040_4788)" fill-opacity="0.2"/>
<path d="M-659.036 481.994C-644.37 436.899 -616.619 394.962 -578.802 360.719C-541.89 327.302 -497.27 302.782 -449.766 289.8C-440.947 287.389 -431.945 285.355 -423.008 283.738C-379.491 275.87 -334.414 277.169 -289.019 287.601C-245.425 297.619 -202.981 316.153 -166.268 341.203C-151.536 351.254 -137.577 362.437 -124.78 374.437C-90.5506 406.525 -63.2043 444.626 -36.7589 481.476C-24.0801 499.143 -10.962 517.416 2.65264 534.643C9.14578 542.849 15.6782 550.649 22.0586 557.843C67.8236 609.587 114.823 639.674 165.743 649.831C202.301 657.127 240.705 653.705 279.89 639.675C326.467 622.904 372.587 592.118 416.953 548.177C437.731 527.696 457.795 505.616 477.201 484.262C520.348 436.79 564.961 387.705 620.499 352.625C652.938 332.135 692.876 318.996 732.941 315.633C774.456 312.146 813.023 318.965 844.481 335.348C873.944 350.689 897.82 373.431 915.435 402.943C926.891 422.194 935.086 443.448 942.233 463.548C943.374 466.764 944.514 470.001 945.658 473.246C960.281 514.762 975.396 557.7 1005.97 587.05C1012.15 592.969 1018.91 598.232 1026.04 602.69C1061.05 624.69 1107.07 630.662 1166.74 620.944C1195.52 616.158 1225.46 608.038 1254.41 600.188L1262.23 598.071C1276.52 594.201 1295.4 589.302 1314.76 585.752C1352.37 578.817 1390.69 576.487 1431.93 578.621C1462.58 580.149 1493.54 584.281 1526.61 591.247C1532.15 592.423 1537.95 593.771 1543.86 595.25C1618.49 613.758 1718.19 655.076 1753.58 710.612L1751.31 711.997C1716.33 657.091 1617.31 616.133 1543.15 597.742C1537.27 596.271 1531.5 594.934 1526 593.756C1493.08 586.82 1462.24 582.71 1431.74 581.189C1390.71 579.066 1352.59 581.383 1315.2 588.279C1295.94 591.808 1277.13 596.688 1262.89 600.549L1255.07 602.666C1226.05 610.534 1196.05 618.667 1167.13 623.481C1139.12 628.04 1114.85 629.21 1092.92 627.057C1066.93 624.501 1043.93 617.034 1024.56 604.861C1017.28 600.312 1010.38 594.933 1004.08 588.898C973.074 559.128 957.854 515.908 943.139 474.113C941.995 470.868 940.859 467.64 939.718 464.423C932.611 444.44 924.475 423.329 913.127 404.259C895.752 375.157 872.224 352.737 843.191 337.616C780.544 304.996 689.553 312.049 621.915 354.768C566.688 389.651 522.197 438.599 479.178 485.935C459.748 507.316 439.652 529.426 418.828 549.954C374.177 594.169 327.726 625.166 280.767 642.075C241.106 656.275 202.212 659.73 165.163 652.339C137.782 646.875 110.841 635.296 85.0882 617.911C63.0087 603.009 41.1172 583.362 20.0353 559.522C13.6244 552.298 7.06602 544.454 0.536027 536.215C-13.1171 518.941 -26.2494 500.649 -38.9462 482.956C-65.3171 446.206 -92.5886 408.206 -126.642 376.286C-139.342 364.381 -153.198 353.281 -167.824 343.3C-243.741 291.498 -336.591 270.702 -422.57 286.245C-431.429 287.84 -440.351 289.867 -449.09 292.25C-546.078 318.747 -627.498 393.498 -656.509 482.7L-659.04 481.966L-659.036 481.994Z" fill="url(#paint5_linear_2040_4788)" fill-opacity="0.2"/>
<path d="M-656.73 489.234C-642.126 445.015 -614.471 404.088 -576.753 370.859C-540.081 338.554 -495.883 315.125 -448.938 303.114C-440.252 300.892 -431.385 299.031 -422.587 297.58C-379.871 290.539 -335.628 292.401 -291.09 303.121C-248.501 313.37 -206.854 331.843 -170.648 356.524C-156.176 366.391 -142.41 377.338 -129.728 389.066C-96.5179 419.756 -69.4943 455.869 -43.3564 490.786C-30.0434 508.577 -16.274 526.967 -1.97227 544.233C4.5765 552.122 11.1491 559.628 17.5698 566.527C62.743 615.315 110.805 644.663 160.427 653.772C196.582 660.404 234.266 656.562 272.441 642.362C317.897 625.345 362.707 594.48 405.636 550.631C425.473 530.47 444.636 508.793 463.169 487.823C505.107 440.375 548.478 391.31 602.946 356.054C635.721 334.832 676.336 321.496 717.3 318.489C759.043 315.422 799.133 323.349 830.173 340.812C859.128 357.101 882.61 380.939 899.963 411.66C911.39 431.964 919.533 454.354 926.265 473.745L927.804 478.186C943.158 522.57 959.034 568.467 992.094 598.825C998.522 604.712 1005.52 609.892 1012.91 614.207C1049.13 635.532 1094.65 639.627 1156.15 627.108C1180.23 622.111 1205.34 614.802 1229.63 607.736C1237.14 605.55 1244.9 603.292 1252.52 601.135C1273.24 595.251 1290.25 591.264 1306.03 588.595C1343.46 582.218 1382.3 581.351 1424.78 585.948C1454.03 589.047 1484.08 594.711 1519.37 603.768C1524.85 605.184 1530.65 606.781 1536.64 608.507C1615.64 631.105 1714 672.538 1753.11 721.053L1751.01 722.663C1712.27 674.611 1614.46 633.464 1535.84 610.974C1529.88 609.256 1524.09 607.666 1518.64 606.252C1483.48 597.225 1453.55 591.588 1424.44 588.501C1382.21 583.933 1343.6 584.791 1306.43 591.124C1290.75 593.778 1273.83 597.747 1253.2 603.601C1245.59 605.754 1237.83 608.014 1230.33 610.197C1206 617.281 1180.83 624.599 1156.65 629.62C1094.44 642.286 1048.32 638.092 1011.49 616.414C1003.95 612.005 996.803 606.72 990.241 600.706C956.714 569.909 940.731 523.716 925.277 479.037L923.738 474.596C917.045 455.307 908.954 433.038 897.621 412.916C880.501 382.603 857.345 359.094 828.797 343.031C766.472 307.968 672.088 314.339 604.37 358.172C550.217 393.226 506.976 442.15 465.151 489.464C446.594 510.46 427.407 532.163 407.516 552.374C364.312 596.509 319.163 627.588 273.331 644.747C234.684 659.123 196.513 663.008 159.866 656.286C132.874 651.337 106.213 640.471 80.6138 624.007C58.5735 609.825 36.6848 591.07 15.5617 568.259C9.11903 561.325 2.50959 553.786 -4.0675 545.861C-18.4077 528.547 -32.1951 510.131 -45.5262 492.313C-71.5912 457.482 -98.5525 421.466 -131.591 390.936C-144.179 379.295 -157.849 368.428 -172.22 358.629C-247.083 307.585 -338.205 286.253 -422.211 300.1C-430.932 301.536 -439.723 303.381 -448.325 305.584C-544.536 330.204 -625.353 402.575 -654.215 489.957L-656.742 489.21L-656.73 489.234Z" fill="url(#paint6_linear_2040_4788)" fill-opacity="0.2"/>
<path d="M-654.417 496.48C-639.874 453.138 -612.314 413.213 -574.705 381.009C-538.265 349.812 -494.491 327.481 -448.118 316.437C-439.556 314.398 -430.827 312.718 -422.168 311.432C-339.487 299.162 -249.415 321.184 -175.037 371.859C-160.826 381.543 -147.246 392.256 -134.677 403.706C-102.557 432.96 -75.9228 467.057 -50.1655 500.029C-36.1498 517.967 -21.6612 536.517 -6.60781 553.837C-0.00566855 561.415 6.61174 568.613 13.0619 575.228C58.27 621.786 106.059 649.54 155.094 657.725C190.845 663.692 227.81 659.429 264.975 645.062C309.3 627.806 352.813 596.862 394.301 553.095C413.217 533.262 431.48 511.982 449.153 491.401C489.872 443.967 531.975 394.913 585.381 359.497C618.488 337.536 659.78 323.987 701.648 321.338C744.22 318.646 784.782 327.507 815.855 346.292C844.709 363.733 867.158 387.972 884.487 420.393C895.289 440.68 903.151 462.921 910.284 483.963C925.391 528.615 942.515 579.227 978.203 610.627C984.872 616.485 992.131 621.574 999.764 625.753C1036.91 646.245 1083.24 648.641 1145.55 633.299C1166.02 628.256 1187.36 621.509 1207.99 614.984C1219.39 611.376 1231.18 607.651 1242.78 604.222C1263.5 598.081 1280.82 594.022 1297.28 591.459C1334.84 585.563 1374.2 586.161 1417.63 593.298C1452.57 598.956 1485 608.103 1512.12 616.312C1517.56 617.968 1523.22 619.761 1529.42 621.787C1579.51 638.014 1701.53 681.195 1752.63 731.525L1750.72 733.352C1700.02 683.409 1578.46 640.412 1528.54 624.233C1522.35 622.213 1516.7 620.425 1511.29 618.769C1484.26 610.589 1451.93 601.465 1417.15 595.837C1374.01 588.75 1334.92 588.15 1297.66 594C1281.32 596.55 1264.11 600.579 1243.52 606.685C1231.94 610.108 1220.16 613.831 1208.77 617.435C1188.09 623.972 1166.71 630.733 1146.16 635.795C1094.99 648.395 1054.42 649.127 1020.75 637.811C1012.95 635.189 1005.53 631.925 998.431 628.007C990.634 623.739 983.219 618.542 976.407 612.561C940.212 580.716 922.974 529.771 907.768 484.818C900.671 463.87 892.845 441.738 882.132 421.625C865.02 389.619 842.874 365.695 814.426 348.5C751.445 310.423 655.736 315.946 586.852 361.624C533.763 396.831 491.783 445.741 451.185 493.038C433.495 513.647 415.208 534.954 396.247 554.834C354.482 598.891 310.641 630.055 265.93 647.461C228.305 662.01 190.851 666.322 154.609 660.278C105.005 652.004 56.7304 623.991 11.1336 577.028C4.65286 570.383 -1.99906 563.145 -8.63173 555.537C-23.736 538.165 -38.2427 519.588 -52.2765 501.623C-77.9671 468.736 -104.535 434.723 -136.5 405.617C-148.985 394.243 -162.467 383.604 -176.577 373.989C-250.407 323.689 -339.794 301.823 -421.807 313.995C-430.39 315.265 -439.037 316.932 -447.521 318.949C-542.952 341.671 -623.167 411.661 -651.882 497.244L-654.404 496.485L-654.417 496.48Z" fill="url(#paint7_linear_2040_4788)" fill-opacity="0.2"/>
<path d="M-652.1 503.722C-623.234 419.046 -542.842 350.759 -447.289 329.757C-438.867 327.905 -430.266 326.401 -421.749 325.287C-341.105 314.697 -252.782 337.255 -179.424 387.19C-165.478 396.682 -152.086 407.168 -139.627 418.348C-108.658 446.125 -82.5025 478.182 -57.2068 509.181C-42.4181 527.305 -27.1295 546.042 -11.2349 563.44C-4.57324 570.708 2.08908 577.599 8.57091 583.922C53.8033 628.26 101.312 654.418 149.775 661.677C185.127 666.968 221.379 662.287 257.523 647.76C300.708 630.272 342.917 599.251 382.981 555.56C400.981 536.056 418.367 515.172 435.174 494.972C474.652 447.538 515.478 398.485 567.818 362.935C601.254 340.227 643.223 326.459 685.991 324.182C729.404 321.868 770.438 331.663 801.535 351.773C829.877 370.099 851.949 395.404 869.011 429.122C879.173 449.284 886.482 470.509 894.312 494.173C911.012 544.719 928.933 592.561 964.323 622.414C971.237 628.238 978.746 633.24 986.629 637.277C1036.49 663.045 1095.15 650.866 1134.95 639.469C1152.61 634.412 1171 628.086 1188.79 621.975C1203.27 616.995 1218.23 611.85 1233.06 607.287C1253.87 600.863 1271.5 596.735 1288.54 594.298C1326.42 588.841 1366.3 590.909 1410.47 600.621C1443.5 607.806 1475.22 618.494 1504.87 628.823C1510.01 630.628 1515.68 632.663 1522.2 635.041C1638.81 677.219 1714.02 712.199 1752.13 741.973L1750.45 743.992C1712.56 714.388 1637.58 679.541 1521.23 637.451C1514.71 635.076 1509.05 633.048 1503.93 631.25C1474.36 620.948 1442.74 610.286 1409.85 603.134C1366 593.49 1326.43 591.431 1288.89 596.843C1271.99 599.261 1254.49 603.355 1233.82 609.731C1219.04 614.283 1204.09 619.42 1189.63 624.392C1171.81 630.519 1153.38 636.853 1135.65 641.927C1095.41 653.457 1036.05 665.751 985.352 639.55C977.299 635.421 969.628 630.31 962.564 624.361C926.669 594.077 908.605 545.885 891.789 494.992C883.987 471.426 876.714 450.288 866.63 430.276C849.774 396.964 827.994 371.983 800.042 353.911C737.441 313.424 638.248 318.208 569.317 365.024C517.29 400.356 476.59 449.259 437.233 496.557C420.402 516.783 402.999 537.695 384.954 557.245C344.625 601.232 302.084 632.484 258.51 650.13C221.904 664.844 185.174 669.584 149.331 664.217C100.302 656.877 52.3096 630.474 6.68165 585.75C0.169271 579.396 -6.52977 572.471 -13.2197 565.166C-29.1652 547.717 -44.4782 528.951 -59.285 510.801C-84.5179 479.877 -110.617 447.894 -141.438 420.249C-153.814 409.145 -167.114 398.732 -180.963 389.3C-253.79 339.728 -341.441 317.321 -421.429 327.829C-429.873 328.934 -438.391 330.424 -446.737 332.261C-541.383 353.068 -620.997 420.662 -649.564 504.479L-652.083 503.714L-652.1 503.722Z" fill="url(#paint8_linear_2040_4788)" fill-opacity="0.2"/>
<path d="M-649.788 510.97C-635.374 469.358 -607.99 431.444 -570.608 401.309C-534.624 372.309 -491.699 352.174 -446.469 343.083C-438.172 341.415 -429.715 340.089 -421.331 339.143C-381.024 334.556 -339.3 338.114 -297.323 349.722C-257.231 360.798 -219.043 378.567 -183.815 402.529C-170.136 411.836 -156.936 422.085 -144.586 432.996C-114.852 459.253 -89.2706 489.245 -64.5324 518.247C-48.8858 536.59 -32.7079 555.558 -15.8805 573.051C-9.17175 580.006 -2.46695 586.596 4.05288 592.63C49.2946 634.749 96.5242 659.311 144.432 665.636C179.385 670.251 214.92 665.142 250.049 650.459C292.089 632.75 333.003 601.649 371.638 558.025C388.743 538.85 405.253 518.358 421.217 498.539C459.434 451.097 498.95 402.041 550.238 366.377C583.997 342.898 626.642 328.918 670.316 327.014C714.576 325.08 756.086 335.818 787.202 357.251C815.036 376.429 836.726 402.793 853.512 437.852C863.734 459.283 871.142 482.216 878.315 504.39C894.108 553.329 912.691 603.665 950.416 634.215C957.583 640 965.333 644.919 973.47 648.821C1023.84 673.211 1080.55 659.943 1124.33 645.658C1139.65 640.653 1155.6 634.704 1171.01 628.947C1188.08 622.58 1205.72 615.988 1223.31 610.366C1243.98 603.737 1262.45 599.419 1279.78 597.16C1318.12 592.112 1358.53 595.646 1403.29 607.979C1434.53 616.501 1464.01 628.124 1495.21 640.438L1497.6 641.377C1503.14 643.578 1508.77 645.842 1514.49 648.14L1514.95 648.324C1524.53 652.149 1534.34 656.04 1544.3 659.993C1619.57 689.862 1704.88 723.721 1751.61 752.469L1750.16 754.657C1703.63 726.029 1618.43 692.216 1543.26 662.386C1533.3 658.434 1523.49 654.542 1513.9 650.715L1513.44 650.532C1507.73 648.235 1502.11 645.974 1496.56 643.772L1494.18 642.835C1463.04 630.551 1433.63 618.951 1402.54 610.469C1358.12 598.239 1318.07 594.723 1280.09 599.729C1262.93 601.97 1244.62 606.25 1224.11 612.83C1206.58 618.432 1188.97 625.008 1171.94 631.371C1156.49 637.137 1140.52 643.099 1125.14 648.119C1095.66 657.745 1070.34 663.102 1047.77 664.496C1019.15 666.262 994.451 661.901 972.266 651.16C963.958 647.172 956.03 642.146 948.708 636.233C910.444 605.248 891.705 554.523 875.798 505.231C868.652 483.134 861.263 460.283 851.119 439.002C834.53 404.353 813.111 378.312 785.651 359.391C722.417 315.83 621.872 319.741 551.77 368.49C500.803 403.933 461.407 452.838 423.307 500.133C407.32 519.979 390.792 540.5 373.648 559.723C334.746 603.648 293.504 634.989 251.082 652.858C215.496 667.73 179.489 672.899 144.047 668.223C131.159 666.522 118.318 663.513 105.557 659.221C70.3453 647.379 35.7267 625.727 2.21793 594.537C-4.33245 588.472 -11.0741 581.849 -17.8196 574.861C-34.702 557.309 -50.904 538.312 -66.5773 519.946C-91.2628 491.01 -116.779 461.088 -146.382 434.95C-158.653 424.108 -171.767 413.928 -185.358 404.686C-257.208 355.819 -343.123 332.877 -421.067 341.742C-429.372 342.68 -437.755 343.997 -445.976 345.65C-539.825 364.51 -618.836 429.723 -647.276 511.794L-649.791 511.017L-649.788 510.97Z" fill="url(#paint9_linear_2040_4788)" fill-opacity="0.2"/>
<path d="M-647.474 518.211C-633.117 477.464 -605.825 440.546 -568.551 411.451C-532.792 383.541 -490.285 364.506 -445.633 356.4C-437.47 354.92 -429.148 353.768 -420.902 352.988C-381.413 349.216 -340.532 353.342 -299.387 365.246C-260.358 376.541 -222.942 394.236 -188.194 417.851C-174.786 426.964 -161.772 436.98 -149.527 447.628C-121.118 472.309 -96.2194 500.206 -72.1492 527.186C-55.5409 545.791 -38.3728 565.038 -20.5018 582.648C-13.7397 589.292 -6.99006 595.575 -0.432286 601.321C44.8142 641.233 91.7663 664.193 139.119 669.583C173.683 673.511 208.499 667.983 242.603 653.153C283.495 635.228 323.105 604.052 360.323 560.485C376.548 541.638 392.191 521.532 407.325 502.092C444.258 454.635 482.452 405.566 532.686 369.813C566.764 345.557 610.081 331.356 654.661 329.825C699.774 328.274 741.758 339.959 772.895 362.724C800.23 382.715 821.543 410.147 838.05 446.574C847.474 467.455 854.586 489.98 861.462 511.767L862.356 514.593C878.356 565.309 898.416 616.329 936.547 646.001C943.958 651.752 951.967 656.579 960.343 660.349C1011.83 683.708 1069.37 668.063 1113.75 651.826C1127.1 646.941 1140.35 641.58 1154.38 635.907C1173.66 628.115 1193.59 620.056 1213.59 613.422C1234.45 606.497 1253.24 602.103 1271.05 599.99C1309.96 595.331 1350.88 600.341 1396.15 615.3C1423.62 624.305 1449.32 635.706 1476.53 647.769C1481.1 649.792 1485.7 651.834 1490.35 653.884L1492.72 654.934C1497.65 657.121 1502.65 659.338 1507.73 661.566C1545.19 677.92 1586.32 694.42 1626.09 710.375C1674.1 729.637 1719.45 747.831 1751.1 762.931L1749.9 765.25C1718.32 750.183 1673.01 732.008 1625.04 712.761C1585.25 696.799 1544.11 680.293 1506.6 663.918C1501.52 661.688 1496.51 659.469 1491.58 657.281L1489.22 656.232C1484.56 654.188 1479.96 652.144 1475.39 650.114C1448.24 638.075 1422.58 626.695 1395.25 617.735C1350.36 602.898 1309.83 597.928 1271.32 602.538C1253.71 604.626 1235.09 608.984 1214.41 615.845C1194.49 622.445 1174.6 630.49 1155.36 638.268C1141.93 643.696 1128.04 649.314 1114.65 654.221C1084.38 665.293 1059.55 671.511 1036.48 673.787C1007.29 676.669 982.014 673.029 959.186 662.677C950.617 658.821 942.437 653.888 934.862 648.013C896.181 617.916 875.932 566.483 859.816 515.384L858.921 512.559C852.066 490.848 844.977 468.392 835.617 447.642C819.295 411.62 798.245 384.517 771.276 364.786C708.469 318.858 604.352 321.966 534.233 371.87C484.322 407.395 446.249 456.307 409.437 503.612C394.285 523.08 378.618 543.212 362.354 562.108C324.873 605.984 284.933 637.406 243.662 655.499C209.106 670.526 173.816 676.122 138.773 672.142C90.866 666.696 43.4297 643.511 -2.22366 603.242C-8.81204 597.466 -15.5984 591.15 -22.3973 584.473C-40.3293 566.801 -57.5242 547.532 -74.1568 528.898C-98.1806 501.981 -123.019 474.146 -151.304 449.569C-163.478 438.992 -176.402 429.034 -189.734 419.981C-261.683 371.095 -343.71 348.219 -420.687 355.564C-428.855 356.343 -437.101 357.48 -445.188 358.944C-538.237 375.831 -616.652 438.661 -644.953 519.011L-647.463 518.221L-647.474 518.211Z" fill="url(#paint10_linear_2040_4788)" fill-opacity="0.2"/>
<path d="M-645.159 525.457C-630.861 485.561 -603.664 449.646 -566.502 421.603C-530.96 394.778 -488.877 376.842 -444.812 369.725C-436.774 368.429 -428.589 367.457 -420.483 366.843C-381.816 363.885 -341.775 368.571 -301.466 380.777C-263.51 392.281 -226.872 409.9 -192.582 433.183C-179.451 442.1 -166.629 451.88 -154.475 462.265C-127.49 485.314 -103.415 511.082 -80.14 536.005C-62.4648 554.929 -44.1814 574.496 -25.1395 592.239C-18.3405 598.56 -11.5461 604.535 -4.94248 610.008C40.294 647.716 86.9704 669.088 133.787 673.529C167.475 676.724 202.519 670.606 235.138 655.846C275.436 637.467 312.675 607.076 348.989 562.944C364.346 544.429 379.152 524.706 393.464 505.627C429.09 458.155 465.93 409.068 515.12 373.237C549.506 348.192 593.497 333.765 638.981 332.612C684.952 331.453 727.415 344.088 758.56 368.187C785.406 388.96 806.338 417.451 822.558 455.285C831.222 475.574 837.905 497.297 844.369 518.308C845.035 520.467 845.7 522.632 846.366 524.79C861.414 573.59 882.248 627.552 922.649 657.776C930.305 663.492 938.564 668.232 947.194 671.869C999.825 694.235 1058.18 676.2 1103.14 657.991C1114.79 653.267 1126.34 648.227 1138.57 642.893C1159.77 633.641 1181.68 624.076 1203.85 616.482C1224.91 609.248 1244.03 604.783 1262.28 602.83C1301.83 598.549 1343.27 605.03 1388.96 622.634C1413.81 632.144 1436.93 643.602 1461.39 655.733C1468.44 659.229 1475.73 662.841 1483.07 666.408C1489.98 669.786 1495.34 672.379 1500.48 674.828C1577.12 711.136 1672.01 745.208 1734.79 767.758C1740.3 769.735 1745.57 771.632 1750.58 773.432L1749.61 775.85C1744.61 774.051 1739.33 772.154 1733.82 770.177C1670.99 747.61 1576.03 713.506 1499.27 677.144C1494.13 674.694 1488.75 672.09 1481.84 668.716C1474.49 665.147 1467.2 661.529 1460.14 658.029C1435.73 645.929 1412.67 634.497 1387.93 625.032C1342.65 607.578 1301.62 601.154 1262.51 605.39C1244.46 607.323 1225.54 611.745 1204.68 618.907C1182.61 626.467 1160.75 636.009 1139.61 645.239C1127.9 650.349 1115.8 655.629 1104.11 660.368C1061.25 677.723 1006.33 694.901 955.323 677.745C952.226 676.703 949.148 675.537 946.08 674.231C937.261 670.517 928.819 665.668 920.992 659.825C880.01 629.166 858.973 574.751 843.809 525.57C843.143 523.411 842.476 521.253 841.812 519.088C835.367 498.138 828.697 476.474 820.093 456.308C804.052 418.877 783.368 390.717 756.871 370.212C693.457 321.136 587.943 323.363 516.671 375.282C467.817 410.869 431.093 459.796 395.589 507.11C381.255 526.209 366.432 545.96 351.036 564.524C314.463 608.974 276.902 639.606 236.212 658.169C203.155 673.125 167.628 679.32 133.468 676.09C86.1076 671.603 38.9463 650.027 -6.70156 611.975C-13.3381 606.478 -20.1671 600.463 -27.0028 594.11C-46.1098 576.296 -64.4237 556.698 -82.1295 537.744C-105.362 512.876 -129.386 487.16 -156.258 464.203C-168.339 453.884 -181.08 444.152 -194.135 435.295C-265.171 387.078 -345.501 363.676 -420.332 369.404C-428.361 370.017 -436.469 370.974 -444.434 372.26C-536.668 387.151 -614.48 447.599 -642.663 526.248L-645.167 525.441L-645.159 525.457Z" fill="url(#paint11_linear_2040_4788)" fill-opacity="0.2"/>
<path d="M-642.85 532.698C-628.608 493.646 -601.502 458.742 -564.453 431.751C-529.121 406.014 -487.469 389.174 -443.986 383.054C-436.079 381.941 -428.032 381.149 -420.064 380.7C-346.84 376.53 -267.612 400.612 -196.974 448.51C-184.125 457.222 -171.491 466.774 -159.436 476.9C-133.997 498.249 -110.895 521.852 -88.56 544.676C-69.6768 563.972 -50.1543 583.922 -29.7872 601.837C-22.935 607.846 -16.0918 613.523 -9.45643 618.704C35.7631 654.226 82.1621 673.995 128.447 677.475C161.749 679.978 196.063 673.429 227.665 658.538C266.782 639.961 302.758 609.495 337.647 565.403C352.16 547.214 366.132 527.862 379.647 509.152C413.948 461.659 449.412 412.553 497.541 376.673C532.23 350.817 576.881 336.165 623.285 335.404C670.119 334.637 713.069 348.225 744.218 373.664C770.585 395.195 791.142 424.747 807.06 464.01C815.002 483.68 821.264 504.596 827.319 524.826C828.331 528.219 829.352 531.608 830.372 534.997C844.389 581.468 865.964 638.761 908.751 669.568C916.653 675.244 925.163 679.896 934.044 683.405C987.634 704.729 1046.89 684.323 1092.54 664.168C1102.4 659.773 1112.6 654.981 1122.47 650.349C1145.67 639.458 1169.65 628.199 1194.11 619.551C1215.4 612.01 1234.83 607.474 1253.53 605.68C1293.76 601.774 1335.71 609.723 1381.78 629.985C1404.73 640.023 1425.98 651.711 1448.47 664.084C1457.34 668.959 1466.5 674.005 1475.8 678.948C1482.2 682.371 1487.9 685.367 1493.23 688.104C1578.72 731.759 1685.01 767.028 1750.05 783.971L1749.32 786.461C1684.15 769.488 1577.64 734.144 1491.95 690.392C1486.61 687.648 1480.89 684.648 1474.48 681.215C1465.17 676.266 1455.99 671.218 1447.12 666.34C1424.68 653.999 1403.49 642.336 1380.64 632.345C1335 612.27 1293.49 604.393 1253.73 608.252C1235.26 610.026 1216.04 614.517 1194.97 621.981C1170.64 630.583 1146.72 641.814 1123.58 652.677C1113.69 657.317 1103.48 662.112 1093.59 666.524C1049.24 686.105 992.131 705.891 939.362 688.15C937.231 687.433 935.102 686.655 932.983 685.812C923.905 682.231 915.203 677.473 907.124 671.668C863.719 640.414 841.934 582.631 827.806 535.78C826.786 532.391 825.766 529.002 824.748 525.607C818.707 505.431 812.46 484.568 804.562 465.008C788.804 426.142 768.489 396.919 742.46 375.666C679.497 324.257 570.332 325.627 499.104 378.722C451.308 414.35 415.962 463.289 381.785 510.619C368.253 529.357 354.259 548.729 339.713 566.969C304.57 611.387 268.275 642.102 228.767 660.864C196.731 675.958 161.943 682.595 128.17 680.057C81.3445 676.54 34.4647 656.574 -11.1692 620.735C-17.8437 615.527 -24.7174 609.819 -31.6064 603.777C-52.0493 585.802 -71.6063 565.813 -90.5201 546.486C-112.814 523.704 -135.872 500.15 -161.214 478.881C-173.206 468.811 -185.764 459.319 -198.546 450.65C-268.702 403.078 -347.343 379.153 -419.985 383.286C-427.881 383.731 -435.848 384.515 -443.68 385.613C-533.695 398.282 -612.738 457.727 -640.376 533.53L-642.876 532.71L-642.85 532.698Z" fill="url(#paint12_linear_2040_4788)" fill-opacity="0.2"/>
<path d="M-640.537 539.944C-626.358 501.734 -599.337 467.83 -562.397 441.9C-527.776 417.597 -485.428 401.429 -443.152 396.378C-435.384 395.451 -427.474 394.839 -419.631 394.554C-382.636 393.201 -344.273 399.018 -305.611 411.843C-269.876 423.697 -234.777 441.196 -201.355 463.839C-188.789 472.353 -176.353 481.667 -164.385 491.537C-140.627 511.115 -118.681 532.504 -97.4584 553.198C-77.216 572.931 -56.2843 593.334 -34.4227 611.437C-27.5234 617.133 -20.6355 622.502 -13.9622 627.394C31.2258 660.731 77.3427 678.91 123.12 681.424C156.044 683.229 189.616 676.245 220.212 661.229C258.15 642.467 292.858 611.923 326.326 567.859C340.011 549.989 353.171 531.008 365.901 512.651C398.842 465.138 432.912 416.009 479.984 380.102C497.594 366.672 517.878 356.2 540.28 348.979C561.973 341.985 584.619 338.351 607.607 338.18C655.314 337.816 698.742 352.361 729.899 379.133C756.154 401.697 775.758 431.437 791.585 472.728C798.845 491.744 804.686 511.853 810.341 531.297C811.688 535.934 813.04 540.574 814.406 545.197C827.2 588.562 849.467 649.862 894.873 681.358C903.022 686.994 911.786 691.567 920.914 694.939C975.715 715.333 1035.77 692.518 1081.96 670.344C1090.52 666.203 1099.35 661.753 1107.91 657.448C1132.6 645.023 1158.14 632.174 1184.4 622.613C1205.92 614.76 1225.67 610.151 1244.78 608.519C1285.75 604.983 1328.22 614.403 1374.61 637.326C1396.16 647.92 1416.01 659.948 1437.03 672.684C1447.23 678.867 1457.78 685.263 1468.54 691.475C1474.83 695.119 1480.53 698.355 1486 701.361C1573.47 749.24 1681.4 782.633 1749.57 794.495L1749.06 797.032C1680.68 785.14 1572.41 751.64 1484.67 703.616C1479.18 700.597 1473.45 697.352 1467.16 693.698C1456.38 687.474 1445.81 681.072 1435.59 674.885C1414.63 662.18 1394.82 650.181 1373.38 639.634C1327.43 616.937 1285.43 607.6 1244.97 611.094C1226.1 612.703 1206.58 617.265 1185.29 625.032C1159.18 634.54 1133.72 647.353 1109.09 659.739C1100.53 664.049 1091.68 668.501 1083.1 672.656C1051.72 687.718 1026.13 696.958 1002.54 701.749C971.698 708.007 944.664 706.563 919.927 697.358C910.595 693.911 901.635 689.244 893.303 683.478C873.387 669.665 856.623 649.84 842.061 622.867C830.738 601.901 821.142 577.462 811.848 545.963C810.478 541.331 809.131 536.693 807.781 532.048C802.143 512.651 796.311 492.593 789.092 473.673C773.423 432.785 754.043 403.368 728.117 381.086C664.552 326.462 553.963 326.929 481.596 382.133C434.859 417.782 400.917 466.735 368.091 514.074C355.346 532.453 342.168 551.462 328.452 569.377C294.731 613.781 259.705 644.574 221.38 663.529C190.362 678.753 156.314 685.831 122.929 684C76.6215 681.46 30.0209 663.111 -15.5838 629.463C-22.2962 624.543 -29.2209 619.141 -36.157 613.412C-58.1007 595.248 -79.0731 574.803 -99.3523 555.037C-120.541 534.383 -142.443 513.028 -166.122 493.519C-178.026 483.704 -190.4 474.432 -202.901 465.967C-272.232 419.002 -349.185 394.553 -419.583 397.129C-427.347 397.406 -435.178 398.017 -442.872 398.935C-532.069 409.581 -610.502 466.586 -638.034 540.772L-640.527 539.934L-640.537 539.944Z" fill="url(#paint13_linear_2040_4788)" fill-opacity="0.2"/>
<path d="M-635.734 548.038L-638.222 547.188C-624.097 509.817 -597.164 476.918 -560.341 452.052C-525.919 428.806 -484.007 413.767 -442.319 409.712C-434.685 408.973 -426.911 408.535 -419.209 408.422C-383.064 407.86 -345.552 414.248 -307.687 427.388C-273.067 439.41 -238.769 456.838 -205.74 479.184C-193.478 487.48 -181.23 496.566 -169.33 506.187C-147.421 523.901 -126.842 543.034 -106.939 561.534C-84.1524 582.72 -62.6298 602.726 -39.0583 621.04C-32.1284 626.41 -25.1979 631.478 -18.4639 636.096C26.6793 667.264 72.5226 683.849 117.796 685.383C150.339 686.484 183.175 679.067 212.755 663.935C249.503 644.998 282.954 614.381 315 570.332C327.878 552.779 340.245 534.156 352.202 516.142C383.767 468.611 416.401 419.457 462.417 383.543C480.162 369.693 500.709 358.952 523.486 351.609C545.505 344.512 568.519 340.927 591.904 340.951C615.395 340.969 637.905 344.63 658.871 351.839C680.707 359.348 699.784 370.375 715.569 384.616C741.363 407.89 760.594 438.664 776.099 481.459C782.71 499.791 788.142 519.063 793.389 537.704C795.026 543.517 796.72 549.534 798.422 555.416C818.568 625.21 844.805 668.981 880.985 693.162C889.378 698.764 898.394 703.244 907.774 706.488C963.866 726.019 1024.66 700.736 1071.36 676.537C1078.77 672.669 1086.42 668.559 1093.81 664.591C1119.84 650.61 1146.76 636.153 1174.67 625.7C1196.43 617.537 1216.5 612.852 1236.03 611.387C1277.76 608.216 1320.74 619.112 1367.43 644.693C1387.89 655.864 1406.68 668.317 1426.57 681.503C1437.79 688.939 1449.39 696.627 1461.27 704.026C1467.48 707.911 1473.19 711.384 1478.76 714.65C1557.37 760.559 1666 796.89 1749.07 805.059L1748.75 807.62C1710.04 803.812 1662.79 793.236 1615.7 777.838C1565.24 761.332 1517.4 740.248 1477.36 716.867C1471.77 713.589 1466.03 710.099 1459.8 706.208C1447.89 698.786 1436.28 691.092 1425.04 683.644C1405.2 670.495 1386.46 658.065 1366.08 646.951C1319.86 621.622 1277.37 610.836 1236.18 613.963C1216.91 615.412 1197.09 620.036 1175.57 628.112C1147.84 638.499 1121.01 652.916 1095.06 666.855C1087.66 670.829 1080 674.943 1072.57 678.817C1040.9 695.228 1015.05 705.482 991.215 711.097C959.836 718.482 932.242 717.804 906.832 708.935C897.24 705.62 888.03 701.04 879.445 695.313C859.177 681.766 841.42 661.257 826.654 634.338C814.964 613.022 804.891 587.455 795.859 556.173C794.153 550.283 792.459 544.266 790.824 538.447C785.589 519.851 780.17 500.617 773.59 482.372C758.232 439.975 739.217 409.521 713.736 386.537C650.648 329.618 536.309 329.174 464.046 385.566C418.37 421.21 385.854 470.177 354.41 517.536C342.432 535.57 330.047 554.222 317.138 571.819C284.839 616.209 251.083 647.094 213.94 666.227C183.944 681.569 150.642 689.09 117.634 687.977C93.7502 687.168 69.3044 682.081 44.9681 672.853C23.1066 664.567 1.23309 652.916 -20.0454 638.226C-26.8122 633.583 -33.7817 628.488 -40.7547 623.083C-64.4185 604.697 -86.9886 583.721 -108.811 563.429C-128.682 544.953 -149.23 525.851 -171.07 508.195C-182.91 498.621 -195.096 489.576 -207.303 481.32C-255.806 448.501 -331.941 409.66 -419.235 411.007C-426.861 411.124 -434.562 411.553 -442.125 412.288C-530.494 420.888 -608.308 475.447 -635.753 548.052L-635.734 548.038Z" fill="url(#paint14_linear_2040_4788)" fill-opacity="0.2"/>
<path d="M-633.421 555.29L-635.905 554.427C-621.829 517.882 -594.994 485.992 -558.281 462.193C-524.056 439.999 -482.573 426.091 -441.481 423.029C-433.984 422.47 -426.341 422.214 -418.778 422.267C-333.847 422.815 -258.43 461.854 -210.123 494.505C-198.173 502.585 -186.118 511.435 -174.282 520.815C-154.415 536.56 -135.451 553.373 -117.109 569.634C-92.4875 591.464 -69.229 612.082 -43.6965 630.631C-36.7132 635.689 -29.7442 640.448 -22.9746 644.783C21.4767 673.393 68.3098 688.795 112.464 689.328C144.629 689.712 176.729 681.862 205.295 666.628C241.353 647.266 272.61 617.454 303.677 572.793C315.769 555.545 327.359 537.27 338.566 519.594C368.72 472.047 399.901 422.876 444.859 386.976C462.734 372.702 483.541 361.678 506.691 354.221C529.036 347.021 552.419 343.483 576.202 343.696C600.076 343.912 622.931 347.908 644.142 355.57C666.262 363.559 685.477 375.174 701.241 390.073C726.582 414.033 745.45 445.838 760.614 490.166C766.621 507.787 771.637 526.22 776.493 544.051C778.42 551.134 780.419 558.454 782.438 565.609C802.144 635.346 829.838 680.925 867.097 704.941C875.738 710.502 884.993 714.905 894.638 718.005C952.035 736.672 1013.57 708.942 1060.78 682.695C1067.16 679.115 1073.75 675.356 1080.11 671.719C1107.34 656.159 1135.5 640.067 1164.93 628.742C1186.94 620.262 1207.34 615.509 1227.28 614.209C1250.1 612.704 1273.86 615.755 1297.89 623.276C1318.05 629.591 1339.04 639.255 1360.24 652.012C1379.87 663.781 1397.83 676.722 1416.83 690.414C1428.83 699.06 1441.23 707.999 1453.99 716.531C1460.17 720.673 1465.9 724.391 1471.52 727.886C1551.69 777.621 1663.04 812.863 1748.59 815.575L1748.46 818.15C1702.07 816.679 1648.12 805.691 1595.65 788.041C1550.86 772.978 1507.14 753.067 1470.07 730.06C1464.42 726.542 1458.67 722.816 1452.47 718.653C1439.67 710.094 1427.25 701.143 1415.24 692.485C1396.28 678.821 1378.37 665.918 1358.82 654.198C1313 626.627 1268.79 614.036 1227.42 616.766C1207.76 618.051 1187.63 622.743 1165.88 631.125C1136.64 642.371 1108.58 658.413 1081.43 673.926C1075.07 677.567 1068.48 681.333 1062.07 684.915C1041.97 696.094 1011.59 711.925 979.917 720.378C948.004 728.894 919.824 728.918 893.762 720.441C883.917 717.26 874.442 712.769 865.61 707.082C827.81 682.712 799.77 636.668 779.885 566.322C777.856 559.156 775.861 551.824 773.928 544.738C769.086 526.947 764.071 508.548 758.091 491.005C743.058 447.078 724.401 415.59 699.363 391.925C635.675 331.709 519.878 330.343 446.511 388.938C401.909 424.56 370.843 473.536 340.808 520.897C329.586 538.596 317.977 556.898 305.855 574.191C274.545 619.202 242.984 649.283 206.532 668.855C177.561 684.309 144.999 692.271 112.372 691.883C67.7145 691.346 20.3947 675.801 -24.4744 646.92C-31.2854 642.564 -38.2997 637.776 -45.3197 632.685C-70.9508 614.061 -95.3418 592.439 -118.927 571.533C-137.243 555.295 -156.186 538.503 -175.993 522.805C-187.774 513.465 -199.78 504.652 -211.674 496.61C-259.679 464.164 -334.591 425.371 -418.849 424.823C-426.343 424.772 -433.908 425.027 -441.331 425.576C-528.862 432.098 -606.059 484.219 -633.419 555.263L-633.421 555.29Z" fill="url(#paint15_linear_2040_4788)" fill-opacity="0.2"/>
<path d="M-631.114 562.553L-633.59 561.672C-619.57 525.951 -592.815 495.063 -556.226 472.346C-522.185 451.208 -481.138 438.429 -440.649 436.364C-433.271 435.992 -425.772 435.914 -418.348 436.133C-383.933 437.143 -348.088 444.651 -311.826 458.459C-279.578 470.732 -246.834 488.023 -214.509 509.852C-202.892 517.697 -191.023 526.313 -179.237 535.47C-161.647 549.125 -144.595 563.546 -128.102 577.491C-101.38 600.083 -76.1349 621.431 -48.3467 640.251C-41.3288 644.992 -34.3089 649.446 -27.4888 653.496C16.9011 680 63.4494 693.763 107.127 693.298C138.918 692.959 170.282 684.676 197.832 669.347C232.675 649.837 262.711 619.949 292.342 575.285C303.669 558.335 314.501 540.402 324.974 523.054C353.696 475.491 383.398 426.316 427.288 390.44C501.621 329.691 622.933 332.088 686.905 395.584C712.102 420.401 730.062 452.271 745.13 498.921C750.562 515.793 755.182 533.373 759.646 550.373C761.848 558.749 764.125 567.412 766.462 575.854C785.744 645.546 814.935 692.959 853.216 716.777C862.103 722.298 871.619 726.603 881.504 729.585C940.259 747.419 1002.52 717.214 1050.19 688.916C1055.67 685.648 1061.31 682.228 1066.76 678.923C1095.07 661.764 1124.35 644.026 1155.21 631.848C1177.48 623.051 1198.2 618.225 1218.53 617.093C1261.25 614.688 1306.52 628.924 1353.05 659.4C1372.02 671.792 1390.11 685.889 1407.62 699.515C1420.22 709.333 1433.26 719.486 1446.72 729.106C1452.86 733.504 1458.61 737.459 1464.28 741.199C1545.4 794.464 1659.47 828.612 1748.12 826.177L1748.15 828.752C1704.82 829.945 1655.19 822.698 1604.61 807.791C1552.76 792.516 1503.71 770.228 1462.76 743.344C1457.06 739.587 1451.29 735.616 1445.12 731.195C1431.61 721.546 1418.55 711.378 1405.93 701.542C1388.48 687.945 1370.43 673.885 1351.54 661.549C1305.49 631.391 1260.78 617.299 1218.64 619.667C1198.6 620.781 1178.16 625.544 1156.17 634.236C1125.53 646.328 1096.35 664.006 1068.14 681.107C1062.68 684.41 1057.04 687.829 1051.55 691.108C1031.29 703.132 1000.65 720.229 968.601 729.763C936.158 739.413 907.397 740.167 880.672 732.056C870.573 729.01 860.841 724.604 851.754 718.962C812.915 694.798 783.355 646.889 763.899 576.577C761.553 568.118 759.278 559.449 757.073 551.065C752.612 534.094 747.999 516.551 742.593 499.742C727.662 453.495 709.894 421.936 684.992 397.418C621.926 334.823 502.294 332.49 428.971 392.412C385.438 427.99 355.857 476.972 327.259 524.337C316.768 541.713 305.918 559.674 294.56 576.669C264.682 621.696 234.352 651.862 199.119 671.591C171.17 687.142 139.354 695.548 107.106 695.891C62.9282 696.359 15.895 682.468 -28.9094 655.721C-35.7708 651.65 -42.8277 647.164 -49.8908 642.394C-77.7923 623.501 -103.084 602.11 -129.866 579.47C-146.336 565.54 -163.374 551.138 -180.921 537.518C-192.664 528.395 -204.488 519.808 -216.055 512C-285.235 465.297 -353.34 440.648 -418.479 438.737C-425.825 438.517 -433.256 438.597 -440.562 438.966C-527.245 443.386 -603.823 493.062 -631.117 562.579L-631.114 562.553Z" fill="url(#paint16_linear_2040_4788)" fill-opacity="0.2"/>
<path d="M-628.804 569.812L-631.276 568.919C-617.303 534.018 -590.642 504.134 -554.169 482.496C-520.309 462.407 -479.698 450.758 -439.816 449.696C-432.575 449.503 -425.213 449.606 -417.922 449.993C-354.889 453.336 -287.929 478.629 -218.901 525.179C-207.669 532.758 -195.985 541.14 -184.196 550.1C-169.16 561.524 -154.376 573.453 -140.077 584.992C-110.936 608.509 -83.4066 630.728 -52.9982 649.84C-45.9333 654.267 -38.877 658.418 -32.0129 662.181C12.2965 686.593 58.566 698.718 101.783 697.234C133.197 696.158 163.825 687.441 190.354 672.029C223.985 652.385 252.794 622.42 281.001 577.736C291.588 561.078 301.676 543.464 311.442 526.434C338.705 478.866 366.889 429.68 409.714 393.857C445.193 364.18 494.422 347.882 544.775 349.134C569.441 349.747 592.968 354.421 614.689 363.01C637.389 371.983 656.851 384.779 672.552 401.03C697.335 426.524 714.935 459.399 729.621 507.616C734.513 523.717 738.741 540.431 742.832 556.592C745.282 566.273 747.817 576.292 750.463 586.032C769.608 656.674 799.497 704.625 839.313 728.541C848.446 734.021 858.217 738.247 868.349 741.093C928.492 758.104 991.457 725.432 1039.59 695.064C1044.26 692.106 1048.95 689.096 1053.68 686.069C1082.98 667.301 1113.27 647.899 1145.47 634.888C1168 625.773 1189.03 620.876 1209.77 619.913C1253.31 617.871 1299.09 633.619 1345.85 666.717C1364.3 679.751 1381.83 694.441 1398.78 708.645C1411.87 719.612 1425.4 730.949 1439.44 741.609C1445.56 746.277 1451.32 750.47 1457.02 754.433C1540.03 811.931 1654.11 844.222 1747.64 836.704L1747.81 839.272C1702.3 842.934 1650.85 837.212 1599.04 822.728C1546.37 808.003 1496.71 785.12 1455.45 756.541C1449.71 752.557 1443.94 748.337 1437.77 743.651C1423.69 732.954 1410.14 721.594 1397.03 710.608C1380.12 696.439 1362.64 681.784 1344.27 668.807C1298 636.053 1252.78 620.466 1209.86 622.48C1189.43 623.426 1168.7 628.26 1146.46 637.259C1114.5 650.179 1084.32 669.515 1055.13 688.209C1050.4 691.241 1045.69 694.25 1041.02 697.214C1020.61 710.093 989.724 728.437 957.285 739.055C924.311 749.843 894.973 751.316 867.584 743.573C857.225 740.658 847.243 736.34 837.907 730.744C797.514 706.476 767.238 658.024 747.921 586.734C745.276 576.974 742.737 566.947 740.285 557.252C736.197 541.119 731.973 524.434 727.102 508.388C712.54 460.57 695.125 428.01 670.631 402.812C608.041 338.017 484.509 334.668 411.441 395.789C368.983 431.304 340.919 480.283 313.774 527.644C303.998 544.704 293.888 562.339 283.276 579.043C254.832 624.101 225.735 654.346 191.71 674.221C164.786 689.864 133.712 698.705 101.848 699.802C58.1442 701.293 11.3952 689.061 -33.3333 664.419C-40.2388 660.635 -47.3466 656.454 -54.4506 652C-84.9909 632.809 -112.573 610.544 -141.781 586.979C-156.062 575.452 -170.836 563.533 -185.839 552.134C-197.59 543.2 -209.234 534.845 -220.428 527.293C-289.052 481.016 -355.561 455.867 -418.1 452.554C-425.322 452.169 -432.615 452.07 -439.778 452.261C-524.26 454.506 -601.98 502.845 -628.793 569.802L-628.804 569.812Z" fill="url(#paint17_linear_2040_4788)" fill-opacity="0.2"/>
<path d="M-626.496 577.074L-628.961 576.163C-615.04 542.075 -588.461 513.198 -552.108 492.651C-518.419 473.602 -478.237 463.084 -438.978 463.033C-431.877 463.027 -424.65 463.304 -417.486 463.861C-356.34 468.613 -292.819 493.689 -223.285 540.52C-212.328 547.897 -201.162 555.824 -189.148 564.749C-177.018 573.755 -164.941 583.073 -153.261 592.085C-121.314 616.73 -91.1413 640.003 -57.6503 659.446C-50.5507 663.556 -43.4519 667.405 -36.5311 670.885C7.69079 693.224 53.6755 703.709 96.4431 701.196C127.928 699.347 157.011 690.447 182.889 674.733C215.308 654.969 242.889 624.934 269.672 580.208C279.535 563.835 288.904 546.534 297.974 529.805C323.75 482.237 350.405 433.05 392.15 397.301C467.266 332.971 594.085 337.363 658.225 406.516C689.47 440.043 704.519 482.825 714.144 516.353C718.527 531.659 722.376 547.491 726.106 562.797C728.788 573.812 731.562 585.201 734.496 596.252C747.567 645.491 773.957 710.468 825.44 740.353C834.82 745.793 844.841 749.931 855.225 752.649C916.791 768.855 980.44 733.696 1029.02 701.254C1032.95 698.624 1036.89 695.959 1040.86 693.274C1071.06 672.88 1102.29 651.797 1135.75 637.961C1158.55 628.53 1179.9 623.554 1201.03 622.764C1245.39 621.083 1291.7 638.346 1338.66 674.073C1356.7 687.767 1373.77 703.087 1390.27 717.901C1403.75 729.985 1417.67 742.484 1432.17 754.158C1438.28 759.096 1444.05 763.526 1449.79 767.714C1533.22 828.496 1649.96 859.728 1747.2 847.282L1747.5 849.839C1689.63 857.249 1624.9 849.285 1564.3 828.91C1522.4 814.817 1482.49 794.794 1448.17 769.79C1442.4 765.578 1436.6 761.118 1430.45 756.154C1415.9 744.441 1401.95 731.92 1388.46 719.815C1371.99 705.034 1354.96 689.755 1337.01 676.123C1290.54 640.775 1244.81 623.693 1201.09 625.35C1180.28 626.127 1159.25 631.03 1136.76 640.337C1103.56 654.069 1072.45 675.074 1042.36 695.389C1038.38 698.072 1034.43 700.743 1030.5 703.374C1009.95 717.098 978.833 736.702 945.969 748.399C912.473 760.323 882.553 762.526 854.496 755.141C843.878 752.359 833.639 748.126 824.057 742.57C771.82 712.246 745.131 646.641 731.937 596.942C728.991 585.866 726.216 574.463 723.539 563.436C719.816 548.147 715.971 532.343 711.605 517.084C702.062 483.824 687.146 441.402 656.261 408.263C593.032 340.089 467.983 335.785 393.908 399.224C352.535 434.651 326.005 483.619 300.344 530.972C291.264 547.726 281.878 565.055 271.984 581.473C244.973 626.581 217.11 656.906 184.293 676.907C158.021 692.852 128.514 701.891 96.5795 703.76C53.3329 706.297 6.879 695.716 -37.7626 673.167C-44.7247 669.666 -51.871 665.794 -59.0158 661.656C-92.6575 642.128 -124.305 617.714 -154.913 594.102C-166.588 585.098 -178.653 575.785 -190.761 566.793C-202.748 557.891 -213.881 549.988 -224.803 542.63C-293.95 496.06 -357.056 471.13 -417.731 466.413C-424.82 465.861 -431.978 465.587 -439.009 465.595C-522.626 465.711 -599.719 511.545 -626.479 577.066L-626.496 577.074Z" fill="url(#paint18_linear_2040_4788)" fill-opacity="0.2"/>
<path d="M-624.194 584.334L-626.653 583.405C-612.774 550.125 -586.289 522.251 -550.056 502.796C-516.526 484.791 -476.789 475.405 -438.151 476.36C-431.187 476.534 -424.091 476.993 -417.066 477.716C-384.885 481.048 -352.495 489.994 -318.046 505.073C-289.397 517.611 -259.835 534.223 -227.679 555.851C-217.304 562.833 -206.318 570.528 -194.111 579.388C-185.325 585.76 -176.48 592.296 -167.935 598.621C-134.268 623.509 -99.458 649.241 -62.3084 669.05C-55.1766 672.848 -48.0268 676.392 -41.0618 679.586C3.06972 699.877 48.7656 708.715 91.0966 705.155C122.196 702.538 150.568 693.213 175.414 677.441C207.05 657.296 232.623 628.073 258.329 582.682C267.487 566.58 276.161 549.579 284.547 533.141C308.811 485.585 333.898 436.405 374.567 400.739C410.978 368.809 462.278 352.019 515.299 354.676C566.818 357.26 613.68 378.147 643.867 411.991C674.435 446.149 688.709 488.321 698.632 525.072C702.538 539.552 706.021 554.486 709.395 568.924C712.28 581.291 715.267 594.082 718.489 606.466C731.477 656.398 758.166 722.211 811.529 752.152C821.156 757.552 831.427 761.603 842.068 764.194C905.089 779.607 969.416 741.958 1018.41 707.44C1021.67 705.146 1024.93 702.821 1028.22 700.488C1059.25 678.461 1091.35 655.685 1126 641.027C1149.06 631.275 1170.72 626.233 1192.24 625.615C1237.45 624.304 1284.28 643.081 1331.43 681.426C1349.13 695.796 1365.82 711.775 1381.96 727.222C1395.73 740.404 1409.97 754.037 1424.85 766.691C1430.97 771.897 1436.74 776.57 1442.51 780.986C1526.24 844.963 1645.65 875.136 1746.72 857.847L1747.13 860.387C1697.11 868.941 1642.06 866.28 1587.92 852.686C1533.44 839.009 1482.59 814.919 1440.84 783.025C1435.04 778.583 1429.23 773.885 1423.08 768.649C1408.15 755.949 1393.88 742.285 1380.08 729.08C1363.97 713.667 1347.33 697.728 1329.71 683.418C1283.05 645.481 1236.81 626.904 1192.27 628.198C1171.1 628.809 1149.76 633.78 1127.02 643.396C1092.64 657.931 1060.68 680.621 1029.76 702.564C1026.47 704.896 1023.2 707.219 1019.94 709.519C999.261 724.093 967.908 744.943 934.616 757.731C900.604 770.792 870.102 773.726 841.378 766.7C830.508 764.045 820.008 759.91 810.173 754.393C756.028 724.01 729.035 657.546 715.923 607.14C712.695 594.733 709.703 581.92 706.809 569.537C703.443 555.115 699.963 540.209 696.071 525.768C686.217 489.301 672.076 447.469 641.856 413.695C612.127 380.369 565.934 359.796 515.119 357.243C462.8 354.623 412.216 371.167 376.33 402.629C336.047 437.958 311.075 486.902 286.923 534.236C278.519 550.702 269.837 567.727 260.653 583.876C234.722 629.664 208.872 659.178 176.843 679.568C151.612 695.582 122.822 705.047 91.2817 707.701C58.2711 710.478 23.2543 705.801 -11.4769 694.126C-21.7715 690.664 -32.0397 686.586 -42.2292 681.903C-49.2418 678.687 -56.4392 675.12 -63.6186 671.299C-100.937 651.399 -135.824 625.607 -169.562 600.667C-178.109 594.348 -186.948 587.815 -195.724 581.453C-207.91 572.613 -218.868 564.935 -229.221 557.967C-299.014 511.021 -358.808 486.333 -417.395 480.268C-424.351 479.547 -431.371 479.093 -438.266 478.922C-521.005 476.876 -597.461 520.216 -624.196 584.32L-624.194 584.334Z" fill="url(#paint19_linear_2040_4788)" fill-opacity="0.2"/>
<path d="M-621.885 591.595L-624.336 590.647C-610.506 558.173 -584.101 531.302 -547.993 512.949C-514.621 495.988 -475.311 487.728 -437.311 489.696C-430.478 490.053 -423.517 490.686 -416.63 491.589C-385.386 495.662 -353.812 505.163 -320.115 520.621C-293.025 533.053 -264.229 549.593 -232.068 571.189C-222.428 577.663 -211.939 584.923 -199.066 594.028C-194.184 597.482 -189.312 600.946 -184.446 604.407C-147.111 630.968 -108.508 658.436 -66.9628 678.646C-59.7924 682.135 -52.5979 685.371 -45.5801 688.274C-2.18429 706.273 44.4649 713.668 85.7644 709.096C116.482 705.699 144.134 695.953 167.955 680.13C206.929 654.2 230.673 615.75 247.006 585.14C255.477 569.3 263.466 552.591 271.196 536.426C293.924 488.887 317.425 439.728 357.008 404.17C393.318 371.553 444.9 354.48 498.524 357.326C551.364 360.128 599.117 382.049 629.536 417.453C659.627 452.418 673.523 495.885 683.151 533.785C686.609 547.415 689.742 561.429 692.773 574.984C695.844 588.73 699.022 602.945 702.518 616.663C713.089 658.119 739.504 732.383 797.651 763.94C807.525 769.299 818.053 773.265 828.939 775.726C893.452 790.358 958.432 750.211 1007.84 713.608C1010.49 711.644 1013.14 709.669 1015.81 707.683C1047.61 684.013 1080.49 659.539 1116.28 644.091C1139.61 634.016 1161.59 628.903 1183.5 628.456C1229.55 627.512 1276.9 647.802 1324.24 688.761C1341.66 703.828 1358.03 720.484 1373.86 736.594C1387.88 750.86 1402.38 765.611 1417.57 779.22C1423.67 784.697 1429.46 789.614 1435.26 794.247C1520.49 862.399 1639.66 890.812 1746.28 868.409L1746.79 870.927C1694.49 881.918 1637.63 880.783 1582.36 867.649C1526.95 854.473 1475.49 829.788 1433.54 796.249C1427.71 791.584 1421.89 786.636 1415.75 781.132C1400.5 767.467 1385.97 752.689 1371.92 738.399C1356.13 722.328 1339.79 705.705 1322.45 690.712C1275.61 650.184 1228.86 630.109 1183.5 631.044C1161.96 631.481 1140.3 636.522 1117.31 646.455C1081.81 661.781 1049.06 686.154 1017.39 709.732C1014.72 711.716 1012.06 713.697 1009.42 715.661C988.61 731.078 957.044 753.174 923.293 767.057C888.756 781.259 857.681 784.92 828.284 778.25C817.16 775.73 806.404 771.68 796.32 766.209C772.355 753.202 751.468 731.961 734.237 703.071C719.81 678.884 708.271 650.042 699.93 617.336C696.42 603.579 693.242 589.351 690.164 575.582C687.142 562.043 684.01 548.043 680.559 534.45C671.003 496.828 657.223 453.709 627.47 419.133C597.512 384.26 550.436 362.67 498.311 359.903C445.41 357.094 394.547 373.915 358.774 406.054C319.583 441.256 296.2 490.174 273.58 537.482C265.841 553.671 257.84 570.411 249.338 586.295C232.857 617.171 208.878 655.987 169.401 682.249C145.208 698.318 117.142 708.212 85.987 711.655C50.008 715.636 11.4743 710.984 -26.56 698.198C-33.2902 695.934 -40.0024 693.416 -46.6842 690.647C-53.7494 687.722 -60.9916 684.462 -68.2095 680.951C-109.949 660.641 -148.643 633.115 -186.066 606.49C-190.932 603.028 -195.797 599.567 -200.68 596.113C-213.536 587.021 -224.009 579.773 -233.63 573.305C-281.166 541.378 -344.972 503.526 -417.059 494.127C-423.874 493.235 -430.765 492.605 -437.531 492.257C-504.48 488.785 -590.74 518.393 -621.922 591.582L-621.885 591.595Z" fill="url(#paint20_linear_2040_4788)" fill-opacity="0.2"/>
<path d="M-619.576 598.856L-622.015 597.891C-608.223 566.214 -581.908 540.354 -545.922 523.099C-512.698 507.172 -473.826 500.047 -436.464 503.029C-360.904 509.067 -292.95 548.624 -236.449 586.523C-225.378 593.952 -214.192 601.66 -203.369 609.115C-155.39 642.186 -105.774 676.377 -50.0984 696.977C27.6739 725.763 106.401 720.469 160.493 682.84C209.241 648.923 233.977 593.399 257.89 539.699C279.056 492.189 300.941 443.055 339.441 407.619C375.618 374.325 427.45 356.959 481.659 359.967C535.865 362.981 584.535 385.924 615.196 422.934C651.926 467.261 664.263 525.099 676.204 581.027C679.436 596.166 682.779 611.816 686.543 626.88C697.112 669.173 730.871 769.463 815.814 787.281C881.839 801.132 947.47 758.492 997.267 719.796C999.352 718.178 1001.45 716.55 1003.55 714.91C1029.17 694.958 1055.66 674.329 1083.91 658.521C1116 640.566 1145.71 631.665 1174.76 631.306C1199.95 630.997 1225.83 637.323 1251.7 650.111C1273.57 660.926 1295.56 676.404 1317.05 696.113C1334.25 711.887 1350.35 729.251 1365.93 746.038C1385.44 767.061 1405.61 788.802 1428.02 807.518C1513.4 878.803 1635.18 906.185 1745.85 878.977L1746.46 881.478C1691.85 894.9 1633.19 895.301 1576.82 882.625C1564.15 879.775 1551.67 876.28 1539.5 872.184C1497.53 858.067 1458.92 836.744 1426.27 809.488C1403.72 790.667 1383.5 768.866 1363.94 747.783C1348.4 731.029 1332.33 713.705 1315.2 698.004C1268.2 654.893 1220.94 633.317 1174.74 633.887C1110.79 634.671 1057.1 676.483 1005.18 716.906C1003.08 718.541 1000.99 720.169 998.899 721.793C948.636 760.853 882.329 803.876 815.205 789.793C810.332 788.772 805.556 787.474 800.876 785.9C773.132 776.569 748.857 757.577 728.547 729.27C709.312 702.457 693.893 667.274 683.959 627.527C680.183 612.418 676.841 596.748 673.603 581.587C661.729 525.948 649.453 468.419 613.113 424.566C582.912 388.109 534.922 365.504 481.451 362.532C427.979 359.559 376.874 376.669 341.241 409.467C303.147 444.531 281.372 493.407 260.316 540.679C236.25 594.713 211.358 650.582 162.001 684.925C133.157 704.994 98.2783 715.98 58.3391 717.586C22.7937 719.017 -15.0501 712.724 -51.0902 699.387C-107.073 678.671 -156.823 644.387 -204.935 611.223C-215.746 603.772 -226.931 596.064 -237.987 588.648C-294.208 550.938 -361.788 511.583 -436.734 505.593C-505.046 500.133 -589.782 530.412 -619.58 598.847L-619.576 598.856Z" fill="url(#paint21_linear_2040_4788)" fill-opacity="0.2"/>
<g opacity="0.9" filter="url(#filter0_f_2040_4788)">
<circle cx="188.5" cy="2059.5" r="183.5" fill="#F88F6D" fill-opacity="0.07"/>
</g>
<g opacity="0.9" filter="url(#filter1_f_2040_4788)">
<circle cx="376.5" cy="1657.5" r="209.5" fill="#F88F6D" fill-opacity="0.05"/>
</g>
<g opacity="0.9" filter="url(#filter2_f_2040_4788)">
<circle cx="301" cy="3124" r="173" fill="#8866DD" fill-opacity="0.07"/>
</g>
<g opacity="0.9" filter="url(#filter3_f_2040_4788)">
<circle cx="188.5" cy="3896.5" r="176.5" fill="#F66B3C" fill-opacity="0.07"/>
</g>
<g opacity="0.9" filter="url(#filter4_f_2040_4788)">
<circle cx="45.613" cy="1008.78" r="195.215" fill="#8866DD" fill-opacity="0.07"/>
</g>
<g opacity="0.9" filter="url(#filter5_f_2040_4788)">
<circle cx="-28.4173" cy="877.583" r="125.583" fill="#8866DD" fill-opacity="0.07"/>
</g>
<g opacity="0.9" filter="url(#filter6_f_2040_4788)">
<circle cx="184" cy="2597" r="181" fill="#F88F6D" fill-opacity="0.07"/>
</g>
<g opacity="0.9" filter="url(#filter7_f_2040_4788)">
<circle cx="186" cy="4424" r="193" fill="#F66B3C" fill-opacity="0.07"/>
</g>
</g>
<defs>
<filter id="filter0_f_2040_4788" x="-199.762" y="1671.24" width="776.524" height="776.524" filterUnits="userSpaceOnUse" color-interpolation-filters="sRGB">
<feFlood flood-opacity="0" result="BackgroundImageFix"/>
<feBlend mode="normal" in="SourceGraphic" in2="BackgroundImageFix" result="shape"/>
<feGaussianBlur stdDeviation="102.381" result="effect1_foregroundBlur_2040_4788"/>
</filter>
<filter id="filter1_f_2040_4788" x="-19.8581" y="1261.14" width="792.716" height="792.716" filterUnits="userSpaceOnUse" color-interpolation-filters="sRGB">
<feFlood flood-opacity="0" result="BackgroundImageFix"/>
<feBlend mode="normal" in="SourceGraphic" in2="BackgroundImageFix" result="shape"/>
<feGaussianBlur stdDeviation="93.429" result="effect1_foregroundBlur_2040_4788"/>
</filter>
<filter id="filter2_f_2040_4788" x="60.4618" y="2883.46" width="481.076" height="481.076" filterUnits="userSpaceOnUse" color-interpolation-filters="sRGB">
<feFlood flood-opacity="0" result="BackgroundImageFix"/>
<feBlend mode="normal" in="SourceGraphic" in2="BackgroundImageFix" result="shape"/>
<feGaussianBlur stdDeviation="33.7691" result="effect1_foregroundBlur_2040_4788"/>
</filter>
<filter id="filter3_f_2040_4788" x="-56.9046" y="3651.1" width="490.809" height="490.809" filterUnits="userSpaceOnUse" color-interpolation-filters="sRGB">
<feFlood flood-opacity="0" result="BackgroundImageFix"/>
<feBlend mode="normal" in="SourceGraphic" in2="BackgroundImageFix" result="shape"/>
<feGaussianBlur stdDeviation="34.4523" result="effect1_foregroundBlur_2040_4788"/>
</filter>
<filter id="filter4_f_2040_4788" x="-249.659" y="713.513" width="590.544" height="590.544" filterUnits="userSpaceOnUse" color-interpolation-filters="sRGB">
<feFlood flood-opacity="0" result="BackgroundImageFix"/>
<feBlend mode="normal" in="SourceGraphic" in2="BackgroundImageFix" result="shape"/>
<feGaussianBlur stdDeviation="50.0283" result="effect1_foregroundBlur_2040_4788"/>
</filter>
<filter id="filter5_f_2040_4788" x="-254.057" y="651.943" width="451.279" height="451.279" filterUnits="userSpaceOnUse" color-interpolation-filters="sRGB">
<feFlood flood-opacity="0" result="BackgroundImageFix"/>
<feBlend mode="normal" in="SourceGraphic" in2="BackgroundImageFix" result="shape"/>
<feGaussianBlur stdDeviation="50.0283" result="effect1_foregroundBlur_2040_4788"/>
</filter>
<filter id="filter6_f_2040_4788" x="-138.188" y="2274.81" width="644.376" height="644.376" filterUnits="userSpaceOnUse" color-interpolation-filters="sRGB">
<feFlood flood-opacity="0" result="BackgroundImageFix"/>
<feBlend mode="normal" in="SourceGraphic" in2="BackgroundImageFix" result="shape"/>
<feGaussianBlur stdDeviation="70.5941" result="effect1_foregroundBlur_2040_4788"/>
</filter>
<filter id="filter7_f_2040_4788" x="-82.3461" y="4155.65" width="536.692" height="536.692" filterUnits="userSpaceOnUse" color-interpolation-filters="sRGB">
<feFlood flood-opacity="0" result="BackgroundImageFix"/>
<feBlend mode="normal" in="SourceGraphic" in2="BackgroundImageFix" result="shape"/>
<feGaussianBlur stdDeviation="37.6731" result="effect1_foregroundBlur_2040_4788"/>
</filter>
<linearGradient id="paint0_linear_2040_4788" x1="-458.808" y1="292.256" x2="1516.15" y2="733.728" gradientUnits="userSpaceOnUse">
<stop stop-color="white" stop-opacity="0.25"/>
<stop offset="1" stop-color="#B4EFAF" stop-opacity="0.22"/>
</linearGradient>
<linearGradient id="paint1_linear_2040_4788" x1="-457.65" y1="302.561" x2="1516.61" y2="739.493" gradientUnits="userSpaceOnUse">
<stop stop-color="white" stop-opacity="0.25"/>
<stop offset="1" stop-color="#B4EFAF" stop-opacity="0.22"/>
</linearGradient>
<linearGradient id="paint2_linear_2040_4788" x1="-456.24" y1="312.164" x2="1517.17" y2="745.493" gradientUnits="userSpaceOnUse">
<stop stop-color="white" stop-opacity="0.25"/>
<stop offset="1" stop-color="#B4EFAF" stop-opacity="0.22"/>
</linearGradient>
<linearGradient id="paint3_linear_2040_4788" x1="-454.318" y1="320.394" x2="1517.96" y2="752.145" gradientUnits="userSpaceOnUse">
<stop stop-color="white" stop-opacity="0.25"/>
<stop offset="1" stop-color="#B4EFAF" stop-opacity="0.22"/>
</linearGradient>
<linearGradient id="paint4_linear_2040_4788" x1="-452.376" y1="328.558" x2="1518.76" y2="758.824" gradientUnits="userSpaceOnUse">
<stop stop-color="white" stop-opacity="0.25"/>
<stop offset="1" stop-color="#B4EFAF" stop-opacity="0.22"/>
</linearGradient>
<linearGradient id="paint5_linear_2040_4788" x1="-450.423" y1="336.668" x2="1519.54" y2="765.503" gradientUnits="userSpaceOnUse">
<stop stop-color="white" stop-opacity="0.25"/>
<stop offset="1" stop-color="#B4EFAF" stop-opacity="0.22"/>
</linearGradient>
<linearGradient id="paint6_linear_2040_4788" x1="-448.481" y1="344.763" x2="1520.32" y2="772.182" gradientUnits="userSpaceOnUse">
<stop stop-color="white" stop-opacity="0.25"/>
<stop offset="1" stop-color="#B4EFAF" stop-opacity="0.22"/>
</linearGradient>
<linearGradient id="paint7_linear_2040_4788" x1="-446.519" y1="352.809" x2="1521.11" y2="778.884" gradientUnits="userSpaceOnUse">
<stop stop-color="white" stop-opacity="0.25"/>
<stop offset="1" stop-color="#B4EFAF" stop-opacity="0.22"/>
</linearGradient>
<linearGradient id="paint8_linear_2040_4788" x1="-444.551" y1="360.817" x2="1521.87" y2="785.587" gradientUnits="userSpaceOnUse">
<stop stop-color="white" stop-opacity="0.25"/>
<stop offset="1" stop-color="#B4EFAF" stop-opacity="0.22"/>
</linearGradient>
<linearGradient id="paint9_linear_2040_4788" x1="-442.594" y1="368.829" x2="1522.62" y2="792.355" gradientUnits="userSpaceOnUse">
<stop stop-color="white" stop-opacity="0.25"/>
<stop offset="1" stop-color="#B4EFAF" stop-opacity="0.22"/>
</linearGradient>
<linearGradient id="paint10_linear_2040_4788" x1="-440.609" y1="376.75" x2="1523.41" y2="799.031" gradientUnits="userSpaceOnUse">
<stop stop-color="white" stop-opacity="0.25"/>
<stop offset="1" stop-color="#B4EFAF" stop-opacity="0.22"/>
</linearGradient>
<linearGradient id="paint11_linear_2040_4788" x1="-438.63" y1="384.669" x2="1524.19" y2="805.754" gradientUnits="userSpaceOnUse">
<stop stop-color="white" stop-opacity="0.25"/>
<stop offset="1" stop-color="#B4EFAF" stop-opacity="0.22"/>
</linearGradient>
<linearGradient id="paint12_linear_2040_4788" x1="-436.662" y1="392.582" x2="1525.14" y2="812.514" gradientUnits="userSpaceOnUse">
<stop stop-color="white" stop-opacity="0.25"/>
<stop offset="1" stop-color="#B4EFAF" stop-opacity="0.22"/>
</linearGradient>
<linearGradient id="paint13_linear_2040_4788" x1="-434.65" y1="400.461" x2="1526.18" y2="819.254" gradientUnits="userSpaceOnUse">
<stop stop-color="white" stop-opacity="0.25"/>
<stop offset="1" stop-color="#B4EFAF" stop-opacity="0.22"/>
</linearGradient>
<linearGradient id="paint14_linear_2040_4788" x1="-432.669" y1="408.372" x2="1527.17" y2="826.032" gradientUnits="userSpaceOnUse">
<stop stop-color="white" stop-opacity="0.25"/>
<stop offset="1" stop-color="#B4EFAF" stop-opacity="0.22"/>
</linearGradient>
<linearGradient id="paint15_linear_2040_4788" x1="-430.666" y1="416.219" x2="1528.17" y2="832.777" gradientUnits="userSpaceOnUse">
<stop stop-color="white" stop-opacity="0.25"/>
<stop offset="1" stop-color="#B4EFAF" stop-opacity="0.22"/>
</linearGradient>
<linearGradient id="paint16_linear_2040_4788" x1="-428.671" y1="424.09" x2="1529.16" y2="839.591" gradientUnits="userSpaceOnUse">
<stop stop-color="white" stop-opacity="0.25"/>
<stop offset="1" stop-color="#B4EFAF" stop-opacity="0.22"/>
</linearGradient>
<linearGradient id="paint17_linear_2040_4788" x1="-426.658" y1="431.903" x2="1530.13" y2="846.347" gradientUnits="userSpaceOnUse">
<stop stop-color="white" stop-opacity="0.25"/>
<stop offset="1" stop-color="#B4EFAF" stop-opacity="0.22"/>
</linearGradient>
<linearGradient id="paint18_linear_2040_4788" x1="-424.653" y1="439.744" x2="1531.12" y2="853.13" gradientUnits="userSpaceOnUse">
<stop stop-color="white" stop-opacity="0.25"/>
<stop offset="1" stop-color="#B4EFAF" stop-opacity="0.22"/>
</linearGradient>
<linearGradient id="paint19_linear_2040_4788" x1="-422.656" y1="447.578" x2="1532.06" y2="859.904" gradientUnits="userSpaceOnUse">
<stop stop-color="white" stop-opacity="0.25"/>
<stop offset="1" stop-color="#B4EFAF" stop-opacity="0.22"/>
</linearGradient>
<linearGradient id="paint20_linear_2040_4788" x1="-420.638" y1="455.379" x2="1533.02" y2="866.697" gradientUnits="userSpaceOnUse">
<stop stop-color="white" stop-opacity="0.25"/>
<stop offset="1" stop-color="#B4EFAF" stop-opacity="0.22"/>
</linearGradient>
<linearGradient id="paint21_linear_2040_4788" x1="-418.613" y1="463.179" x2="1534" y2="873.492" gradientUnits="userSpaceOnUse">
<stop stop-color="white" stop-opacity="0.25"/>
<stop offset="1" stop-color="#B4EFAF" stop-opacity="0.22"/>
</linearGradient>
<clipPath id="clip0_2040_4788">
<rect width="377" height="4792" fill="white"/>
</clipPath>
</defs>
</svg>
