<svg width="1440" height="2119" viewBox="0 0 1440 2119" fill="none" xmlns="http://www.w3.org/2000/svg">
<mask id="mask0_2040_3348" style="mask-type:alpha" maskUnits="userSpaceOnUse" x="0" y="0" width="1440" height="2119">
<path d="M1439 2118V1.41913C1292 -21.5763 1618 910.239 1 680.284V2118H1439Z" fill="#D9D9D9" stroke="black"/>
</mask>
<g mask="url(#mask0_2040_3348)">
<rect x="-156" y="-22" width="2501" height="2148" rx="10" fill="black" fill-opacity="0.2"/>
<path d="M120.5 623.041C120.5 622.765 120.276 622.541 120 622.541C119.724 622.541 119.5 622.765 119.5 623.041L120.5 623.041ZM119.5 623.041L119.5 2118L120.5 2118L120.5 623.041L119.5 623.041Z" fill="#B9B8FF" fill-opacity="0.08"/>
<path d="M320.5 623.041C320.5 622.765 320.276 622.541 320 622.541C319.724 622.541 319.5 622.765 319.5 623.041L320.5 623.041ZM319.5 623.041L319.5 2118L320.5 2118L320.5 623.041L319.5 623.041Z" fill="#B9B8FF" fill-opacity="0.08"/>
<path d="M520.5 623.041C520.5 622.765 520.276 622.541 520 622.541C519.724 622.541 519.5 622.765 519.5 623.041L520.5 623.041ZM519.5 623.041L519.5 2118L520.5 2118L520.5 623.041L519.5 623.041Z" fill="#B9B8FF" fill-opacity="0.08"/>
<path d="M720.5 623.041C720.5 622.765 720.276 622.541 720 622.541C719.724 622.541 719.5 622.765 719.5 623.041L720.5 623.041ZM719.5 623.041L719.5 2118L720.5 2118L720.5 623.041L719.5 623.041Z" fill="#B9B8FF" fill-opacity="0.08"/>
<path d="M920.5 381.918C920.5 381.642 920.276 381.418 920 381.418C919.724 381.418 919.5 381.642 919.5 381.918L920.5 381.918ZM919.5 381.918L919.5 2118L920.5 2118L920.5 381.918L919.5 381.918Z" fill="#B9B8FF" fill-opacity="0.08"/>
<path d="M1120.5 75.0352C1120.5 74.7591 1120.28 74.5352 1120 74.5352C1119.72 74.5352 1119.5 74.7591 1119.5 75.0352L1120.5 75.0352ZM1119.5 75.0352L1119.5 2118L1120.5 2118L1120.5 75.0352L1119.5 75.0352Z" fill="#B9B8FF" fill-opacity="0.08"/>
<path d="M1320.5 -245C1320.5 -245.276 1320.28 -245.5 1320 -245.5C1319.72 -245.5 1319.5 -245.276 1319.5 -245L1320.5 -245ZM1319.5 -245L1319.5 2118L1320.5 2118L1320.5 -245L1319.5 -245Z" fill="#B9B8FF" fill-opacity="0.08"/>
</g>
</svg>
