<svg width="1440" height="5837" viewBox="0 0 1440 5837" fill="none" xmlns="http://www.w3.org/2000/svg">
<g clip-path="url(#clip0_2040_3342)">
<rect width="1440" height="5837" fill="#0F1016"/>
<g opacity="0.9" filter="url(#filter0_f_2040_3342)">
<circle cx="137.5" cy="1402.5" r="399.5" fill="#8866DD" fill-opacity="0.07"/>
</g>
<g opacity="0.9" filter="url(#filter1_f_2040_3342)">
<circle cx="1260" cy="2060" r="346" fill="#F88F6D" fill-opacity="0.05"/>
</g>
<g opacity="0.9" filter="url(#filter2_f_2040_3342)">
<circle cx="316.5" cy="4074.5" r="524.5" fill="#8866DD" fill-opacity="0.07"/>
</g>
<path d="M-370.601 509.82C-356.899 448.748 -327.616 392.784 -285.91 347.981C-244.205 303.178 -192.812 272.47 -137.287 259.167C-81.7557 245.866 -21.3829 249.799 37.3138 270.547C96.0042 291.292 149.19 327.504 191.104 375.251C231.574 421.356 261.963 477.307 291.354 531.425C302.443 551.838 313.911 572.951 325.745 593.217C380.475 686.921 437.125 743.296 498.939 765.546C613.616 806.832 720.916 725.312 774.663 673.049C799.044 649.343 822.42 623.217 845.021 597.955C891.49 546.012 939.548 492.305 998.771 456.974C1043.66 430.186 1098.47 417.843 1149.17 423.097C1176.11 425.892 1201.05 433.44 1223.29 445.528C1247.28 458.565 1267.57 476.633 1283.6 499.225C1304.26 528.354 1316.57 563.299 1328.47 597.088C1340.57 631.436 1353.08 666.952 1374.33 696.043C1421.63 760.773 1510.42 788.685 1611.84 770.715C1641.51 765.462 1671.2 757.349 1699.91 749.509C1751.69 735.367 1805.22 720.746 1860.37 722.422C1904.15 723.751 1950.18 739.813 1986.66 766.489C2006.01 780.648 2022.01 797.206 2034.21 815.702C2047.38 835.694 2055.76 857.473 2059.12 880.44L2056.5 880.689C2042.8 786.764 1946.08 727.954 1860.49 725.353C1805.7 723.69 1752.34 738.262 1700.72 752.358C1671.96 760.21 1642.22 768.338 1612.45 773.608C1566.72 781.709 1521.7 780.524 1482.26 770.18C1470.96 767.217 1460.21 763.545 1450.06 759.178C1418.21 745.468 1392.15 724.903 1372.33 697.78C1350.78 668.293 1338.19 632.538 1326.01 597.97C1314.19 564.399 1301.96 529.679 1281.56 500.925C1216.27 408.899 1087.21 407.634 1000.15 459.587C941.246 494.739 893.315 548.301 846.962 600.11C824.331 625.405 800.926 651.556 776.483 675.328C735.238 715.435 690.53 745.636 647.187 762.663C594.945 783.194 544.851 785.103 498.288 768.342C463.882 755.96 430.481 732.681 399 699.151C373.282 671.759 348.601 637.596 323.544 594.694C311.68 574.385 300.203 553.252 289.101 532.81C259.799 478.854 229.499 423.063 189.269 377.23C104.126 280.243 -23.7633 235.036 -136.557 262.051C-249.346 289.076 -340.214 386.688 -368.049 510.742L-370.618 509.828L-370.601 509.82Z" fill="url(#paint0_linear_2040_3342)" fill-opacity="0.2"/>
<path d="M-368.288 519.134C-355.811 464.471 -330.067 413.599 -293.827 372.019C-257.945 330.838 -213.205 300.344 -164.452 283.845C-155.303 280.75 -145.926 278.121 -136.569 276.027C-44.9235 255.537 58.8696 282.951 141.08 349.348C157.327 362.472 172.594 377.045 186.465 392.673C226.059 437.271 256.288 491.029 285.516 543.014C297.007 563.446 308.89 584.584 321.154 604.819C327.879 615.909 334.656 626.522 341.305 636.376C389.684 708.101 439.41 752.005 493.354 770.587C531.929 783.877 572.992 784.09 615.4 771.226C677.76 752.27 730.078 709.042 762.982 676.118C786.417 652.691 808.898 626.984 830.633 602.113C875.955 550.263 922.82 496.654 980.881 460.934C1044.77 421.627 1126.84 414.653 1189.93 443.119C1221.8 457.442 1248.07 479.709 1268.01 509.302C1282.54 530.891 1292.44 554.748 1299.44 573.123C1303.39 583.504 1307.18 594.229 1310.85 604.601C1323.85 641.354 1337.29 679.357 1360.46 709.595C1365.93 716.734 1371.94 723.437 1378.33 729.513C1411.32 760.941 1455.77 778.468 1510.45 781.613C1538.61 783.198 1569.29 780.816 1601.63 774.525C1617.07 771.514 1632.44 768.011 1649.48 764.079L1658.86 761.903C1691.66 754.288 1725.57 746.418 1758.71 741.437C1794.05 736.098 1824.03 734.736 1853.07 737.151C1858.68 737.619 1864.45 738.328 1870.21 739.243C1912.57 745.985 1954.51 763.86 1988.32 789.568C2025.99 818.221 2050.26 854.033 2058.5 893.133L2055.93 893.59C2038.49 810.821 1949.21 754.757 1870.03 742.149C1864.33 741.238 1858.63 740.54 1853.08 740.076C1824.23 737.68 1794.42 739.034 1759.27 744.346C1726.21 749.319 1693.85 756.829 1659.6 764.782L1650.22 766.957C1633.15 770.902 1617.77 774.414 1602.29 777.424C1569.76 783.754 1538.89 786.147 1510.53 784.544C1455.22 781.36 1410.19 763.576 1376.7 731.674C1370.2 725.486 1364.07 718.658 1358.5 711.393C1335.02 680.743 1321.49 642.487 1308.41 605.49C1304.74 595.134 1300.96 584.428 1297.02 574.092C1290.09 555.89 1280.29 532.259 1265.94 510.949C1246.32 481.839 1220.47 459.939 1189.1 445.838C1188.15 445.405 1187.18 444.98 1186.21 444.564C1124.22 417.897 1044.58 425.222 982.295 463.536C924.545 499.067 877.798 552.536 832.595 604.246C810.831 629.142 788.325 654.885 764.831 678.37C731.736 711.488 679.097 754.969 616.277 774.065C573.385 787.081 531.823 786.853 492.752 773.388C488.109 771.789 483.485 770 478.907 768.03C429.668 746.848 383.849 704.165 339.234 638.015C332.556 628.119 325.749 617.461 319.002 606.324C306.71 586.038 294.816 564.888 283.312 544.428C254.162 492.591 224.024 438.987 184.659 394.649C170.9 379.153 155.755 364.694 139.642 351.674C58.0548 285.775 -44.9261 258.573 -135.852 278.905C-145.126 280.98 -154.426 283.589 -163.496 286.657C-263.058 320.364 -340.542 409.799 -365.709 520.059L-368.275 519.139L-368.288 519.134Z" fill="url(#paint1_linear_2040_3342)" fill-opacity="0.2"/>
<path d="M-365.974 528.343C-353.524 474.723 -327.821 425.01 -291.642 384.577C-255.952 344.678 -211.588 315.431 -163.346 299.977C-154.314 297.086 -145.064 294.649 -135.847 292.742C-46.0075 274.131 56.0166 302.067 137.058 367.467C153.04 380.365 168.109 394.657 181.845 409.954C220.529 453.028 250.557 504.574 279.598 554.423C291.527 574.899 303.863 596.079 316.596 616.302C323.362 627.046 330.167 637.308 336.828 646.819C385.162 715.927 434.544 758.037 487.794 775.528C525.921 788.062 566.237 787.749 607.633 774.617C655.897 759.258 705.587 726.215 751.325 679.071C773.816 655.938 795.399 630.636 816.268 606.162C860.435 554.379 906.106 500.829 963.031 464.751C993.932 445.166 1030.1 433.19 1067.63 430.112C1106.36 426.941 1143.62 433.616 1175.41 449.433C1206.82 464.944 1232.75 488.429 1252.48 519.235C1266.53 541.204 1276.43 565.759 1283.48 584.689C1286.79 593.588 1290.04 602.764 1293.18 611.643C1307.09 650.953 1321.48 691.608 1346.66 723.01C1352.37 730.137 1358.63 736.747 1365.25 742.66C1398.85 772.745 1444.06 788.265 1499.62 788.777C1526.9 788.98 1556.96 785.52 1591.51 778.214C1599.56 776.511 1607.75 774.698 1615.68 772.947C1623.75 771.162 1632.1 769.311 1640.34 767.573C1683.77 758.359 1719.05 752.815 1751.36 750.106C1785.47 747.219 1816.39 747.753 1845.87 751.742C1851.49 752.511 1857.28 753.499 1863.07 754.68C1905.71 763.337 1948.26 781.918 1982.86 806.997C2021.63 835.091 2047.61 869.22 2057.98 905.683L2055.46 906.37C2032.71 826.386 1939.63 773.165 1862.79 757.568C1857.04 756.393 1851.31 755.416 1845.75 754.655C1816.44 750.689 1785.7 750.159 1751.75 753.036C1719.54 755.732 1684.36 761.264 1641.02 770.456C1632.79 772.197 1624.45 774.044 1616.38 775.825C1608.45 777.583 1600.26 779.393 1592.2 781.1C1557.48 788.442 1527.25 791.908 1499.81 791.707C1443.6 791.186 1397.8 775.431 1363.69 744.884C1356.94 738.854 1350.56 732.119 1344.74 724.861C1319.21 693.027 1304.73 652.099 1290.73 612.526C1287.59 603.666 1284.35 594.498 1281.04 585.627C1274.05 566.851 1264.24 542.513 1250.36 520.806C1230.94 490.488 1205.42 467.368 1174.48 452.094C1112.16 421.082 1027.77 427.204 964.468 467.323C907.854 503.206 862.302 556.616 818.252 608.265C797.354 632.765 775.747 658.102 753.199 681.287C707.187 728.712 657.161 761.963 608.529 777.44C566.656 790.727 525.84 791.025 487.213 778.328C481.677 776.507 476.174 774.423 470.724 772.08C423.119 751.606 378.493 710.996 334.775 648.496C328.084 638.942 321.244 628.627 314.455 617.842C301.694 597.568 289.343 576.367 277.401 555.862C248.446 506.157 218.504 454.755 180.04 411.929C166.411 396.755 151.467 382.57 135.609 369.779C55.1787 304.872 -46.0479 277.149 -135.178 295.612C-144.32 297.506 -153.491 299.916 -162.446 302.786C-261.326 334.449 -338.329 421.234 -363.42 529.257L-365.983 528.324L-365.974 528.343Z" fill="url(#paint2_linear_2040_3342)" fill-opacity="0.2"/>
<path d="M-363.662 537.348C-351.236 484.752 -325.572 436.186 -289.455 396.898C-253.954 358.272 -209.959 330.251 -162.231 315.859C-153.314 313.172 -144.193 310.933 -135.107 309.207C-91.2693 300.868 -43.3545 303.609 3.444 317.128C49.3503 330.394 94.1785 353.987 133.073 385.352C148.785 398.025 163.655 412.045 177.263 427.018C214.999 468.545 244.783 517.872 273.589 565.575C285.999 586.125 298.831 607.378 312.075 627.62C318.879 638.01 325.718 647.933 332.395 657.112C380.688 723.619 429.719 763.933 482.294 780.358C519.973 792.125 559.554 791.304 599.938 777.909C647.104 762.195 695.454 728.995 739.757 681.907C761.309 659.072 781.995 634.177 801.996 610.1C845.007 558.341 889.477 504.819 945.277 468.409C976.005 448.361 1013.82 435.89 1051.74 433.301C1091.27 430.603 1129.05 438.305 1160.98 455.587C1192.01 472.372 1217.61 497.083 1237.05 529.026C1250.52 551.186 1260.06 575.387 1267.62 596.133C1270.28 603.439 1272.93 610.955 1275.49 618.227C1290.32 660.27 1305.65 703.741 1332.95 736.329C1338.91 743.438 1345.41 749.958 1352.27 755.721C1386.97 784.952 1431.66 798.085 1488.9 795.869C1522.49 794.471 1556.03 787.637 1581.5 781.831L1586.46 780.697C1601.1 777.35 1616.24 773.882 1631.3 770.979C1670.11 763.466 1708.07 759.328 1744.12 758.691C1777.3 758.057 1808.27 760.522 1838.79 766.243C1844.4 767.307 1850.21 768.579 1856.05 770.026C1899.03 780.616 1942.18 799.909 1977.54 824.349C2017.41 851.901 2045.09 884.345 2057.58 918.174L2055.14 919.103C2042.88 885.91 2015.61 853.995 1976.27 826.807C1941.18 802.557 1898.35 783.41 1855.66 772.887C1849.86 771.45 1844.1 770.183 1838.54 769.134C1808.19 763.447 1777.38 760.987 1744.36 761.625C1708.45 762.266 1670.62 766.384 1631.95 773.872C1616.92 776.768 1601.81 780.223 1587.18 783.569L1582.22 784.7C1556.66 790.528 1522.98 797.388 1489.2 798.794C1431.29 801.037 1386.02 787.691 1350.78 758.008C1343.79 752.135 1337.16 745.488 1331.08 738.238C1303.39 705.195 1287.97 661.435 1273.04 619.11C1270.48 611.848 1267.83 604.338 1265.18 597.044C1257.67 576.45 1248.21 552.447 1234.89 530.534C1215.74 499.077 1190.53 474.74 1159.97 458.21C1096.64 423.952 1010.95 429.077 946.737 470.975C891.234 507.192 846.884 560.566 803.993 612.185C783.962 636.288 763.252 661.218 741.648 684.108C697.077 731.487 648.395 764.903 600.862 780.735C559.999 794.286 519.928 795.109 481.747 783.188C453.34 774.313 425.29 758.028 398.381 734.791C375.472 715.007 352.595 689.457 330.373 658.856C323.666 649.633 316.797 639.667 309.963 629.233C296.685 608.938 283.838 587.663 271.415 567.085C242.691 519.517 212.986 470.331 175.461 429.032C161.961 414.176 147.21 400.26 131.617 387.691C52.3258 323.749 -47.1517 295.492 -134.474 312.108C-143.478 313.815 -152.522 316.034 -161.362 318.701C-259.553 348.308 -336.092 432.451 -361.103 538.295L-363.668 537.345L-363.662 537.348Z" fill="url(#paint3_linear_2040_3342)" fill-opacity="0.2"/>
<path d="M-361.35 546.347C-348.946 494.768 -323.328 447.346 -287.266 409.212C-251.947 371.855 -208.328 345.062 -161.108 331.735C-152.315 329.255 -143.314 327.21 -134.365 325.663C-91.2613 318.213 -44.1792 321.57 1.77865 335.363C46.7034 348.85 90.734 372.32 129.09 403.227C144.539 415.679 159.205 429.419 172.684 444.073C209.429 484.028 238.923 531.109 267.443 576.646C280.376 597.296 293.759 618.653 307.561 638.925C314.397 648.953 321.263 658.534 327.964 667.385C376.2 731.293 424.884 769.821 476.791 785.161C514.029 796.162 552.872 794.819 592.242 781.173C638.305 765.118 685.31 731.758 728.189 684.709C748.802 662.178 768.602 637.695 787.745 614.011C829.582 562.26 872.837 508.744 927.539 472.028C958.561 451.206 997.042 438.55 1035.89 436.394C1076.25 434.157 1114.52 442.905 1146.58 461.695C1177.16 479.62 1202.41 505.551 1221.64 538.763C1234.59 561.173 1244.15 586.095 1251.79 607.52C1253.77 613.102 1255.78 618.839 1257.72 624.379C1273.45 669.327 1289.73 715.805 1319.27 749.599C1325.48 756.69 1332.23 763.123 1339.32 768.727C1374.65 796.754 1420.08 807.935 1478.2 802.906C1509.6 800.079 1541.52 792.7 1571.53 785.394C1590.26 780.816 1606.07 777.183 1622.3 774.345C1659.56 767.787 1698.13 765.396 1736.92 767.234C1768.95 768.695 1799.97 773.097 1831.75 780.695C1837.36 782.049 1843.19 783.606 1849.08 785.325C1892.49 797.894 1936.25 817.896 1972.27 841.654C2013.25 868.681 2042.63 899.444 2057.21 930.605L2054.88 931.795C2023.5 864.744 1928.66 811.334 1848.59 788.159C1842.74 786.454 1836.95 784.909 1831.38 783.562C1799.76 776.002 1768.88 771.615 1737.01 770.162C1698.39 768.331 1660 770.712 1622.9 777.241C1606.74 780.069 1590.98 783.689 1572.28 788.256C1542.19 795.587 1510.18 802.987 1478.62 805.827C1419.82 810.913 1373.79 799.54 1337.9 771.067C1330.66 765.347 1323.78 758.784 1317.45 751.549C1287.48 717.275 1271.1 670.492 1255.27 625.246C1253.33 619.708 1251.32 613.978 1249.34 608.405C1241.75 587.125 1232.27 562.381 1219.45 540.205C1200.5 507.473 1175.62 481.922 1145.49 464.261C1082.29 427.212 993.274 431.442 929.036 474.564C874.639 511.082 831.498 564.448 789.774 616.055C770.608 639.769 750.786 664.28 730.121 686.866C686.982 734.202 639.637 767.782 593.208 783.972C553.363 797.789 514.03 799.136 476.302 787.985C448.318 779.714 420.581 764.27 393.863 742.075C371.036 723.118 348.203 698.579 325.997 669.16C319.268 660.258 312.37 650.641 305.497 640.566C291.654 620.238 278.259 598.853 265.31 578.181C236.868 532.77 207.458 485.816 170.913 446.078C157.542 431.539 142.983 417.899 127.655 405.545C49.4781 342.556 -48.2442 313.768 -133.75 328.549C-142.624 330.081 -151.548 332.106 -160.264 334.565C-256.293 361.679 -334.214 445.178 -358.776 547.293L-361.339 546.336L-361.35 546.347Z" fill="url(#paint4_linear_2040_3342)" fill-opacity="0.2"/>
<path d="M-359.033 555.33C-346.652 504.766 -321.073 458.491 -285.08 421.505C-249.949 385.412 -206.694 359.854 -159.993 347.585C-151.323 345.306 -142.452 343.466 -133.625 342.097C-90.6448 335.438 -45.6545 339.298 0.105574 353.572C44.049 367.279 87.2695 390.621 125.101 421.078C140.282 433.298 154.748 446.767 168.097 461.104C203.802 499.442 232.945 544.261 261.129 587.61C274.641 608.391 288.62 629.887 303.043 650.218C309.921 659.902 316.819 669.128 323.534 677.655C371.71 738.978 420.043 775.713 471.296 789.966C508.093 800.202 546.199 798.335 584.556 784.433C630.145 767.801 674.584 735.19 716.623 687.509C736.316 665.29 755.218 641.214 773.501 617.929C814.15 566.165 856.179 512.642 909.792 475.639C941.106 454.026 980.259 441.178 1020.02 439.465C1061.23 437.689 1100 447.489 1132.17 467.801C1162.29 486.822 1187.21 513.974 1206.23 548.501C1218.6 571.022 1227.83 595.651 1235.94 618.911C1237.24 622.633 1238.54 626.378 1239.84 630.132C1256.47 678.168 1273.66 727.848 1305.59 762.876C1312.04 769.94 1319.04 776.289 1326.37 781.741C1362.35 808.635 1408.51 817.865 1467.5 809.954C1495.95 806.025 1525.39 798.362 1553.85 790.955L1561.54 788.958C1575.59 785.307 1594.16 780.728 1613.28 777.708C1650.42 771.8 1688.5 771.172 1729.7 775.779C1760.32 779.138 1791.39 785.478 1824.69 795.154C1830.27 796.786 1836.12 798.627 1842.08 800.622C1917.37 825.634 2018.79 877.938 2056.81 943.031L2054.62 944.489C2017.04 880.134 1916.32 828.276 1841.5 803.422C1835.56 801.437 1829.74 799.61 1824.2 797.978C1791.05 788.344 1760.11 782.035 1729.63 778.693C1688.64 774.108 1650.77 774.733 1613.84 780.608C1594.82 783.609 1576.31 788.171 1562.32 791.814L1554.63 793.811C1526.1 801.235 1496.6 808.91 1468.01 812.862C1440.33 816.573 1416.19 816.622 1394.24 813.013C1368.2 808.731 1344.91 799.015 1325 784.134C1317.52 778.571 1310.38 772.083 1303.8 764.879C1271.42 729.35 1254.11 679.344 1237.37 630.986C1236.07 627.232 1234.78 623.496 1233.48 619.775C1225.41 596.65 1216.25 572.187 1204 549.877C1185.24 515.829 1160.68 489.063 1130.99 470.315C1066.94 429.87 976.603 433.093 911.309 478.153C857.997 514.948 816.082 568.321 775.554 619.938C757.249 643.252 738.316 667.361 718.58 689.63C676.271 737.608 631.512 770.442 585.549 787.212C546.725 801.282 508.133 803.161 470.843 792.79C443.282 785.123 415.858 770.519 389.33 749.366C366.586 731.235 343.794 707.712 321.601 679.459C314.853 670.896 307.928 661.62 301.012 651.896C286.548 631.509 272.553 609.992 259.022 589.179C230.918 545.948 201.854 501.248 166.333 463.111C153.085 448.887 138.726 435.518 123.654 423.383C45.4243 360.4 -48.1451 331.821 -133.065 344.974C-141.814 346.322 -150.606 348.158 -159.198 350.41C-254.547 375.451 -331.988 456.25 -356.479 556.267L-359.038 555.297L-359.033 555.33Z" fill="url(#paint5_linear_2040_3342)" fill-opacity="0.2"/>
<path d="M-356.728 564.315C-344.365 514.753 -318.833 469.627 -282.89 433.797C-247.944 398.962 -205.058 374.628 -158.868 363.437C-150.322 361.365 -141.577 359.716 -132.881 358.529C-90.6592 352.771 -46.4743 357.227 -1.55675 371.781C41.3947 385.697 83.816 408.924 121.122 438.929C136.033 450.925 150.296 464.113 163.516 478.132C198.133 514.82 226.855 557.353 254.634 598.478C268.784 619.432 283.418 641.092 298.527 661.501C305.444 670.826 312.366 679.717 319.107 687.909C366.545 745.829 415.898 781.772 465.802 794.763C502.162 804.221 539.528 801.838 576.869 787.692C621.327 770.722 664.454 737.957 705.064 690.312C723.835 668.412 741.858 644.75 759.288 621.86C798.732 570.067 839.523 516.509 892.058 479.254C923.67 456.83 963.486 443.795 1004.16 442.536C1045.61 441.249 1085.96 452.39 1117.76 473.908C1147.42 493.978 1172 522.352 1190.82 558.237C1203.21 581.952 1212.44 607.868 1220.11 630.296L1221.86 635.432C1239.37 686.763 1257.46 739.844 1291.91 776.146C1298.61 783.186 1305.84 789.452 1313.42 794.754C1350.57 820.94 1396.14 828.005 1456.82 817.005C1480.56 812.589 1505.23 805.596 1529.08 798.836C1536.45 796.743 1544.08 794.583 1551.57 792.53C1571.93 786.927 1588.68 783.288 1604.27 781.084C1641.26 775.801 1679.93 776.867 1722.49 784.343C1751.79 789.415 1782.02 797.45 1817.64 809.623C1823.17 811.524 1829.04 813.648 1835.09 815.929C1914.94 845.824 2015.01 898.181 2056.4 955.469L2054.39 957.191C2013.39 900.449 1913.88 848.447 1834.41 818.695C1828.38 816.424 1822.54 814.308 1817.04 812.411C1781.55 800.279 1751.44 792.282 1722.28 787.23C1679.96 779.8 1641.53 778.738 1604.8 783.983C1589.3 786.175 1572.64 789.799 1552.37 795.374C1544.9 797.423 1537.27 799.585 1529.91 801.673C1506.01 808.451 1481.29 815.452 1457.43 819.89C1396.06 831.022 1349.89 823.812 1312.12 797.191C1304.39 791.775 1297 785.381 1290.16 778.189C1255.22 741.363 1237 687.939 1219.39 636.267L1217.63 631.131C1210.01 608.821 1200.84 583.046 1188.55 559.543C1169.98 524.134 1145.74 496.152 1116.5 476.361C1052.65 433.157 958.898 435.425 893.583 481.741C841.351 518.781 800.683 572.185 761.345 623.832C743.892 646.751 725.846 670.441 707.025 692.396C666.155 740.351 622.7 773.342 577.875 790.453C540.071 804.776 502.223 807.181 465.368 797.595C438.222 790.536 411.114 776.759 384.785 756.667C362.117 739.359 339.373 716.855 317.192 689.774C310.427 681.542 303.467 672.612 296.519 663.243C281.37 642.778 266.716 621.087 252.548 600.102C224.845 559.079 196.19 516.658 161.752 480.163C148.629 466.247 134.467 453.155 119.659 441.242C42.5218 379.187 -49.3473 350.093 -132.381 361.418C-141.002 362.591 -149.671 364.227 -158.135 366.28C-252.798 389.222 -329.752 467.331 -354.186 565.27L-356.741 564.286L-356.728 564.315Z" fill="url(#paint6_linear_2040_3342)" fill-opacity="0.2"/>
<path d="M-354.415 573.298C-342.071 524.737 -316.584 480.754 -280.701 446.089C-245.933 412.508 -203.416 389.405 -157.75 379.285C-149.319 377.417 -140.703 375.965 -132.138 374.96C-50.3503 365.361 40.5032 395.182 117.135 456.784C131.777 468.556 145.842 481.466 158.935 495.161C192.393 530.152 220.626 570.364 247.928 609.25C262.785 630.406 278.143 652.284 294.002 672.791C300.957 681.764 307.909 690.306 314.664 698.174C362.024 753.55 411.023 787.661 460.295 799.567C496.218 808.246 532.845 805.347 569.169 790.958C612.486 773.661 654.316 740.741 693.492 693.121C711.36 671.548 728.506 648.293 745.097 625.803C783.326 573.969 822.853 520.364 874.319 482.877C906.224 459.632 946.702 446.392 988.294 445.59C1030.59 444.774 1071.45 457.001 1103.34 480.021C1132.96 501.395 1156.54 530.167 1175.41 567.981C1187.18 591.641 1196.12 617.369 1204.27 641.694C1221.54 693.31 1241.11 751.816 1278.23 789.438C1285.17 796.457 1292.65 802.632 1300.47 807.792C1338.5 833.075 1384.79 838.249 1446.12 824.079C1466.27 819.421 1487.2 812.87 1507.44 806.533C1518.62 803.029 1530.19 799.412 1541.58 796.122C1561.92 790.227 1578.98 786.522 1595.26 784.475C1632.4 779.749 1671.65 782.508 1715.29 792.924C1750.38 801.209 1783.16 813.332 1810.59 824.108C1816.09 826.28 1821.82 828.619 1828.1 831.253C1878.82 852.366 2002.56 907.956 2055.98 967.935L2054.17 969.914C2001.17 910.395 1877.89 855.039 1827.34 833.989C1821.07 831.364 1815.36 829.03 1809.88 826.859C1782.54 816.122 1749.87 804.031 1714.93 795.788C1671.59 785.444 1632.61 782.697 1595.76 787.387C1579.6 789.426 1562.66 793.103 1542.44 798.964C1531.06 802.248 1519.52 805.863 1508.34 809.364C1488.06 815.711 1467.09 822.276 1446.85 826.952C1396.48 838.59 1356.09 837.28 1321.98 822.623C1314.08 819.227 1306.52 815.12 1299.25 810.287C1291.27 805.017 1283.62 798.711 1276.54 791.544C1238.89 753.389 1219.19 694.498 1201.81 642.534C1193.69 618.318 1184.8 592.715 1173.13 569.259C1154.49 531.929 1131.23 503.531 1102.03 482.459C1037.38 435.797 942.273 437.027 875.89 485.376C824.729 522.641 785.318 576.089 747.204 627.774C730.596 650.295 713.428 673.578 695.518 695.202C656.08 743.138 613.934 776.29 570.24 793.739C533.465 808.31 496.355 811.239 459.938 802.447C410.095 790.41 360.599 755.979 312.832 700.121C306.044 692.216 299.057 683.628 292.07 674.618C276.157 654.05 260.779 632.141 245.904 610.954C218.672 572.167 190.51 532.054 157.213 497.24C144.208 483.636 130.245 470.816 115.707 459.127C39.6382 397.981 -50.5245 368.374 -131.651 377.896C-140.142 378.888 -148.676 380.328 -157.031 382.176C-251.007 402.996 -327.477 478.415 -351.852 574.3L-354.403 573.303L-354.415 573.298Z" fill="url(#paint7_linear_2040_3342)" fill-opacity="0.2"/>
<path d="M-352.099 582.271C-327.529 487.438 -250.802 413.976 -156.622 395.123C-148.322 393.46 -139.826 392.203 -131.393 391.385C-51.5556 383.593 37.5771 413.928 113.153 474.627C127.521 486.165 141.386 498.804 154.356 512.185C186.592 545.429 214.245 583.29 240.989 619.902C256.624 641.307 272.788 663.437 289.489 684.074C296.487 692.697 303.468 700.891 310.24 708.429C357.512 761.272 406.151 793.548 454.805 804.368C490.295 812.256 526.189 808.843 561.487 794.222C603.655 776.601 644.18 743.53 681.939 695.927C698.909 674.683 715.199 651.837 730.948 629.738C767.937 577.844 806.19 524.18 856.586 486.49C888.78 462.415 929.921 448.965 972.427 448.632C1015.57 448.291 1056.95 461.605 1088.93 486.131C1118.09 508.482 1141.33 538.445 1160.01 577.716C1171.13 601.195 1179.47 625.735 1188.44 653.077C1207.59 711.478 1227.82 766.867 1264.56 802.708C1271.74 809.7 1279.47 815.788 1287.53 820.799C1338.49 852.755 1396.35 841.994 1435.44 831.127C1452.79 826.305 1470.8 820.078 1488.22 814.063C1502.41 809.16 1517.07 804.096 1531.61 799.686C1552.03 793.476 1569.39 789.709 1586.26 787.836C1623.74 783.627 1663.58 788.086 1708.08 801.471C1741.35 811.392 1773.48 825.229 1803.55 838.55C1808.76 840.875 1814.5 843.49 1821.12 846.54C1939.42 900.696 2016.1 944.473 2055.55 980.369L2053.97 982.576C2014.75 946.888 1938.3 903.273 1820.27 849.232C1813.66 846.184 1807.92 843.579 1802.73 841.262C1772.75 827.976 1740.71 814.173 1707.58 804.298C1663.41 791.008 1623.88 786.575 1586.73 790.75C1570.01 792.61 1552.77 796.344 1532.49 802.509C1517.99 806.908 1503.35 811.963 1489.18 816.858C1471.73 822.889 1453.68 829.123 1436.26 833.962C1396.73 844.956 1338.19 855.812 1286.37 823.318C1278.14 818.195 1270.24 811.973 1262.91 804.83C1225.64 768.472 1205.25 712.678 1185.97 653.875C1177.03 626.646 1168.73 602.209 1157.69 578.903C1139.24 540.105 1116.3 510.527 1087.55 488.486C1023.16 439.107 924.554 439.312 858.183 488.946C808.088 526.405 769.953 579.906 733.078 631.649C717.308 653.777 701.001 676.655 683.988 697.95C645.98 745.874 605.135 779.191 562.588 796.97C526.839 811.78 490.472 815.235 454.488 807.234C405.267 796.293 356.133 763.713 308.448 710.408C301.644 702.834 294.625 694.6 287.596 685.934C270.842 665.235 254.653 643.071 238.998 621.635C212.321 585.113 184.728 547.339 152.645 514.253C139.762 500.963 125.992 488.411 111.724 476.946C36.6947 416.689 -51.7598 386.562 -130.949 394.295C-139.308 395.106 -147.723 396.352 -155.949 398.002C-249.234 416.68 -325.22 489.395 -349.534 583.266L-352.083 582.263L-352.099 582.271Z" fill="url(#paint8_linear_2040_3342)" fill-opacity="0.2"/>
<path d="M-349.789 591.249C-337.488 544.664 -312.079 502.97 -276.322 470.656C-241.902 439.56 -200.126 418.917 -155.506 410.962C-147.321 409.502 -138.959 408.44 -130.651 407.806C-90.7141 404.716 -48.9614 410.968 -6.5573 426.392C33.9424 441.113 72.8757 463.347 109.166 492.472C123.258 503.784 136.92 516.143 149.767 529.209C180.697 560.656 207.674 596.132 233.762 630.437C250.262 652.135 267.322 674.572 284.957 695.364C291.987 703.632 298.994 711.484 305.79 718.694C352.959 769.008 401.239 799.449 449.291 809.175C484.349 816.272 519.505 812.337 553.783 797.485C594.798 779.555 634.026 746.329 670.364 698.733C686.458 677.819 701.895 655.374 716.821 633.666C752.553 581.705 789.498 527.975 838.839 490.104C871.315 465.173 913.118 451.518 956.543 451.658C1000.55 451.795 1042.45 466.204 1074.51 492.235C1103.2 515.526 1126.12 546.669 1144.58 587.447C1155.83 612.371 1164.35 638.855 1172.6 664.465C1190.76 720.982 1211.77 779.237 1250.87 815.99C1258.3 822.951 1266.27 828.957 1274.57 833.827C1325.97 864.238 1381.83 852.137 1424.74 838.195C1439.76 833.309 1455.35 827.382 1470.43 821.646C1487.12 815.303 1504.37 808.735 1521.62 803.266C1541.89 796.815 1560.08 792.878 1577.24 791.222C1615.2 787.504 1655.64 793.659 1700.86 810.056C1732.4 821.402 1762.35 836.184 1794.06 851.842L1796.48 853.037C1802.12 855.834 1807.84 858.707 1813.64 861.624L1814.12 861.858C1823.85 866.715 1833.82 871.662 1843.94 876.684C1920.42 914.645 2007.11 957.677 2055.1 992.854L2053.76 995.267C2005.98 960.236 1919.4 917.264 1843.02 879.353C1832.9 874.33 1822.93 869.383 1813.19 864.523L1812.72 864.29C1806.92 861.375 1801.2 858.505 1795.57 855.708L1793.15 854.516C1761.51 838.894 1731.63 824.142 1700.23 812.849C1655.36 796.588 1615.28 790.472 1577.68 794.162C1560.69 795.805 1542.65 799.708 1522.54 806.111C1505.35 811.56 1488.13 818.113 1471.47 824.453C1456.36 830.198 1440.75 836.138 1425.67 841.038C1396.77 850.433 1371.81 855.192 1349.39 855.586C1320.95 856.083 1296.13 849.817 1273.49 836.425C1265.01 831.448 1256.86 825.311 1249.27 818.196C1209.61 780.92 1188.42 722.215 1170.13 665.289C1161.91 639.769 1153.42 613.378 1142.26 588.629C1124.01 548.328 1101.38 517.568 1073.08 494.588C1007.91 441.684 907.91 440.824 840.47 492.59C791.439 530.226 754.605 583.79 718.983 635.592C704.035 657.328 688.582 679.804 672.451 700.771C635.862 748.696 596.318 782.177 554.931 800.268C520.208 815.312 484.584 819.291 449.036 812.098C436.109 809.483 423.164 805.381 410.235 799.824C374.561 784.489 338.992 758.026 304.056 720.767C297.228 713.521 290.182 705.629 283.115 697.321C265.422 676.459 248.336 653.988 231.808 632.263C205.776 598.035 178.867 562.642 148.073 531.338C135.309 518.353 121.737 506.078 107.736 494.845C33.7186 435.449 -53.0301 404.808 -130.26 410.777C-138.489 411.407 -146.777 412.462 -154.887 413.908C-247.471 430.411 -322.972 500.439 -347.245 592.32L-349.79 591.302L-349.789 591.249Z" fill="url(#paint9_linear_2040_3342)" fill-opacity="0.2"/>
<path d="M-347.474 600.211C-335.186 554.612 -309.821 514.052 -274.121 482.92C-239.873 453.055 -198.46 433.645 -154.369 426.781C-146.308 425.528 -138.073 424.657 -129.895 424.205C-90.7333 422 -49.7939 428.852 -8.20654 444.568C31.2429 459.479 69.4022 481.586 105.196 510.288C119.007 521.363 132.472 533.445 145.2 546.207C174.73 575.785 200.922 608.838 226.243 640.804C243.714 662.849 261.774 685.652 280.454 706.63C287.521 714.546 294.558 722.051 301.377 728.933C348.439 776.731 396.361 805.331 443.812 813.964C478.447 820.258 512.865 815.807 546.112 800.737C585.971 782.504 623.895 749.126 658.822 701.527C674.056 680.942 688.647 658.894 702.764 637.577C737.214 585.536 772.841 531.728 821.125 493.706C853.88 467.909 896.339 454.041 940.684 454.653C985.559 455.271 1027.97 470.782 1060.13 498.326C1088.35 522.513 1110.95 554.847 1129.2 597.161C1139.63 621.415 1147.83 647.417 1155.76 672.567L1156.79 675.828C1175.25 734.373 1197.76 793.476 1237.23 829.247C1244.9 836.181 1253.12 842.096 1261.65 846.828C1314.1 876.121 1370.67 861.361 1414.08 845.232C1427.15 840.38 1440.08 834.98 1453.78 829.267C1472.61 821.42 1492.06 813.304 1511.67 806.814C1532.11 800.037 1550.62 796.029 1568.25 794.566C1606.79 791.32 1647.82 799.182 1693.67 818.59C1721.49 830.287 1747.66 844.614 1775.37 859.775C1780.03 862.318 1784.71 864.884 1789.45 867.463L1791.86 868.781C1796.88 871.53 1801.97 874.317 1807.14 877.119C1845.28 897.703 1887.08 918.647 1927.5 938.899C1976.29 963.349 2022.38 986.442 2054.67 1005.29L2053.59 1007.87C2021.37 989.059 1975.32 965.988 1926.57 941.558C1886.14 921.297 1844.32 900.346 1806.14 879.735C1800.96 876.93 1795.86 874.142 1790.84 871.392L1788.43 870.074C1783.7 867.502 1779 864.933 1774.35 862.383C1746.7 847.252 1720.57 832.95 1692.9 821.314C1647.43 802.064 1606.79 794.269 1568.65 797.48C1551.21 798.925 1532.87 802.899 1512.61 809.614C1493.08 816.07 1473.66 824.172 1454.88 832.005C1441.76 837.471 1428.2 843.129 1415.1 848.004C1385.49 859.002 1361.05 864.765 1338.18 866.136C1309.24 867.873 1283.87 862.398 1260.61 849.414C1251.88 844.575 1243.49 838.531 1235.65 831.447C1195.61 795.164 1172.89 735.581 1154.3 676.595L1153.27 673.334C1145.36 648.271 1137.19 622.349 1126.83 598.248C1108.78 556.404 1086.46 524.458 1058.62 500.587C993.757 445.018 890.165 443.055 822.768 496.127C774.795 533.908 739.281 587.543 704.944 639.417C690.81 660.765 676.196 682.842 660.927 703.48C625.753 751.418 587.512 785.058 547.284 803.461C513.595 818.733 478.709 823.235 443.594 816.857C395.588 808.131 347.172 779.249 299.687 731.025C292.836 724.106 285.761 716.562 278.656 708.607C259.912 687.555 241.824 664.724 224.328 642.646C199.056 610.755 172.928 577.775 143.525 548.32C130.871 535.645 117.5 523.633 103.767 512.63C29.6532 453.213 -53.2144 422.856 -129.553 427.147C-137.653 427.602 -145.813 428.46 -153.799 429.698C-245.68 443.996 -320.703 511.336 -344.922 601.254L-347.463 600.223L-347.474 600.211Z" fill="url(#paint10_linear_2040_3342)" fill-opacity="0.2"/>
<path d="M-345.159 609.176C-332.889 564.547 -307.569 525.128 -271.93 495.19C-237.845 466.553 -196.802 448.372 -153.248 442.603C-145.303 441.553 -137.196 440.88 -129.149 440.609C-90.7679 439.286 -50.6398 446.732 -9.87095 462.745C28.5177 477.836 65.897 499.812 101.217 528.11C114.742 538.946 128.002 550.748 140.627 563.203C168.656 590.848 193.92 621.432 218.346 651.012C236.895 673.472 256.082 696.696 275.934 717.886C283.021 725.435 290.087 732.591 296.938 739.165C343.879 784.449 391.446 811.225 438.314 818.75C472.039 824.163 506.653 819.054 538.424 803.986C577.666 785.207 613.266 752.603 647.263 704.318C661.648 684.067 675.423 662.413 688.738 641.466C721.885 589.345 756.16 535.452 803.399 497.29C836.421 470.616 879.538 456.527 924.801 457.618C970.548 458.727 1013.48 475.343 1045.71 504.401C1073.49 529.449 1095.76 562.964 1113.79 606.859C1123.43 630.397 1131.16 655.46 1138.65 679.703C1139.42 682.194 1140.19 684.691 1140.96 687.182C1158.37 743.488 1181.8 805.974 1223.55 842.488C1231.46 849.395 1239.93 855.223 1248.71 859.815C1302.26 888.038 1359.5 870.603 1403.4 852.264C1414.78 847.506 1426.04 842.382 1437.96 836.961C1458.62 827.555 1479.98 817.832 1501.7 810.364C1522.32 803.247 1541.15 799.178 1559.24 797.92C1598.44 795.138 1640.05 804.699 1686.45 827.137C1711.67 839.267 1735.28 853.523 1760.25 868.614C1767.45 872.963 1774.89 877.457 1782.39 881.902C1789.43 886.11 1794.9 889.343 1800.15 892.4C1878.31 937.749 1974.54 981.519 2038.21 1010.49C2043.8 1013.03 2049.15 1015.46 2054.22 1017.77L2053.38 1020.47C2048.31 1018.16 2042.96 1015.73 2037.37 1013.19C1973.65 984.197 1877.34 940.388 1799.06 894.971C1793.81 891.911 1788.32 888.666 1781.27 884.463C1773.77 880.014 1766.33 875.514 1759.12 871.16C1734.2 856.106 1710.66 841.885 1685.54 829.811C1639.55 807.565 1598.36 798.091 1559.6 800.844C1541.7 802.089 1523.08 806.121 1502.64 813.166C1481.03 820.601 1459.72 830.3 1439.11 839.684C1427.7 844.879 1415.9 850.245 1404.49 855.019C1362.65 872.498 1308.77 889.138 1257.1 866.929C1253.96 865.58 1250.84 864.092 1247.71 862.444C1238.74 857.754 1230.09 851.791 1222 844.732C1179.65 807.691 1155.99 744.681 1138.45 687.934C1137.68 685.443 1136.91 682.952 1136.14 680.455C1128.68 656.283 1120.96 631.287 1111.39 607.892C1093.55 564.466 1071.55 531.34 1044.13 506.615C978.513 447.44 873.489 444.401 805.045 499.698C758.13 537.6 723.962 591.318 690.929 643.265C677.593 664.234 663.802 685.919 649.381 706.223C615.141 754.857 579.233 787.718 539.609 806.686C507.412 821.953 472.32 827.124 438.123 821.646C390.711 814.041 342.651 787.007 295.283 741.31C288.398 734.706 281.296 727.503 274.17 719.915C254.249 698.642 235.031 675.382 216.45 652.885C192.069 623.37 166.858 592.847 138.946 565.314C126.398 552.938 113.22 541.194 99.7733 530.43C26.6048 471.829 -54.5948 440.966 -128.872 443.531C-136.841 443.804 -144.873 444.464 -152.746 445.506C-243.909 457.575 -318.447 522.229 -342.633 610.208L-345.168 609.157L-345.159 609.176Z" fill="url(#paint11_linear_2040_3342)" fill-opacity="0.2"/>
<path d="M-342.851 618.131C-330.595 574.465 -305.316 536.196 -269.738 507.453C-235.81 480.045 -195.143 463.09 -152.122 458.425C-144.299 457.576 -136.32 457.1 -128.404 457.011C-55.6527 456.134 24.4798 487.709 97.2323 545.919C110.466 556.507 123.527 568.039 136.04 580.193C162.443 605.82 186.631 633.886 210.015 661.025C229.785 683.97 250.224 707.692 271.405 729.145C278.529 736.342 285.629 743.16 292.497 749.404C339.311 792.194 386.52 817.131 432.809 823.533C466.114 828.138 499.978 822.501 530.727 807.233C568.782 788.168 603.119 755.415 635.697 707.107C649.256 687.184 662.219 665.911 674.758 645.344C706.582 593.135 739.485 539.155 785.661 500.886C818.944 473.308 862.706 459 908.903 460.585C955.529 462.186 998.996 479.91 1031.29 510.489C1058.63 536.371 1080.57 571.07 1098.38 616.569C1107.27 639.361 1114.54 663.482 1121.58 686.811C1122.75 690.724 1123.94 694.633 1125.12 698.541C1141.39 752.139 1165.72 818.444 1209.88 855.744C1218.04 862.617 1226.74 868.358 1235.77 872.818C1290.22 899.902 1348.25 879.821 1392.73 859.307C1402.34 854.828 1412.27 849.917 1421.87 845.17C1444.45 834.007 1467.78 822.467 1491.73 813.923C1512.56 806.469 1531.7 802.337 1550.24 801.282C1590.13 798.965 1632.32 810.221 1679.23 835.7C1702.59 848.33 1724.34 862.746 1747.36 878.006C1756.44 884.021 1765.82 890.244 1775.33 896.357C1781.87 900.588 1787.71 904.297 1793.15 907.692C1880.49 961.86 1988.14 1007.59 2053.79 1030.29L2053.18 1033.09C1987.41 1010.34 1879.53 964.515 1791.99 910.226C1786.53 906.823 1780.69 903.109 1774.13 898.866C1764.6 892.745 1755.21 886.518 1746.13 880.501C1723.16 865.28 1701.47 850.894 1678.21 838.324C1631.74 813.082 1589.99 801.929 1550.57 804.219C1532.26 805.262 1513.33 809.355 1492.7 816.732C1468.88 825.231 1445.61 836.742 1423.09 847.876C1413.47 852.631 1403.53 857.547 1393.89 862.042C1350.67 881.972 1294.76 901.462 1241.3 878.496C1239.14 877.568 1236.98 876.571 1234.83 875.5C1225.61 870.947 1216.7 865.076 1208.36 858.047C1163.57 820.206 1139 753.333 1122.6 699.297C1121.42 695.388 1120.24 691.48 1119.05 687.564C1112.04 664.296 1104.78 640.237 1095.94 617.572C1078.31 572.533 1056.63 538.221 1029.64 512.673C964.359 450.875 855.659 446.669 787.321 503.299C741.463 541.299 708.669 595.097 676.961 647.125C664.406 667.724 651.423 689.019 637.833 708.997C605.017 757.663 570.376 790.683 531.941 809.937C500.769 825.414 466.436 831.125 432.661 826.455C385.832 819.982 338.134 794.797 290.891 751.623C283.983 745.346 276.851 738.492 269.688 731.256C248.429 709.731 227.954 685.962 208.151 662.981C184.81 635.891 160.67 607.883 134.366 582.352C121.92 570.265 108.937 558.805 95.7727 548.271C23.5159 490.457 -56.0241 459.091 -128.197 459.956C-136.043 460.045 -143.942 460.517 -151.69 461.352C-240.75 471.008 -316.562 534.448 -340.345 619.208L-342.876 618.143L-342.851 618.131Z" fill="url(#paint12_linear_2040_3342)" fill-opacity="0.2"/>
<path d="M-340.537 627.087C-328.302 584.381 -303.06 547.248 -267.54 519.708C-234.25 493.897 -192.858 477.746 -150.987 474.234C-143.294 473.59 -135.443 473.311 -127.643 473.402C-90.8515 473.817 -52.3414 482.457 -13.1863 499.085C23.0045 514.454 58.841 536.208 93.2619 563.725C106.203 574.071 119.054 585.32 131.467 597.177C156.108 620.697 179.032 646.182 201.201 670.837C222.347 694.348 244.212 718.658 266.889 740.401C274.045 747.242 281.174 753.713 288.065 759.629C334.738 799.929 381.585 823.039 427.319 828.315C460.211 832.107 493.314 825.937 523.054 810.474C559.923 791.139 592.991 758.235 624.154 709.89C636.904 690.288 649.075 669.396 660.85 649.192C691.316 596.895 722.828 542.819 767.95 504.469C784.829 490.125 804.521 479.286 826.483 472.256C847.749 465.448 870.133 462.511 893.027 463.53C940.541 465.636 984.529 484.471 1016.9 516.563C1044.17 543.612 1065.18 578.47 1082.99 626.265C1091.17 648.275 1097.98 671.454 1104.58 693.865C1106.15 699.211 1107.73 704.559 1109.32 709.889C1124.21 759.882 1149.43 830.774 1196.23 868.992C1204.63 875.832 1213.59 881.496 1222.85 885.813C1278.46 911.9 1337.16 889.124 1382.09 866.345C1390.4 862.087 1398.99 857.493 1407.3 853.048C1431.29 840.221 1456.1 826.957 1481.78 817.47C1502.84 809.675 1522.29 805.477 1541.25 804.63C1581.89 802.771 1624.67 815.727 1672.02 844.247C1694.01 857.433 1714.39 872.161 1735.96 887.755C1746.43 895.326 1757.26 903.157 1768.29 910.79C1774.74 915.266 1780.58 919.248 1786.18 922.956C1875.7 982.026 1984.88 1025.7 2053.39 1042.79L2053 1045.65C1984.29 1028.52 1874.75 984.699 1784.96 925.449C1779.35 921.726 1773.48 917.733 1767.02 913.246C1755.98 905.597 1745.13 897.758 1734.64 890.182C1713.12 874.626 1692.8 859.934 1670.91 846.807C1624.01 818.568 1581.7 805.73 1541.56 807.568C1522.84 808.402 1503.61 812.558 1482.79 820.269C1457.25 829.702 1432.51 842.93 1408.59 855.717C1400.28 860.166 1391.68 864.762 1383.34 869.034C1352.82 884.507 1327.78 893.665 1304.51 897.868C1274.09 903.356 1247.09 900.286 1221.99 888.511C1212.52 884.098 1203.36 878.317 1194.77 871.32C1174.25 854.559 1156.56 831.127 1140.72 799.681C1128.4 775.24 1117.63 746.939 1106.81 710.624C1105.21 705.284 1103.64 699.939 1102.07 694.584C1095.49 672.227 1088.68 649.107 1080.56 627.209C1062.92 579.88 1042.15 545.4 1015.22 518.69C949.182 453.211 839.023 447.902 769.656 506.863C724.856 544.939 693.463 598.82 663.102 650.925C651.314 671.154 639.126 692.077 626.348 711.728C594.949 760.447 561.577 793.619 524.331 813.152C494.181 828.828 460.609 835.08 427.256 831.235C380.993 825.901 333.655 802.572 286.552 761.896C279.62 755.947 272.454 749.437 265.259 742.556C242.497 720.739 220.589 696.38 199.406 672.829C177.272 648.22 154.393 622.778 129.835 599.339C117.488 587.549 104.701 576.35 91.8272 566.063C20.4248 508.989 -57.4557 477.121 -127.468 476.333C-135.189 476.238 -142.962 476.519 -150.582 477.156C-238.924 484.554 -314.246 545.244 -338.002 628.161L-340.527 627.076L-340.537 627.087Z" fill="url(#paint13_linear_2040_3342)" fill-opacity="0.2"/>
<path d="M-335.703 637.143L-338.224 636.044C-326.001 594.293 -300.798 558.304 -265.343 531.971C-232.199 507.355 -191.187 492.467 -149.855 490.056C-142.286 489.619 -134.562 489.531 -126.894 489.81C-90.9111 491.08 -53.2224 500.324 -14.8478 517.266C20.2398 532.764 55.2735 554.394 89.2862 581.549C101.914 591.63 114.565 602.609 126.898 614.178C149.602 635.479 171.052 658.322 191.798 680.412C215.549 705.706 237.982 729.592 262.373 751.664C269.543 758.136 276.699 764.265 283.636 769.872C330.155 807.699 376.65 828.979 421.831 833.114C454.308 836.085 486.654 829.384 515.376 813.738C551.049 794.144 582.861 761.094 612.606 712.695C624.568 693.415 635.967 672.89 646.987 653.037C676.081 600.653 706.161 546.48 750.227 508.071C767.221 493.257 787.159 482.128 809.488 474.981C831.074 468.073 853.826 465.211 877.124 466.473C900.53 467.735 923.137 473.086 944.382 482.391C966.509 492.083 986.061 505.629 1002.49 522.657C1029.34 550.486 1050.03 586.496 1067.59 635.98C1075.09 657.175 1081.45 679.378 1087.6 700.853C1089.52 707.549 1091.51 714.48 1093.49 721.259C1117.02 801.69 1145.33 852.85 1182.57 882.258C1191.21 889.071 1200.42 894.642 1209.92 898.826C1266.77 923.998 1326.09 898.457 1371.42 873.406C1378.61 869.398 1386.02 865.128 1393.19 861.006C1418.43 846.482 1444.53 831.463 1471.82 821.05C1493.1 812.916 1512.87 808.649 1532.25 808.014C1573.67 806.612 1617.03 821.272 1664.81 852.826C1685.75 866.611 1705.09 881.763 1725.56 897.809C1737.1 906.857 1749.04 916.211 1761.24 925.252C1767.62 929.998 1773.48 934.25 1779.2 938.258C1859.78 994.614 1969.81 1041.66 2052.98 1055.34L2052.79 1058.24C2014.03 1051.86 1966.43 1037.34 1918.75 1017.34C1867.66 995.909 1818.96 969.407 1777.91 940.705C1772.18 936.682 1766.28 932.41 1759.89 927.656C1747.65 918.588 1735.7 909.225 1724.14 900.162C1703.72 884.162 1684.43 869.037 1663.58 855.323C1616.28 824.079 1573.41 809.57 1532.53 810.951C1513.4 811.582 1493.88 815.793 1472.85 823.841C1445.73 834.188 1419.71 849.166 1394.55 863.646C1387.37 867.775 1379.95 872.049 1372.74 876.062C1342 893.052 1316.75 903.347 1293.28 908.473C1262.38 915.215 1234.86 912.987 1209.1 901.56C1199.38 897.283 1189.98 891.589 1181.14 884.623C1160.28 868.148 1141.57 843.888 1125.53 812.497C1112.83 787.64 1101.53 758.034 1090.98 721.985C1088.99 715.196 1087 708.265 1085.09 701.562C1078.95 680.139 1072.6 657.981 1065.14 636.885C1047.74 587.863 1027.29 552.227 1000.76 524.746C935.089 456.688 821.153 450.146 751.95 510.457C708.209 548.578 678.238 602.545 649.256 654.739C638.215 674.614 626.8 695.17 614.81 714.5C584.829 763.272 552.728 796.611 516.67 816.407C487.545 832.27 454.739 839.064 421.798 836.055C397.963 833.874 373.356 826.798 348.653 815.02C326.462 804.443 304.093 790.038 282.166 772.211C275.195 766.574 267.999 760.412 260.784 753.897C236.298 731.739 212.773 706.695 190.026 682.468C169.315 660.408 147.897 637.601 125.264 616.37C112.993 604.858 100.405 593.929 87.835 583.896C37.8866 544.014 -39.8893 495.826 -126.792 492.748C-134.384 492.478 -142.035 492.559 -149.534 492.996C-237.149 498.109 -311.973 556.043 -335.721 637.158L-335.703 637.143Z" fill="url(#paint14_linear_2040_3342)" fill-opacity="0.2"/>
<path d="M-333.389 646.1L-335.906 644.988C-323.693 604.179 -298.536 569.336 -263.14 544.213C-230.141 520.785 -189.503 507.162 -148.716 505.849C-141.275 505.61 -133.673 505.722 -126.136 506.182C-41.4959 511.29 35.5713 559.66 85.3144 599.336C97.6194 609.155 110.067 619.854 122.324 631.145C142.896 650.096 162.621 670.214 181.699 689.672C207.309 715.794 231.502 740.465 257.857 762.904C265.064 769.024 272.243 774.803 279.202 780.09C324.903 814.967 372.323 834.953 416.338 837.89C448.402 840.025 479.993 832.794 507.698 816.981C542.662 796.87 572.326 764.622 601.066 715.482C612.258 696.508 622.901 676.342 633.19 656.835C660.877 604.364 689.506 550.101 732.519 511.656C749.621 496.37 769.804 484.933 792.498 477.676C814.403 470.669 837.522 467.881 861.228 469.379C885.023 470.885 907.99 476.636 929.5 486.468C951.933 496.719 971.651 510.94 988.094 528.714C1014.53 557.295 1034.9 594.455 1052.2 645.658C1059.06 666.011 1064.97 687.235 1070.69 707.766C1072.96 715.921 1075.31 724.35 1077.68 732.593C1100.76 812.927 1130.61 866.214 1168.92 895.488C1177.8 902.268 1187.24 907.762 1197 911.796C1255.11 936.052 1315.04 907.772 1360.77 880.42C1366.96 876.687 1373.33 872.76 1379.49 868.96C1405.85 852.706 1433.1 835.896 1461.87 824.572C1483.37 816.093 1503.46 811.766 1523.26 811.34C1545.92 810.834 1569.74 815.557 1594.05 825.378C1614.45 833.623 1635.84 845.719 1657.59 861.343C1677.73 875.763 1696.26 891.424 1715.88 907.997C1728.26 918.461 1741.05 929.279 1754.19 939.655C1760.55 944.69 1766.44 949.22 1772.21 953.491C1854.55 1014.28 1967.22 1060.23 2052.59 1067.83L2052.58 1070.75C2006.29 1066.63 1952 1051.28 1898.85 1028.44C1853.49 1008.95 1808.95 984.004 1770.87 955.886C1765.08 951.589 1759.16 947.048 1752.78 941.987C1739.6 931.579 1726.79 920.746 1714.39 910.267C1694.82 893.73 1676.35 878.113 1656.29 863.755C1609.27 829.986 1564.6 813.335 1523.53 814.255C1504.01 814.678 1484.18 818.951 1462.93 827.333C1434.35 838.576 1407.19 855.334 1380.92 871.54C1374.75 875.344 1368.37 879.278 1362.17 883.012C1342.7 894.662 1313.22 911.058 1282.08 918.997C1250.71 926.996 1222.63 925.535 1196.25 914.52C1186.28 910.383 1176.62 904.777 1167.54 897.844C1128.68 868.139 1098.46 814.304 1075.17 733.268C1072.79 725.013 1070.44 716.571 1068.17 708.412C1062.46 687.927 1056.55 666.742 1049.73 646.479C1032.58 595.738 1012.43 558.951 986.315 530.721C919.884 458.89 804.453 451.222 734.262 513.974C691.591 552.122 663.065 606.169 635.488 658.434C625.184 677.966 614.525 698.164 603.305 717.187C574.34 766.713 544.387 799.249 509.041 819.579C480.943 835.621 448.897 842.955 416.373 840.791C371.856 837.822 323.944 817.648 277.813 782.44C270.812 777.128 263.587 771.314 256.341 765.154C229.884 742.625 204.514 716.751 179.982 691.735C160.931 672.305 141.228 652.212 120.717 633.317C108.518 622.074 96.1209 611.42 83.8731 601.648C34.4413 562.221 -42.111 514.156 -126.08 509.085C-133.548 508.631 -141.073 508.521 -148.441 508.754C-235.321 511.548 -309.649 566.735 -333.388 646.07L-333.389 646.1Z" fill="url(#paint15_linear_2040_3342)" fill-opacity="0.2"/>
<path d="M-331.083 655.071L-333.594 653.939C-321.395 614.068 -296.27 580.363 -260.944 556.468C-228.078 534.233 -187.818 521.872 -147.585 521.661C-140.253 521.627 -132.786 521.935 -125.379 522.576C-91.0444 525.541 -54.9629 535.97 -18.1546 553.583C14.579 569.24 48.0553 590.627 81.339 617.151C93.3004 626.684 105.551 637.106 117.746 648.14C135.946 664.593 153.647 681.889 170.768 698.613C198.508 725.71 224.714 751.313 253.329 774.178C260.555 779.939 267.769 785.373 274.764 790.338C320.298 822.814 367.352 840.919 410.842 842.697C442.495 843.99 473.331 836.229 500.018 820.256C533.763 799.914 562.207 767.52 589.514 718.304C599.96 699.631 609.863 679.815 619.438 660.645C645.696 608.086 672.852 553.746 714.8 515.275C785.845 450.133 906.817 459.264 973.691 534.831C1000.02 564.376 1019.49 601.559 1036.81 655.392C1043.06 674.861 1048.53 695.092 1053.82 714.655C1056.43 724.294 1059.12 734.263 1061.87 743.985C1084.53 824.236 1115.96 879.683 1155.27 908.784C1164.4 915.53 1174.09 920.927 1184.09 924.839C1243.5 948.216 1304.04 917.164 1350.13 887.508C1355.42 884.081 1360.87 880.491 1366.14 877.021C1393.5 859.008 1421.78 840.386 1451.93 828.171C1473.68 819.345 1494.07 814.952 1514.28 814.739C1556.72 814.26 1602.51 832.835 1650.38 869.941C1669.89 885.031 1688.62 902.014 1706.73 918.43C1719.77 930.257 1733.26 942.489 1747.15 954.136C1753.49 959.462 1759.4 964.261 1765.24 968.812C1848.69 1033.65 1964.02 1078.5 2052.21 1080.41L2052.37 1083.34C2009.27 1082.41 1959.46 1071.55 1908.33 1051.93C1855.93 1031.83 1805.96 1003.9 1763.83 971.171C1757.97 966.599 1752.02 961.779 1745.66 956.427C1731.72 944.744 1718.21 932.494 1705.15 920.645C1687.08 904.265 1668.42 887.327 1648.99 872.305C1601.61 835.586 1556.37 817.203 1514.51 817.671C1494.6 817.879 1474.48 822.216 1453 830.936C1423.07 843.066 1394.88 861.625 1367.62 879.576C1362.34 883.044 1356.89 886.634 1351.59 890.071C1332 902.672 1302.32 920.492 1270.87 929.64C1239.02 938.897 1210.41 938.237 1183.38 927.604C1173.17 923.607 1163.26 918.085 1153.93 911.19C1114.04 881.667 1082.22 825.638 1059.35 744.671C1056.6 734.93 1053.9 724.954 1051.29 715.305C1046.01 695.775 1040.54 675.586 1034.33 656.191C1017.16 602.823 997.898 566.005 971.876 536.815C905.949 462.32 786.653 453.351 716.574 517.607C674.967 555.757 647.922 609.884 621.777 662.224C612.186 681.425 602.267 701.273 591.793 719.995C564.256 769.61 535.534 802.305 501.411 822.875C474.338 839.08 443.058 846.956 410.948 845.644C366.961 843.843 319.418 825.567 273.459 792.793C266.422 787.802 259.169 782.329 251.897 776.533C223.165 753.579 196.91 727.924 169.109 700.771C152.011 684.064 134.325 666.79 116.17 650.379C104.02 639.387 91.8153 629 79.9048 619.512C8.67429 562.761 -60.3936 531.141 -125.381 525.53C-132.71 524.891 -140.109 524.59 -147.37 524.624C-233.506 525.073 -307.336 577.507 -331.085 655.101L-331.083 655.071Z" fill="url(#paint16_linear_2040_3342)" fill-opacity="0.2"/>
<path d="M-328.772 664.033L-331.279 662.887C-319.087 623.95 -294.007 591.384 -258.744 568.712C-226.007 547.663 -186.127 536.564 -146.45 537.462C-139.246 537.626 -131.907 538.131 -124.625 538.956C-61.666 546.084 6.29102 578.373 77.3599 634.936C88.9249 644.144 100.978 654.29 113.167 665.098C128.711 678.879 144.029 693.221 158.844 707.094C189.039 735.365 217.563 762.078 248.801 785.41C256.059 790.816 263.294 795.907 270.318 800.547C315.667 830.638 362.36 846.865 405.34 847.46C436.581 847.895 466.66 839.603 492.325 823.483C524.855 802.928 552.072 770.384 577.959 721.076C587.681 702.698 596.859 683.207 605.744 664.363C630.55 611.727 656.192 557.3 697.08 518.837C730.954 486.973 779.189 471.045 829.413 475.127C854.015 477.125 877.684 483.682 899.747 494.592C922.805 505.991 942.826 521.565 959.272 540.869C985.223 571.159 1004.38 609.461 1021.4 665.049C1027.07 683.611 1032.11 702.836 1036.98 721.423C1039.9 732.558 1042.93 744.081 1046.04 755.293C1068.61 836.61 1100.76 892.699 1141.61 921.989C1150.98 928.701 1160.92 934.022 1171.16 937.791C1231.91 960.305 1293.02 926.488 1339.46 894.507C1343.97 891.391 1348.5 888.216 1353.06 885.025C1381.32 865.236 1410.53 844.779 1441.96 831.688C1463.95 822.515 1484.67 818.059 1505.28 818.059C1548.55 818.037 1594.93 838.356 1643.15 878.451C1662.18 894.242 1680.37 911.867 1697.96 928.91C1711.55 942.069 1725.59 955.671 1740.09 968.53C1746.43 974.16 1752.37 979.231 1758.25 984.037C1843.79 1053.78 1959.03 1096.51 2051.83 1092.91L2052.13 1095.84C2006.97 1097.6 1955.44 1088.37 1903.11 1069.17C1849.91 1049.65 1799.3 1021.02 1756.79 986.35C1750.87 981.519 1744.91 976.416 1738.54 970.764C1723.98 957.859 1709.91 944.23 1696.32 931.049C1678.77 914.049 1660.62 896.466 1641.68 880.743C1593.97 841.066 1548.15 820.959 1505.49 820.983C1485.19 820.979 1464.78 825.38 1443.07 834.437C1411.87 847.437 1382.76 867.823 1354.6 887.534C1350.04 890.731 1345.51 893.903 1341 897.026C1321.3 910.59 1291.44 929.813 1259.65 940.17C1227.34 950.694 1198.18 950.819 1170.52 940.57C1160.05 936.71 1149.9 931.274 1140.32 924.419C1098.88 894.699 1066.32 838.02 1043.55 755.958C1040.43 744.722 1037.4 733.19 1034.48 722.038C1029.61 703.483 1024.57 684.292 1018.93 665.794C1002.05 610.665 983.094 572.732 957.446 542.793C891.888 465.829 768.66 455.5 698.896 521.125C658.358 559.256 632.825 613.454 608.128 665.861C599.233 684.74 590.035 704.253 580.29 722.682C554.185 772.402 526.696 805.249 493.784 826.046C467.737 842.408 437.219 850.817 405.531 850.382C362.067 849.77 314.891 833.397 269.113 803.022C262.047 798.356 254.759 793.227 247.462 787.788C216.088 764.36 187.508 737.593 157.246 709.262C142.448 695.404 127.14 681.074 111.63 667.323C99.4819 656.548 87.4686 646.435 75.9439 637.258C5.29006 581.027 -62.2105 548.927 -124.675 541.858C-131.889 541.04 -139.159 540.541 -146.285 540.38C-230.334 538.472 -305.365 589.321 -328.762 664.022L-328.772 664.033Z" fill="url(#paint17_linear_2040_3342)" fill-opacity="0.2"/>
<path d="M-326.464 673L-328.965 671.834C-316.784 633.822 -291.737 602.401 -256.54 580.965C-223.924 561.091 -184.417 551.256 -145.311 553.271C-138.238 553.639 -131.025 554.335 -123.86 555.347C-62.714 563.976 1.80354 595.834 73.3883 652.737C84.6689 661.701 96.1843 671.301 108.593 682.081C121.123 692.958 133.615 704.187 145.696 715.047C178.74 744.748 209.949 772.795 244.273 796.664C251.549 801.71 258.811 806.46 265.877 810.782C311.035 838.508 357.362 852.855 399.841 852.256C431.114 851.817 459.645 843.236 484.645 826.74C515.962 805.986 541.949 773.301 566.416 723.876C575.431 705.786 583.907 686.614 592.115 668.078C615.438 615.368 639.556 560.865 679.371 522.434C751.015 453.277 877.564 464.964 944.88 546.956C977.665 586.716 994.773 636.14 1006.02 674.759C1011.14 692.388 1015.76 710.588 1020.24 728.183C1023.45 740.845 1026.78 753.937 1030.25 766.654C1045.71 823.313 1075.21 898.565 1127.98 935.253C1137.59 941.931 1147.78 947.165 1158.25 950.802C1220.39 972.474 1282.05 935.87 1328.83 901.558C1332.62 898.775 1336.42 895.955 1340.24 893.112C1369.32 871.526 1399.38 849.209 1432.03 835.248C1454.27 825.732 1475.29 821.203 1496.3 821.421C1540.41 821.852 1587.4 843.919 1635.95 887.009C1654.59 903.527 1672.35 921.843 1689.53 939.553C1703.55 954 1718.04 968.942 1733.05 982.977C1739.39 988.914 1745.35 994.254 1751.28 999.316C1837.4 1072.81 1955.24 1114.48 2051.49 1105.46L2051.91 1108.39C1994.63 1113.75 1929.75 1101.28 1868.38 1074.92C1825.94 1056.69 1785.19 1031.82 1749.77 1001.59C1743.81 996.499 1737.82 991.123 1731.45 985.156C1716.37 971.073 1701.85 956.104 1687.81 941.632C1670.68 923.962 1652.95 905.695 1634.4 889.252C1586.36 846.62 1539.96 824.788 1496.49 824.363C1475.8 824.148 1455.09 828.61 1433.15 838.002C1400.76 851.859 1370.8 874.092 1341.84 895.596C1338.01 898.436 1334.21 901.263 1330.42 904.046C1310.63 918.561 1280.6 939.202 1248.44 950.763C1215.66 962.548 1185.97 963.473 1157.65 953.597C1146.94 949.873 1136.53 944.522 1126.71 937.701C1073.17 900.474 1043.34 824.492 1027.73 767.303C1024.25 754.557 1020.92 741.449 1017.71 728.773C1013.24 711.198 1008.63 693.031 1003.53 675.456C992.375 637.146 975.416 588.137 943.01 548.839C876.649 468.008 751.868 456.513 681.217 524.712C641.757 562.798 617.752 617.059 594.533 669.53C586.318 688.094 577.826 707.297 568.782 725.436C544.108 775.284 517.852 808.283 486.151 829.285C460.769 846.022 431.823 854.739 400.104 855.177C357.149 855.779 310.35 841.298 264.764 813.311C257.655 808.964 250.344 804.185 243.022 799.103C208.543 775.13 175.809 745.708 144.15 717.253C132.074 706.402 119.594 695.179 107.088 684.319C94.7067 673.566 83.2254 663.996 71.9807 655.056C0.794009 598.469 -63.3026 566.8 -123.978 558.235C-131.067 557.232 -138.211 556.543 -145.216 556.182C-228.505 551.899 -303.033 599.927 -326.448 672.992L-326.464 673Z" fill="url(#paint18_linear_2040_3342)" fill-opacity="0.2"/>
<path d="M-324.163 681.965L-326.658 680.779C-314.48 643.686 -289.477 613.404 -254.347 593.204C-221.838 574.511 -182.719 565.941 -144.183 569.066C-137.238 569.632 -130.147 570.528 -123.113 571.721C-90.8922 577.206 -58.1843 589.084 -23.123 608.041C6.03605 623.804 36.3053 644.245 69.4069 670.525C80.0879 679.009 91.4123 688.335 104.01 699.049C113.078 706.755 122.212 714.651 131.037 722.291C165.805 752.355 201.754 783.439 239.74 807.915C247.032 812.608 254.329 817.013 261.425 821.011C306.39 846.403 352.346 858.86 394.337 857.05C425.186 855.717 452.987 846.617 476.957 830.001C507.474 808.776 531.5 776.912 554.861 726.679C563.187 708.861 570.985 689.997 578.526 671.756C600.342 618.986 622.898 564.413 661.644 526.024C696.334 491.655 746.605 475.281 799.552 481.1C850.999 486.756 898.713 512.97 930.459 553.03C962.599 593.467 978.904 642.152 990.608 684.446C995.215 701.109 999.424 718.267 1003.5 734.856C1006.99 749.063 1010.59 763.76 1014.42 778.005C1029.82 835.442 1059.67 911.652 1114.31 948.5C1124.16 955.145 1134.59 960.292 1145.32 963.799C1208.86 984.644 1271.08 945.249 1318.17 908.603C1321.3 906.167 1324.44 903.698 1327.6 901.22C1357.42 877.822 1388.27 853.63 1422.06 838.8C1444.55 828.933 1465.88 824.346 1487.28 824.78C1532.25 825.677 1579.82 849.49 1628.7 895.561C1647.03 912.828 1664.45 931.871 1681.29 950.28C1695.67 965.99 1710.53 982.236 1725.97 997.404C1732.32 1003.64 1738.3 1009.26 1744.27 1014.58C1830.84 1091.72 1951.28 1132.32 2051.11 1118L2051.64 1120.91C2002.24 1127.99 1947.27 1122.06 1892.66 1103.75C1837.72 1085.33 1785.87 1055.27 1742.71 1016.81C1736.7 1011.46 1730.69 1005.81 1724.31 999.535C1708.81 984.313 1693.91 968.03 1679.51 952.293C1662.7 933.923 1645.33 914.929 1627.07 897.734C1578.72 852.154 1531.74 828.598 1487.44 827.718C1466.38 827.294 1445.36 831.818 1423.19 841.546C1389.66 856.251 1358.95 880.352 1329.24 903.66C1326.08 906.138 1322.93 908.604 1319.8 911.047C1299.92 926.519 1269.72 948.562 1237.19 961.339C1203.96 974.387 1173.72 976.112 1144.76 966.61C1133.8 963.019 1123.14 957.765 1113.07 950.974C1057.63 913.584 1027.45 836.618 1011.89 778.635C1008.06 764.364 1004.45 749.642 1000.95 735.415C996.887 718.846 992.683 701.72 988.091 685.102C976.471 643.135 960.314 594.842 928.539 554.861C897.277 515.414 850.244 489.592 799.499 484.008C747.253 478.268 697.684 494.4 663.494 528.265C625.115 566.292 602.663 620.603 580.947 673.126C573.39 691.397 565.584 710.288 557.235 728.158C533.67 778.831 509.382 811.011 478.486 832.495C454.144 849.364 425.935 858.602 394.648 859.953C361.902 861.366 326.79 854.202 291.615 839.099C281.189 834.62 270.759 829.443 260.377 823.583C253.233 819.557 245.887 815.124 238.546 810.401C200.387 785.813 164.359 754.657 129.517 724.53C120.69 716.897 111.563 709.005 102.505 701.311C89.9289 690.62 78.6341 681.315 67.9764 672.849C-3.87014 615.807 -64.6545 584.59 -123.314 574.603C-130.279 573.417 -137.295 572.531 -144.171 571.972C-226.691 565.279 -300.706 610.501 -324.165 681.949L-324.163 681.965Z" fill="url(#paint19_linear_2040_3342)" fill-opacity="0.2"/>
<path d="M-321.853 690.924L-324.342 689.717C-312.173 653.542 -287.201 624.398 -252.142 605.447C-219.739 587.933 -180.991 580.621 -143.042 584.864C-136.218 585.63 -129.254 586.717 -122.348 588.107C-91.0242 594.385 -59.104 606.85 -24.7735 626.196C2.82596 641.755 32.3283 662.072 65.4327 688.313C75.3551 696.179 86.1626 704.984 99.4356 716.011C104.47 720.194 109.494 724.387 114.512 728.578C153.016 760.735 192.827 793.989 235.211 819.151C242.526 823.494 249.853 827.552 256.987 831.221C301.104 853.967 347.937 864.835 388.849 861.819C419.278 859.58 446.341 849.964 469.285 833.239C506.825 805.827 528.573 763.384 543.327 729.46C550.982 711.905 558.113 693.338 565.013 675.375C585.299 622.548 606.276 567.921 643.945 529.6C678.499 494.449 729.035 477.769 782.59 483.834C835.363 489.808 884.015 517.242 916.066 559.084C947.771 600.409 963.764 650.541 975.229 694.121C979.348 709.794 983.162 725.886 986.852 741.45C990.592 757.235 994.46 773.557 998.621 789.331C1011.2 837.003 1041.19 922.796 1100.67 961.73C1110.77 968.341 1121.46 973.404 1132.42 976.776C1197.41 996.81 1260.15 954.614 1307.55 915.624C1310.09 913.533 1312.64 911.428 1315.19 909.312C1345.7 884.09 1377.24 858.013 1412.12 842.345C1434.86 832.127 1456.51 827.478 1478.31 828.126C1524.13 829.484 1572.3 855.043 1621.48 904.09C1639.58 922.133 1656.71 941.926 1673.28 961.071C1687.95 978.023 1703.12 995.553 1718.93 1011.82C1725.28 1018.37 1731.29 1024.26 1737.29 1029.83C1825.56 1111.78 1945.67 1150.37 2050.77 1130.53L2051.4 1133.42C1999.85 1143.15 1943.15 1138.86 1887.45 1121.02C1831.61 1103.12 1779.12 1072.35 1735.68 1032.02C1729.64 1026.41 1723.6 1020.48 1717.21 1013.9C1701.34 997.563 1686.14 980.002 1671.44 963.02C1654.91 943.921 1637.82 924.168 1619.8 906.213C1571.14 857.682 1523.58 832.4 1478.44 831.067C1457 830.427 1435.68 835.012 1413.27 845.087C1378.67 860.631 1347.25 886.601 1316.87 911.724C1314.31 913.838 1311.76 915.95 1309.22 918.041C1289.26 934.463 1258.91 957.909 1225.98 971.905C1192.28 986.221 1161.51 988.742 1131.89 979.61C1120.69 976.158 1109.77 970.988 1099.46 964.238C1074.94 948.191 1053.09 922.948 1034.49 889.206C1018.92 860.956 1006 827.57 996.077 789.96C991.901 774.141 988.03 757.802 984.284 741.992C980.602 726.446 976.791 710.371 972.68 694.74C961.3 651.479 945.44 601.749 914.092 560.883C882.525 519.67 834.564 492.648 782.506 486.752C729.673 480.767 679.84 497.198 645.797 531.834C608.501 569.772 587.63 624.13 567.439 676.7C560.531 694.69 553.39 713.292 545.707 730.895C530.819 765.114 508.854 807.962 470.83 835.724C447.527 852.708 420.06 862.471 389.197 864.738C353.556 867.363 314.942 860.042 276.424 843.503C269.608 840.575 262.797 837.359 256.004 833.86C248.822 830.162 241.447 826.076 234.083 821.704C191.501 796.419 151.597 763.094 113.002 730.86C107.984 726.669 102.966 722.478 97.9313 718.296C84.6754 707.283 73.8848 698.493 63.9813 690.635C15.0509 651.842 -50.3795 605.456 -122.65 590.969C-129.482 589.595 -136.378 588.515 -143.134 587.763C-209.995 580.282 -294.453 609.377 -321.891 690.908L-321.853 690.924Z" fill="url(#paint20_linear_2040_3342)" fill-opacity="0.2"/>
<path d="M-319.545 699.883L-322.021 698.658C-309.851 663.389 -284.92 635.393 -249.929 617.684C-217.624 601.339 -179.257 595.295 -141.894 600.656C-66.3327 611.506 3.31169 660.044 61.4657 706.095C72.8614 715.121 84.3841 724.47 95.5338 733.513C144.961 773.626 196.073 815.099 252.549 841.447C331.44 878.264 409.596 876.404 461.613 836.499C508.492 800.531 530.382 738.742 551.545 678.982C570.277 626.111 589.645 571.433 626.239 533.197C660.627 497.273 711.395 480.275 765.54 486.555C819.683 492.841 869.296 521.482 901.668 565.157C940.447 617.468 955.597 683.844 970.259 748.029C974.227 765.403 978.331 783.363 982.826 800.68C995.446 849.297 1034.04 965.045 1119.53 989.777C1185.98 1009 1249.24 964.013 1296.93 922.669C1298.92 920.94 1300.93 919.201 1302.94 917.448C1327.47 896.128 1352.83 874.084 1380.2 857.613C1411.27 838.903 1440.43 830.357 1469.34 831.482C1494.42 832.461 1520.51 841.016 1546.91 856.914C1569.23 870.358 1591.9 889.107 1614.28 912.638C1632.19 931.471 1649.09 952.053 1665.44 971.952C1685.91 996.871 1707.07 1022.64 1730.32 1045.09C1818.9 1130.6 1941.55 1168.15 2050.45 1143.07L2051.17 1145.95C1997.45 1158.32 1939.04 1155.68 1882.26 1138.3C1869.49 1134.39 1856.9 1129.76 1844.57 1124.46C1802.06 1106.2 1762.55 1079.93 1728.68 1047.24C1705.29 1024.66 1684.07 998.82 1663.54 973.83C1647.23 953.97 1630.37 933.435 1612.53 914.689C1563.58 863.218 1515.44 836.205 1469.45 834.414C1405.79 831.929 1354.38 876.608 1304.66 919.803C1302.66 921.549 1300.65 923.289 1298.65 925.024C1250.52 966.757 1186.6 1012.15 1119.04 992.6C1114.14 991.182 1109.32 989.455 1104.58 987.419C1076.48 975.351 1051.36 952.488 1029.73 919.249C1009.25 887.764 992.145 846.969 980.284 801.278C975.775 783.91 971.671 765.927 967.696 748.527C953.115 684.675 938.041 618.653 899.674 566.902C867.788 523.879 818.869 495.659 765.46 489.458C712.052 483.257 661.994 500.003 628.124 535.391C591.914 573.226 572.644 627.617 554.01 680.224C532.711 740.355 510.682 802.528 463.218 838.949C435.481 860.232 401.283 870.874 361.58 870.591C326.245 870.34 288.239 861.192 251.681 844.134C194.893 817.637 143.643 776.052 94.0781 735.826C82.941 726.788 71.4184 717.439 60.0395 708.428C2.17358 662.608 -67.0886 614.319 -142.036 603.556C-210.35 593.745 -293.255 623.679 -319.549 699.873L-319.545 699.883Z" fill="url(#paint21_linear_2040_3342)" fill-opacity="0.2"/>
<g opacity="0.9" filter="url(#filter3_f_2040_3342)">
<circle cx="-14" cy="1134" r="257" fill="#8866DD" fill-opacity="0.07"/>
</g>
<g clip-path="url(#clip1_2040_3342)">
<g filter="url(#filter4_f_2040_3342)">
<circle cx="1036" cy="416" r="258" fill="url(#paint22_radial_2040_3342)" fill-opacity="0.4"/>
</g>
</g>
</g>
<defs>
<filter id="filter0_f_2040_3342" x="-466.762" y="798.238" width="1208.52" height="1208.52" filterUnits="userSpaceOnUse" color-interpolation-filters="sRGB">
<feFlood flood-opacity="0" result="BackgroundImageFix"/>
<feBlend mode="normal" in="SourceGraphic" in2="BackgroundImageFix" result="shape"/>
<feGaussianBlur stdDeviation="102.381" result="effect1_foregroundBlur_2040_3342"/>
</filter>
<filter id="filter1_f_2040_3342" x="727.142" y="1527.14" width="1065.72" height="1065.72" filterUnits="userSpaceOnUse" color-interpolation-filters="sRGB">
<feFlood flood-opacity="0" result="BackgroundImageFix"/>
<feBlend mode="normal" in="SourceGraphic" in2="BackgroundImageFix" result="shape"/>
<feGaussianBlur stdDeviation="93.429" result="effect1_foregroundBlur_2040_3342"/>
</filter>
<filter id="filter2_f_2040_3342" x="-412.762" y="3345.24" width="1458.52" height="1458.52" filterUnits="userSpaceOnUse" color-interpolation-filters="sRGB">
<feFlood flood-opacity="0" result="BackgroundImageFix"/>
<feBlend mode="normal" in="SourceGraphic" in2="BackgroundImageFix" result="shape"/>
<feGaussianBlur stdDeviation="102.381" result="effect1_foregroundBlur_2040_3342"/>
</filter>
<filter id="filter3_f_2040_3342" x="-475.762" y="672.238" width="923.524" height="923.524" filterUnits="userSpaceOnUse" color-interpolation-filters="sRGB">
<feFlood flood-opacity="0" result="BackgroundImageFix"/>
<feBlend mode="normal" in="SourceGraphic" in2="BackgroundImageFix" result="shape"/>
<feGaussianBlur stdDeviation="102.381" result="effect1_foregroundBlur_2040_3342"/>
</filter>
<filter id="filter4_f_2040_3342" x="573.238" y="-46.7619" width="925.524" height="925.524" filterUnits="userSpaceOnUse" color-interpolation-filters="sRGB">
<feFlood flood-opacity="0" result="BackgroundImageFix"/>
<feBlend mode="normal" in="SourceGraphic" in2="BackgroundImageFix" result="shape"/>
<feGaussianBlur stdDeviation="102.381" result="effect1_foregroundBlur_2040_3342"/>
</filter>
<linearGradient id="paint0_linear_2040_3342" x1="-167.035" y1="345.896" x2="1869.46" y2="658.597" gradientUnits="userSpaceOnUse">
<stop stop-color="white" stop-opacity="0.25"/>
<stop offset="1" stop-color="#B4EFAF" stop-opacity="0.22"/>
</linearGradient>
<linearGradient id="paint1_linear_2040_3342" x1="-165.755" y1="358.778" x2="1868.66" y2="667.29" gradientUnits="userSpaceOnUse">
<stop stop-color="white" stop-opacity="0.25"/>
<stop offset="1" stop-color="#B4EFAF" stop-opacity="0.22"/>
</linearGradient>
<linearGradient id="paint2_linear_2040_3342" x1="-164.252" y1="370.734" x2="1868.26" y2="675.938" gradientUnits="userSpaceOnUse">
<stop stop-color="white" stop-opacity="0.25"/>
<stop offset="1" stop-color="#B4EFAF" stop-opacity="0.22"/>
</linearGradient>
<linearGradient id="paint3_linear_2040_3342" x1="-162.291" y1="380.873" x2="1868.65" y2="684.667" gradientUnits="userSpaceOnUse">
<stop stop-color="white" stop-opacity="0.25"/>
<stop offset="1" stop-color="#B4EFAF" stop-opacity="0.22"/>
</linearGradient>
<linearGradient id="paint4_linear_2040_3342" x1="-160.313" y1="390.924" x2="1869.09" y2="693.395" gradientUnits="userSpaceOnUse">
<stop stop-color="white" stop-opacity="0.25"/>
<stop offset="1" stop-color="#B4EFAF" stop-opacity="0.22"/>
</linearGradient>
<linearGradient id="paint5_linear_2040_3342" x1="-158.325" y1="400.905" x2="1869.52" y2="702.104" gradientUnits="userSpaceOnUse">
<stop stop-color="white" stop-opacity="0.25"/>
<stop offset="1" stop-color="#B4EFAF" stop-opacity="0.22"/>
</linearGradient>
<linearGradient id="paint6_linear_2040_3342" x1="-156.348" y1="410.867" x2="1869.95" y2="710.809" gradientUnits="userSpaceOnUse">
<stop stop-color="white" stop-opacity="0.25"/>
<stop offset="1" stop-color="#B4EFAF" stop-opacity="0.22"/>
</linearGradient>
<linearGradient id="paint7_linear_2040_3342" x1="-154.355" y1="420.764" x2="1870.4" y2="719.517" gradientUnits="userSpaceOnUse">
<stop stop-color="white" stop-opacity="0.25"/>
<stop offset="1" stop-color="#B4EFAF" stop-opacity="0.22"/>
</linearGradient>
<linearGradient id="paint8_linear_2040_3342" x1="-152.355" y1="430.613" x2="1870.85" y2="728.213" gradientUnits="userSpaceOnUse">
<stop stop-color="white" stop-opacity="0.25"/>
<stop offset="1" stop-color="#B4EFAF" stop-opacity="0.22"/>
</linearGradient>
<linearGradient id="paint9_linear_2040_3342" x1="-150.369" y1="440.46" x2="1871.31" y2="736.965" gradientUnits="userSpaceOnUse">
<stop stop-color="white" stop-opacity="0.25"/>
<stop offset="1" stop-color="#B4EFAF" stop-opacity="0.22"/>
</linearGradient>
<linearGradient id="paint10_linear_2040_3342" x1="-148.355" y1="450.198" x2="1871.8" y2="745.606" gradientUnits="userSpaceOnUse">
<stop stop-color="white" stop-opacity="0.25"/>
<stop offset="1" stop-color="#B4EFAF" stop-opacity="0.22"/>
</linearGradient>
<linearGradient id="paint11_linear_2040_3342" x1="-146.348" y1="459.929" x2="1872.29" y2="754.287" gradientUnits="userSpaceOnUse">
<stop stop-color="white" stop-opacity="0.25"/>
<stop offset="1" stop-color="#B4EFAF" stop-opacity="0.22"/>
</linearGradient>
<linearGradient id="paint12_linear_2040_3342" x1="-144.352" y1="469.649" x2="1872.97" y2="762.987" gradientUnits="userSpaceOnUse">
<stop stop-color="white" stop-opacity="0.25"/>
<stop offset="1" stop-color="#B4EFAF" stop-opacity="0.22"/>
</linearGradient>
<linearGradient id="paint13_linear_2040_3342" x1="-142.314" y1="479.327" x2="1873.73" y2="771.656" gradientUnits="userSpaceOnUse">
<stop stop-color="white" stop-opacity="0.25"/>
<stop offset="1" stop-color="#B4EFAF" stop-opacity="0.22"/>
</linearGradient>
<linearGradient id="paint14_linear_2040_3342" x1="-140.307" y1="489.043" x2="1874.45" y2="780.371" gradientUnits="userSpaceOnUse">
<stop stop-color="white" stop-opacity="0.25"/>
<stop offset="1" stop-color="#B4EFAF" stop-opacity="0.22"/>
</linearGradient>
<linearGradient id="paint15_linear_2040_3342" x1="-138.279" y1="498.677" x2="1875.19" y2="789.034" gradientUnits="userSpaceOnUse">
<stop stop-color="white" stop-opacity="0.25"/>
<stop offset="1" stop-color="#B4EFAF" stop-opacity="0.22"/>
</linearGradient>
<linearGradient id="paint16_linear_2040_3342" x1="-136.26" y1="508.339" x2="1875.93" y2="797.765" gradientUnits="userSpaceOnUse">
<stop stop-color="white" stop-opacity="0.25"/>
<stop offset="1" stop-color="#B4EFAF" stop-opacity="0.22"/>
</linearGradient>
<linearGradient id="paint17_linear_2040_3342" x1="-134.223" y1="517.93" x2="1876.65" y2="806.427" gradientUnits="userSpaceOnUse">
<stop stop-color="white" stop-opacity="0.25"/>
<stop offset="1" stop-color="#B4EFAF" stop-opacity="0.22"/>
</linearGradient>
<linearGradient id="paint18_linear_2040_3342" x1="-132.194" y1="527.555" x2="1877.39" y2="815.121" gradientUnits="userSpaceOnUse">
<stop stop-color="white" stop-opacity="0.25"/>
<stop offset="1" stop-color="#B4EFAF" stop-opacity="0.22"/>
</linearGradient>
<linearGradient id="paint19_linear_2040_3342" x1="-130.173" y1="537.171" x2="1878.08" y2="823.807" gradientUnits="userSpaceOnUse">
<stop stop-color="white" stop-opacity="0.25"/>
<stop offset="1" stop-color="#B4EFAF" stop-opacity="0.22"/>
</linearGradient>
<linearGradient id="paint20_linear_2040_3342" x1="-128.133" y1="546.744" x2="1878.81" y2="832.498" gradientUnits="userSpaceOnUse">
<stop stop-color="white" stop-opacity="0.25"/>
<stop offset="1" stop-color="#B4EFAF" stop-opacity="0.22"/>
</linearGradient>
<linearGradient id="paint21_linear_2040_3342" x1="-126.085" y1="556.315" x2="1879.56" y2="841.189" gradientUnits="userSpaceOnUse">
<stop stop-color="white" stop-opacity="0.25"/>
<stop offset="1" stop-color="#B4EFAF" stop-opacity="0.22"/>
</linearGradient>
<radialGradient id="paint22_radial_2040_3342" cx="0" cy="0" r="1" gradientUnits="userSpaceOnUse" gradientTransform="translate(1036 416) rotate(90) scale(258)">
<stop stop-color="#F66B3C"/>
<stop offset="1" stop-color="#F66B3C" stop-opacity="0"/>
</radialGradient>
<clipPath id="clip0_2040_3342">
<rect width="1440" height="5837" fill="white"/>
</clipPath>
<clipPath id="clip1_2040_3342">
<rect width="1440" height="742" fill="white" transform="translate(0 1)"/>
</clipPath>
</defs>
</svg>
