<svg width="329" height="620" viewBox="0 0 329 620" fill="none" xmlns="http://www.w3.org/2000/svg">
<g clip-path="url(#clip0_2040_5056)">
<rect width="329" height="620" rx="18.3539" fill="url(#paint0_linear_2040_5056)" fill-opacity="0.8"/>
<g opacity="0.9">
<path d="M137.639 -80.5343C76.0103 -69.099 37.6396 127.552 51.9359 358.698C66.2321 589.843 127.782 767.954 189.411 756.519C251.04 745.083 289.411 548.433 275.114 317.287C260.818 86.1409 199.268 -91.9696 137.639 -80.5343Z" stroke="#FDFDFD" stroke-opacity="0.1" stroke-width="0.575226" stroke-miterlimit="10"/>
<path d="M126.23 -61.5716C66.6596 -45.9947 34.2415 148.765 53.8222 373.437C73.4029 598.109 137.568 767.614 197.138 752.037C256.708 736.46 289.127 541.7 269.546 317.028C249.965 92.3563 185.801 -77.1486 126.23 -61.5716Z" stroke="#FDFDFD" stroke-opacity="0.1" stroke-width="0.575226" stroke-miterlimit="10"/>
<path d="M264.093 316.887C239.258 99.1142 172.325 -61.4109 114.594 -41.6562C56.8633 -21.9014 30.1963 170.653 55.0317 388.425C79.867 606.198 146.8 766.723 204.531 746.968C262.262 727.214 288.929 534.66 264.093 316.887Z" stroke="#FDFDFD" stroke-opacity="0.1" stroke-width="0.575226" stroke-miterlimit="10"/>
<path d="M259.665 316.239C229.596 105.528 159.754 -45.8179 103.667 -21.802C47.5801 2.21391 26.488 192.498 56.5564 403.208C86.6248 613.919 156.467 765.266 212.554 741.25C268.641 717.234 289.733 526.95 259.665 316.239Z" stroke="#FDFDFD" stroke-opacity="0.1" stroke-width="0.575226" stroke-miterlimit="10"/>
<path d="M255.107 315.911C219.809 112.163 147.314 -30.1961 93.1847 -2.05671C39.0555 26.0827 23.7897 214.065 59.0876 417.813C94.3854 621.561 166.88 763.92 221.01 735.78C275.139 707.641 290.405 519.659 255.107 315.911Z" stroke="#FDFDFD" stroke-opacity="0.1" stroke-width="0.575226" stroke-miterlimit="10"/>
<path d="M250.2 314.09C209.655 117.225 134.341 -16.1331 81.9814 16.2262C29.6215 48.5856 20.0432 234.409 60.5877 431.274C101.132 628.139 176.446 761.497 228.806 729.138C281.166 696.778 290.744 510.955 250.2 314.09Z" stroke="#FDFDFD" stroke-opacity="0.1" stroke-width="0.575226" stroke-miterlimit="10"/>
<path d="M245.946 312.75C200.07 122.439 121.911 -2.20313 71.3741 34.3544C20.8369 70.912 17.0582 254.825 62.9342 445.137C108.81 635.448 186.968 760.09 237.506 723.533C288.043 686.975 291.822 503.062 245.946 312.75Z" stroke="#FDFDFD" stroke-opacity="0.1" stroke-width="0.575226" stroke-miterlimit="10"/>
<path d="M240.669 311.936C189.51 128.403 108.572 12.6335 59.888 53.3568C11.2041 94.0802 13.2103 275.876 64.369 459.408C115.528 642.941 196.466 758.71 245.15 717.987C293.834 677.263 291.828 495.468 240.669 311.936Z" stroke="#FDFDFD" stroke-opacity="0.1" stroke-width="0.575226" stroke-miterlimit="10"/>
<path d="M235.379 311.611C178.983 135.105 95.3223 28.3996 48.5181 73.2775C1.71391 118.155 9.48973 297.622 65.8858 474.128C122.282 650.634 205.942 757.339 252.746 712.461C299.551 667.583 291.775 488.116 235.379 311.611Z" stroke="#FDFDFD" stroke-opacity="0.1" stroke-width="0.575226" stroke-miterlimit="10"/>
<path d="M230.862 309.606C169.261 140.113 82.7456 42.6069 37.6237 91.8205C-7.49814 141.034 5.86072 318.331 67.4616 487.824C129.063 657.317 215.578 754.823 260.7 705.609C305.822 656.396 292.463 479.099 230.862 309.606Z" stroke="#FDFDFD" stroke-opacity="0.1" stroke-width="0.575226" stroke-miterlimit="10"/>
<path d="M226.343 308.374C159.349 145.394 69.9722 56.5318 26.715 109.894C-16.5421 163.256 2.70092 338.635 69.6955 501.614C136.69 664.594 226.067 753.457 269.324 700.095C312.581 646.733 293.338 471.354 226.343 308.374Z" stroke="#FDFDFD" stroke-opacity="0.1" stroke-width="0.575226" stroke-miterlimit="10"/>
<path d="M221.245 308.04C149.054 152.134 56.9633 72.3944 15.5538 129.937C-25.8556 187.479 -0.902793 360.513 71.2876 516.419C143.478 672.325 235.569 752.065 276.978 694.522C318.388 636.98 293.435 463.946 221.245 308.04Z" stroke="#FDFDFD" stroke-opacity="0.1" stroke-width="0.575226" stroke-miterlimit="10"/>
<path d="M216.187 306.193C138.74 157.158 43.8507 86.4097 4.24684 148.173C-35.357 209.936 -4.67862 380.822 72.7689 529.858C150.216 678.893 245.105 749.641 284.709 687.878C324.313 626.115 293.635 455.229 216.187 306.193Z" stroke="#FDFDFD" stroke-opacity="0.1" stroke-width="0.575226" stroke-miterlimit="10"/>
<path d="M210.756 306.098C128.071 164.024 30.4907 102.211 -7.19499 168.033C-44.8807 233.855 -8.40105 402.387 74.2845 544.461C156.97 686.534 254.55 748.348 292.236 682.525C329.922 616.703 293.442 448.171 210.756 306.098Z" stroke="#FDFDFD" stroke-opacity="0.1" stroke-width="0.575226" stroke-miterlimit="10"/>
<path d="M205.908 304.569C117.921 169.309 17.4423 116.568 -18.5177 186.77C-54.4776 256.972 -12.3014 423.532 75.6856 558.793C163.672 694.053 264.151 746.794 300.111 676.592C336.071 606.39 293.895 439.83 205.908 304.569Z" stroke="#FDFDFD" stroke-opacity="0.1" stroke-width="0.575226" stroke-miterlimit="10"/>
<path d="M201.898 303.74C108.684 175.406 5.43399 131.72 -28.718 206.165C-62.87 280.61 -14.9912 444.996 78.2222 573.33C171.436 701.665 274.686 745.351 308.838 670.906C342.99 596.46 295.111 432.075 201.898 303.74Z" stroke="#FDFDFD" stroke-opacity="0.1" stroke-width="0.575226" stroke-miterlimit="10"/>
<path d="M197.21 301.682C98.8636 180.401 -7.11601 145.976 -39.5023 224.791C-71.8886 303.607 -18.4175 465.818 79.9286 587.1C178.275 708.381 284.254 742.806 316.64 663.99C349.027 585.174 295.556 422.963 197.21 301.682Z" stroke="#FDFDFD" stroke-opacity="0.1" stroke-width="0.575226" stroke-miterlimit="10"/>
<path d="M192.559 302.749C89.0367 188.428 -19.5091 162.676 -49.8852 245.229C-80.2612 327.782 -20.9649 487.38 82.557 601.7C186.079 716.021 294.625 741.773 325.001 659.22C355.377 576.667 296.08 417.069 192.559 302.749Z" stroke="#FDFDFD" stroke-opacity="0.1" stroke-width="0.575226" stroke-miterlimit="10"/>
<path d="M187.409 300.923C78.4713 193.296 -33.0452 176.54 -61.6699 263.495C-90.2945 350.451 -25.1877 508.191 83.7503 615.818C192.688 723.444 304.205 740.201 332.829 653.245C361.454 566.289 296.347 408.549 187.409 300.923Z" stroke="#FDFDFD" stroke-opacity="0.1" stroke-width="0.575226" stroke-miterlimit="10"/>
<path d="M182.69 301.055C68.668 200.471 -45.5118 192.917 -72.3377 284.184C-99.1637 375.452 -28.4774 530.978 85.5447 631.563C199.567 732.148 313.747 739.701 340.573 648.434C367.399 557.167 296.712 401.64 182.69 301.055Z" stroke="#FDFDFD" stroke-opacity="0.1" stroke-width="0.575226" stroke-miterlimit="10"/>
<path d="M177.814 300.392C58.6782 206.788 -58.1654 208.319 -83.1638 303.811C-108.162 399.303 -31.8492 552.596 87.2862 646.2C206.422 739.803 323.265 738.273 348.264 642.781C373.262 547.289 296.949 393.996 177.814 300.392Z" stroke="#FDFDFD" stroke-opacity="0.1" stroke-width="0.575226" stroke-miterlimit="10"/>
<path d="M172.232 298.577C47.738 211.721 -71.9091 221.863 -95.0077 321.23C-118.106 420.597 -35.9092 571.561 88.5844 658.417C213.078 745.274 332.725 735.131 355.824 635.764C378.922 536.397 296.725 385.433 172.232 298.577Z" stroke="#FDFDFD" stroke-opacity="0.1" stroke-width="0.575226" stroke-miterlimit="10"/>
</g>
</g>
<rect x="0.286779" y="0.286779" width="328.426" height="619.426" rx="18.0671" stroke="#966FF7" stroke-opacity="0.1" stroke-width="0.573558"/>
<defs>
<linearGradient id="paint0_linear_2040_5056" x1="329.001" y1="2.68446e-05" x2="-101.137" y2="61.7344" gradientUnits="userSpaceOnUse">
<stop offset="0.0729167" stop-color="#181A25"/>
<stop offset="0.987427" stop-color="#080B17" stop-opacity="0.2"/>
</linearGradient>
<clipPath id="clip0_2040_5056">
<rect width="329" height="620" rx="18.3539" fill="white"/>
</clipPath>
</defs>
</svg>
