<svg width="1320" height="624" viewBox="0 0 1320 624" fill="none" xmlns="http://www.w3.org/2000/svg">
<g clip-path="url(#clip0_2040_3579)">
<g opacity="0.9">
<path d="M239.349 -79.7593C132.216 -68.2844 65.5644 129.585 90.4788 362.194C115.393 594.804 222.439 774.069 329.573 762.594C436.706 751.119 503.358 553.249 478.444 320.64C453.529 88.0307 346.483 -91.2342 239.349 -79.7593Z" stroke="#FDFDFD" stroke-opacity="0.1" stroke-width="1.00291" stroke-miterlimit="10"/>
<path d="M220.045 -60.4718C116.116 -44.7846 59.4833 150.904 93.552 376.611C127.621 602.318 239.49 772.573 343.419 756.886C447.348 741.198 503.981 545.51 469.912 319.803C435.843 94.0956 323.974 -76.1591 220.045 -60.4718Z" stroke="#FDFDFD" stroke-opacity="0.1" stroke-width="1.00291" stroke-miterlimit="10"/>
<path d="M461.315 318.638C418.099 99.8491 301.39 -61.3819 200.64 -41.481C99.8893 -21.5802 53.2487 171.916 96.4652 390.706C139.682 609.495 256.39 770.726 357.141 750.825C457.891 730.924 504.532 537.428 461.315 318.638Z" stroke="#FDFDFD" stroke-opacity="0.1" stroke-width="1.00291" stroke-miterlimit="10"/>
<path d="M452.875 317.793C400.51 105.937 278.954 -46.2539 181.372 -22.1344C83.7891 1.98515 47.1326 193.281 99.4971 405.137C151.862 616.993 273.418 769.184 371 745.064C468.583 720.945 505.239 529.649 452.875 317.793Z" stroke="#FDFDFD" stroke-opacity="0.1" stroke-width="1.00291" stroke-miterlimit="10"/>
<path d="M444.516 316.82C383.015 111.875 256.648 -31.3072 162.267 -2.98507C67.8857 25.337 41.2305 214.438 102.731 419.384C164.232 624.33 290.599 767.512 384.98 739.189C479.361 710.867 506.017 521.766 444.516 316.82Z" stroke="#FDFDFD" stroke-opacity="0.1" stroke-width="1.00291" stroke-miterlimit="10"/>
<path d="M436.136 315.934C365.482 117.881 234.278 -16.2991 143.084 16.2337C51.8902 48.7666 35.2394 235.693 105.894 433.746C176.548 631.8 307.752 765.98 398.946 733.447C490.14 700.915 506.79 513.988 436.136 315.934Z" stroke="#FDFDFD" stroke-opacity="0.1" stroke-width="1.00291" stroke-miterlimit="10"/>
<path d="M427.566 315.026C347.763 123.908 211.725 -1.2331 123.719 35.5152C35.7116 72.2635 29.0615 256.986 108.865 448.104C188.669 639.222 324.706 764.363 412.713 727.615C500.72 690.867 507.37 506.144 427.566 315.026Z" stroke="#FDFDFD" stroke-opacity="0.1" stroke-width="1.00291" stroke-miterlimit="10"/>
<path d="M419.293 314.04C330.343 129.821 189.456 13.6925 104.612 54.6592C19.7686 95.6258 23.0976 278.175 112.048 462.394C200.998 646.612 341.885 762.741 426.728 721.775C511.572 680.808 508.243 498.259 419.293 314.04Z" stroke="#FDFDFD" stroke-opacity="0.1" stroke-width="1.00291" stroke-miterlimit="10"/>
<path d="M410.429 313.238C312.309 135.958 166.574 28.88 84.921 74.073C3.26821 119.266 16.6181 299.616 114.739 476.896C212.859 654.176 358.594 761.254 440.247 716.061C521.9 670.868 508.55 490.518 410.429 313.238Z" stroke="#FDFDFD" stroke-opacity="0.1" stroke-width="1.00291" stroke-miterlimit="10"/>
<path d="M402.075 312.351C294.807 141.97 144.257 43.886 65.8107 93.2738C-12.6354 142.662 10.729 320.819 117.997 491.2C225.264 661.58 375.815 759.664 454.261 710.277C532.707 660.889 509.343 482.731 402.075 312.351Z" stroke="#FDFDFD" stroke-opacity="0.1" stroke-width="1.00291" stroke-miterlimit="10"/>
<path d="M393.8 311.388C277.399 147.92 122.021 58.8523 46.7522 112.449C-28.5165 166.045 4.82729 342.011 121.228 505.478C237.628 668.945 393.006 758.013 468.275 704.417C543.544 650.82 510.2 474.855 393.8 311.388Z" stroke="#FDFDFD" stroke-opacity="0.1" stroke-width="1.00291" stroke-miterlimit="10"/>
<path d="M385.099 310.521C259.537 153.981 99.317 73.9492 27.2382 131.765C-44.8406 189.58 -1.48362 363.349 124.079 519.889C249.641 676.428 409.861 756.46 481.94 698.645C554.019 640.829 510.662 467.06 385.099 310.521Z" stroke="#FDFDFD" stroke-opacity="0.1" stroke-width="1.00291" stroke-miterlimit="10"/>
<path d="M376.817 309.576C242.114 159.939 77.0653 88.9112 8.17017 150.931C-60.7249 212.95 -7.37719 384.531 127.326 534.168C262.029 683.804 427.077 754.832 495.972 692.813C564.868 630.793 511.52 459.212 376.817 309.576Z" stroke="#FDFDFD" stroke-opacity="0.1" stroke-width="1.00291" stroke-miterlimit="10"/>
<path d="M368.037 308.875C224.155 166.161 54.2573 104.164 -11.4407 170.4C-77.1388 236.636 -13.7582 406.023 130.124 548.736C274.006 691.45 443.904 753.448 509.602 687.212C575.3 620.976 511.919 451.589 368.037 308.875Z" stroke="#FDFDFD" stroke-opacity="0.1" stroke-width="1.00291" stroke-miterlimit="10"/>
<path d="M359.607 307.901C206.574 172.096 31.8379 119.111 -30.6761 189.556C-93.1901 260 -19.8094 427.199 133.224 563.004C286.257 698.808 460.993 751.793 523.507 681.348C586.021 610.904 512.641 443.705 359.607 307.901Z" stroke="#FDFDFD" stroke-opacity="0.1" stroke-width="1.00291" stroke-miterlimit="10"/>
<path d="M351.191 306.973C189.026 178.089 9.46098 134.135 -49.8783 208.797C-109.218 283.46 -25.8605 448.467 136.305 577.35C298.47 706.233 478.035 750.187 537.374 675.525C596.713 600.862 513.356 435.856 351.191 306.973Z" stroke="#FDFDFD" stroke-opacity="0.1" stroke-width="1.00291" stroke-miterlimit="10"/>
<path d="M342.621 306.162C171.289 184.194 -13.1226 149.262 -69.2744 228.14C-125.426 307.017 -32.0542 469.836 139.278 591.804C310.61 713.772 495.022 748.704 551.173 669.827C607.325 590.949 513.953 428.131 342.621 306.162Z" stroke="#FDFDFD" stroke-opacity="0.1" stroke-width="1.00291" stroke-miterlimit="10"/>
<path d="M334.125 305.209C153.638 190.153 -35.6156 164.241 -88.5846 247.333C-141.553 330.425 -38.1797 491.055 142.307 606.111C322.794 721.167 512.048 747.079 565.017 663.987C617.986 580.895 514.612 420.264 334.125 305.209Z" stroke="#FDFDFD" stroke-opacity="0.1" stroke-width="1.00291" stroke-miterlimit="10"/>
<path d="M325.746 304.276C136.119 196.131 -57.9598 179.223 -107.741 266.511C-157.523 353.8 -44.1554 512.231 145.472 620.376C335.098 728.522 529.177 745.43 578.959 658.141C628.74 570.853 515.373 412.422 325.746 304.276Z" stroke="#FDFDFD" stroke-opacity="0.1" stroke-width="1.00291" stroke-miterlimit="10"/>
<path d="M317.235 303.496C118.472 202.281 -80.4229 194.393 -127.01 285.879C-173.597 377.365 -50.2342 533.579 148.529 634.795C347.291 736.01 546.186 743.898 592.773 652.412C639.36 560.927 515.997 404.712 317.235 303.496Z" stroke="#FDFDFD" stroke-opacity="0.1" stroke-width="1.00291" stroke-miterlimit="10"/>
<path d="M308.731 302.545C100.819 208.247 -102.92 209.401 -146.334 305.122C-189.748 400.844 -56.3964 554.884 151.516 649.182C359.427 743.479 563.167 742.325 606.581 646.604C649.995 550.883 516.643 396.842 308.731 302.545Z" stroke="#FDFDFD" stroke-opacity="0.1" stroke-width="1.00291" stroke-miterlimit="10"/>
<path d="M300.457 301.37C83.3934 213.951 -125.192 224.08 -165.431 323.995C-205.67 423.91 -62.3261 575.774 154.737 663.193C371.801 750.613 580.386 740.483 620.625 640.569C660.865 540.654 517.52 388.79 300.457 301.37Z" stroke="#FDFDFD" stroke-opacity="0.1" stroke-width="1.00291" stroke-miterlimit="10"/>
</g>
</g>
<defs>
<clipPath id="clip0_2040_3579">
<rect width="1627" height="624" rx="32" fill="white"/>
</clipPath>
</defs>
</svg>
