<svg width="40" height="41" viewBox="0 0 40 41" fill="none" xmlns="http://www.w3.org/2000/svg">
<path d="M32.1167 9.75825C29.9 8.72491 27.5 7.97491 25 7.54158C24.9781 7.54088 24.9563 7.54499 24.9361 7.55363C24.916 7.56227 24.8979 7.57522 24.8833 7.59158C24.5833 8.14158 24.2333 8.85825 24 9.40825C21.3483 9.00825 18.6517 9.00825 16 9.40825C15.7667 8.84158 15.4167 8.14158 15.1 7.59158C15.0833 7.55825 15.0333 7.54158 14.9833 7.54158C12.4833 7.97491 10.1 8.72491 7.86666 9.75825C7.84999 9.75825 7.83333 9.77491 7.81666 9.79158C3.28333 16.5749 2.03333 23.1749 2.64999 29.7082C2.64999 29.7416 2.66666 29.7749 2.69999 29.7916C5.69999 31.9916 8.58333 33.3249 11.4333 34.2082C11.4833 34.2249 11.5333 34.2082 11.55 34.1749C12.2167 33.2582 12.8167 32.2916 13.3333 31.2749C13.3667 31.2082 13.3333 31.1416 13.2667 31.1249C12.3167 30.7582 11.4167 30.3249 10.5333 29.8249C10.4667 29.7916 10.4667 29.6916 10.5167 29.6416C10.7 29.5082 10.8833 29.3582 11.0667 29.2249C11.1 29.1916 11.15 29.1916 11.1833 29.2082C16.9167 31.8249 23.1 31.8249 28.7667 29.2082C28.8 29.1916 28.85 29.1916 28.8833 29.2249C29.0667 29.3749 29.25 29.5082 29.4333 29.6582C29.5 29.7082 29.5 29.8082 29.4167 29.8416C28.55 30.3582 27.6333 30.7749 26.6833 31.1416C26.6167 31.1582 26.6 31.2416 26.6167 31.2916C27.15 32.3082 27.75 33.2749 28.4 34.1916C28.45 34.2082 28.5 34.2249 28.55 34.2082C31.4167 33.3249 34.3 31.9916 37.3 29.7916C37.3333 29.7749 37.35 29.7416 37.35 29.7082C38.0833 22.1582 36.1333 15.6082 32.1833 9.79158C32.1667 9.77491 32.15 9.75825 32.1167 9.75825ZM14.2 25.7249C12.4833 25.7249 11.05 24.1416 11.05 22.1916C11.05 20.2416 12.45 18.6582 14.2 18.6582C15.9667 18.6582 17.3667 20.2582 17.35 22.1916C17.35 24.1416 15.95 25.7249 14.2 25.7249ZM25.8167 25.7249C24.1 25.7249 22.6667 24.1416 22.6667 22.1916C22.6667 20.2416 24.0667 18.6582 25.8167 18.6582C27.5833 18.6582 28.9833 20.2582 28.9667 22.1916C28.9667 24.1416 27.5833 25.7249 25.8167 25.7249Z" fill="#4A25A7"/>
</svg>
