<svg width="40" height="41" viewBox="0 0 40 41" fill="none" xmlns="http://www.w3.org/2000/svg">
<path d="M20 4.2085C17.8113 4.2085 15.6441 4.63959 13.622 5.47717C11.5999 6.31475 9.76257 7.54241 8.21493 9.09005C5.08932 12.2157 3.33337 16.4549 3.33337 20.8752C3.33337 28.2418 8.11671 34.4918 14.7334 36.7085C15.5667 36.8418 15.8334 36.3252 15.8334 35.8752V33.0585C11.2167 34.0585 10.2334 30.8252 10.2334 30.8252C9.46671 28.8918 8.38337 28.3752 8.38337 28.3752C6.86671 27.3418 8.50004 27.3752 8.50004 27.3752C10.1667 27.4918 11.05 29.0918 11.05 29.0918C12.5 31.6252 14.95 30.8752 15.9 30.4752C16.05 29.3918 16.4834 28.6585 16.95 28.2418C13.25 27.8252 9.36671 26.3918 9.36671 20.0418C9.36671 18.1918 10 16.7085 11.0834 15.5252C10.9167 15.1085 10.3334 13.3752 11.25 11.1252C11.25 11.1252 12.65 10.6752 15.8334 12.8252C17.15 12.4585 18.5834 12.2752 20 12.2752C21.4167 12.2752 22.85 12.4585 24.1667 12.8252C27.35 10.6752 28.75 11.1252 28.75 11.1252C29.6667 13.3752 29.0834 15.1085 28.9167 15.5252C30 16.7085 30.6334 18.1918 30.6334 20.0418C30.6334 26.4085 26.7334 27.8085 23.0167 28.2252C23.6167 28.7418 24.1667 29.7585 24.1667 31.3085V35.8752C24.1667 36.3252 24.4334 36.8585 25.2834 36.7085C31.9 34.4752 36.6667 28.2418 36.6667 20.8752C36.6667 18.6865 36.2356 16.5192 35.398 14.4971C34.5605 12.475 33.3328 10.6377 31.7852 9.09005C30.2375 7.54241 28.4002 6.31475 26.3781 5.47717C24.356 4.63959 22.1887 4.2085 20 4.2085Z" fill="#4A25A7"/>
</svg>
