<svg width="40" height="41" viewBox="0 0 40 41" fill="none" xmlns="http://www.w3.org/2000/svg">
<path d="M31.6667 5.875C32.5507 5.875 33.3986 6.22619 34.0237 6.85131C34.6488 7.47643 35 8.32428 35 9.20833V32.5417C35 33.4257 34.6488 34.2736 34.0237 34.8987C33.3986 35.5238 32.5507 35.875 31.6667 35.875H8.33333C7.44928 35.875 6.60143 35.5238 5.97631 34.8987C5.35119 34.2736 5 33.4257 5 32.5417V9.20833C5 8.32428 5.35119 7.47643 5.97631 6.85131C6.60143 6.22619 7.44928 5.875 8.33333 5.875H31.6667ZM30.8333 31.7083V22.875C30.8333 21.434 30.2609 20.052 29.2419 19.0331C28.223 18.0141 26.841 17.4417 25.4 17.4417C23.9833 17.4417 22.3333 18.3083 21.5333 19.6083V17.7583H16.8833V31.7083H21.5333V23.4917C21.5333 22.2083 22.5667 21.1583 23.85 21.1583C24.4688 21.1583 25.0623 21.4042 25.4999 21.8418C25.9375 22.2793 26.1833 22.8728 26.1833 23.4917V31.7083H30.8333ZM11.4667 15.1417C12.2093 15.1417 12.9215 14.8467 13.4466 14.3216C13.9717 13.7965 14.2667 13.0843 14.2667 12.3417C14.2667 10.7917 13.0167 9.525 11.4667 9.525C10.7196 9.525 10.0032 9.82175 9.47498 10.35C8.94675 10.8782 8.65 11.5946 8.65 12.3417C8.65 13.8917 9.91667 15.1417 11.4667 15.1417ZM13.7833 31.7083V17.7583H9.16667V31.7083H13.7833Z" fill="#4A25A7"/>
</svg>
