<svg width="40" height="41" viewBox="0 0 40 41" fill="none" xmlns="http://www.w3.org/2000/svg">
<path d="M37.4333 10.8748C36.15 11.4582 34.7667 11.8415 33.3333 12.0248C34.8 11.1415 35.9333 9.7415 36.4667 8.05817C35.0833 8.8915 33.55 9.47484 31.9333 9.80817C30.6166 8.37484 28.7667 7.5415 26.6667 7.5415C22.75 7.5415 19.55 10.7415 19.55 14.6915C19.55 15.2582 19.6167 15.8082 19.7333 16.3248C13.8 16.0248 8.51665 13.1748 4.99998 8.85817C4.38332 9.90817 4.03332 11.1415 4.03332 12.4415C4.03332 14.9248 5.28332 17.1248 7.21665 18.3748C6.03332 18.3748 4.93332 18.0415 3.96665 17.5415V17.5915C3.96665 21.0582 6.43332 23.9582 9.69998 24.6082C8.6512 24.8952 7.55014 24.9351 6.48332 24.7248C6.936 26.1456 7.82255 27.3889 9.01834 28.2797C10.2141 29.1706 11.6591 29.6643 13.15 29.6915C10.6227 31.6922 7.48998 32.7737 4.26665 32.7582C3.69998 32.7582 3.13332 32.7248 2.56665 32.6582C5.73332 34.6915 9.49998 35.8748 13.5333 35.8748C26.6667 35.8748 33.8833 24.9748 33.8833 15.5248C33.8833 15.2082 33.8833 14.9082 33.8666 14.5915C35.2667 13.5915 36.4666 12.3248 37.4333 10.8748Z" fill="#4A25A7"/>
</svg>
