<svg width="16" height="17" viewBox="0 0 16 17" fill="none" xmlns="http://www.w3.org/2000/svg">
<path d="M10.6484 11.6402C10.8331 10.9933 10.9553 10.2418 11.0019 9.52022C11.0029 9.50137 11.0001 9.48251 10.9935 9.46481C10.9869 9.4471 10.9768 9.43094 10.9637 9.41731C10.9507 9.40369 10.9349 9.39289 10.9175 9.3856C10.9001 9.3783 10.8814 9.37467 10.8625 9.37491H8.64188C8.6237 9.37474 8.60567 9.37816 8.58881 9.38497C8.57195 9.39177 8.5566 9.40183 8.54362 9.41457C8.53065 9.42731 8.52032 9.44248 8.51321 9.45921C8.5061 9.47594 8.50236 9.49392 8.5022 9.5121V11.2402C8.50259 11.2751 8.51612 11.3086 8.5401 11.334C8.56408 11.3593 8.59674 11.3747 8.63157 11.3771C9.25736 11.4277 9.87567 11.547 10.4753 11.733C10.5106 11.7436 10.5486 11.7398 10.5811 11.7224C10.6135 11.705 10.6378 11.6755 10.6484 11.6402ZM10.1119 12.6658C9.63614 12.527 9.1487 12.4319 8.65563 12.3818C8.63659 12.3797 8.61731 12.3815 8.59902 12.3872C8.58073 12.393 8.56383 12.4024 8.5494 12.415C8.53497 12.4276 8.52332 12.4431 8.51519 12.4605C8.50707 12.4778 8.50264 12.4967 8.5022 12.5158V14.5546C8.50294 14.5789 8.51003 14.6026 8.52276 14.6234C8.53548 14.6441 8.55341 14.6611 8.57475 14.6728C8.59609 14.6845 8.62012 14.6904 8.64444 14.69C8.66877 14.6895 8.69256 14.6827 8.71344 14.6702C9.21032 14.3805 9.6197 13.894 9.9897 13.2505C10.0503 13.1455 10.1425 12.9646 10.1981 12.854C10.2068 12.8362 10.2114 12.8167 10.2116 12.7969C10.2118 12.7771 10.2076 12.7575 10.1994 12.7396C10.1911 12.7216 10.179 12.7056 10.1639 12.6929C10.1488 12.6802 10.131 12.6709 10.1119 12.6658ZM7.35282 12.3874C6.86036 12.4342 6.37329 12.5265 5.89782 12.663C5.81532 12.6868 5.78063 12.8005 5.81813 12.8752C5.87407 12.9865 5.94313 13.1287 6.0022 13.2349C6.40845 13.9537 6.84094 14.4068 7.29094 14.6702C7.31183 14.6827 7.33562 14.6895 7.35995 14.69C7.38427 14.6904 7.4083 14.6845 7.42964 14.6728C7.45098 14.6611 7.46891 14.6441 7.48163 14.6234C7.49436 14.6026 7.50145 14.5789 7.5022 14.5546V12.5149C7.50205 12.4963 7.4979 12.4779 7.49003 12.461C7.48216 12.4442 7.47076 12.4292 7.4566 12.4171C7.44243 12.405 7.42584 12.3961 7.40793 12.391C7.39003 12.3858 7.37123 12.3846 7.35282 12.3874ZM7.36251 9.37491H5.14188C5.12303 9.37467 5.10433 9.3783 5.08694 9.38557C5.06955 9.39285 5.05384 9.40362 5.04078 9.41721C5.02771 9.4308 5.01758 9.44692 5.01099 9.46459C5.00441 9.48225 5.00152 9.50108 5.00251 9.51991C5.04876 10.2405 5.17032 10.9937 5.35438 11.6399C5.3596 11.6576 5.36828 11.6741 5.37991 11.6884C5.39155 11.7027 5.4059 11.7145 5.42215 11.7233C5.4384 11.732 5.45621 11.7374 5.47457 11.7392C5.49292 11.741 5.51145 11.7391 5.52907 11.7337C6.12867 11.5476 6.74702 11.4286 7.37282 11.3787C7.4077 11.3764 7.44044 11.361 7.46449 11.3356C7.48853 11.3103 7.50211 11.2767 7.50251 11.2418V9.51241C7.50239 9.49417 7.49866 9.47615 7.49155 9.45936C7.48444 9.44256 7.47409 9.42734 7.46108 9.41457C7.44807 9.40179 7.43266 9.39171 7.41575 9.3849C7.39883 9.3781 7.38074 9.3747 7.36251 9.37491ZM8.65626 5.36803C9.14899 5.32186 9.63583 5.22617 10.1094 5.08241C10.1284 5.07727 10.146 5.06802 10.1611 5.0553C10.1761 5.04259 10.1882 5.02673 10.1964 5.00884C10.2046 4.99096 10.2088 4.97148 10.2087 4.95179C10.2086 4.9321 10.2041 4.91268 10.1956 4.89491C10.1397 4.78334 10.0622 4.62366 10.0028 4.51709C9.61876 3.82959 9.18595 3.34991 8.71407 3.07959C8.69316 3.06722 8.6694 3.06049 8.64511 3.06008C8.62081 3.05967 8.59683 3.06559 8.57552 3.07725C8.55421 3.08892 8.5363 3.10593 8.52355 3.12661C8.5108 3.14729 8.50366 3.17094 8.50282 3.19522V5.23366C8.50327 5.25283 8.5077 5.27169 8.51582 5.28906C8.52394 5.30643 8.53559 5.32193 8.55001 5.33456C8.56444 5.34719 8.58133 5.35669 8.59962 5.36245C8.61791 5.36822 8.6372 5.37012 8.65626 5.36803ZM8.64188 8.37491H10.8625C10.8812 8.37522 10.8998 8.37171 10.9171 8.36458C10.9344 8.35745 10.9501 8.34686 10.9631 8.33345C10.9762 8.32004 10.9863 8.30411 10.993 8.28662C10.9997 8.26914 11.0027 8.25048 11.0019 8.23178C10.9556 7.52022 10.8372 6.73803 10.6531 6.09991C10.6477 6.08236 10.639 6.06605 10.6273 6.05192C10.6155 6.03778 10.6012 6.02609 10.5849 6.01753C10.5687 6.00896 10.5509 6.00369 10.5327 6.002C10.5144 6.00032 10.496 6.00226 10.4784 6.00772C9.8847 6.18709 9.26626 6.33366 8.63188 6.38272C8.59721 6.38469 8.56457 6.3997 8.54052 6.42474C8.51646 6.44978 8.50277 6.483 8.5022 6.51772V8.23991C8.50285 8.27632 8.51793 8.31099 8.54412 8.3363C8.57031 8.36161 8.60547 8.37549 8.64188 8.37491ZM7.29094 3.07991C6.80907 3.34772 6.37938 3.84334 5.99501 4.52897C5.93532 4.63553 5.86407 4.78241 5.80751 4.89366C5.7991 4.91144 5.79469 4.93085 5.79458 4.95052C5.79448 4.97019 5.79868 4.98965 5.80691 5.00752C5.81513 5.02539 5.82716 5.04125 5.84217 5.05397C5.85717 5.06669 5.87478 5.07597 5.89376 5.08116C6.36712 5.22756 6.85461 5.32361 7.34813 5.36772C7.36717 5.3698 7.38643 5.36791 7.4047 5.36217C7.42297 5.35642 7.43984 5.34695 7.45426 5.33435C7.46869 5.32175 7.48033 5.3063 7.48848 5.28897C7.49662 5.27163 7.50108 5.2528 7.50157 5.23366V3.19553C7.50058 3.17138 7.49337 3.1479 7.48064 3.12735C7.46791 3.1068 7.45008 3.0899 7.4289 3.07827C7.40771 3.06663 7.38387 3.06067 7.3597 3.06096C7.33554 3.06125 7.31185 3.06777 7.29094 3.07991ZM7.37251 6.38303C6.73813 6.33459 6.11907 6.18803 5.52594 6.00803C5.50842 6.00257 5.49 6.00063 5.47172 6.00232C5.45345 6.004 5.43568 6.00927 5.41945 6.01784C5.40322 6.0264 5.38884 6.03809 5.37714 6.05223C5.36544 6.06637 5.35664 6.08267 5.35126 6.10022C5.1672 6.73834 5.04876 7.52053 5.00251 8.23209C5.00169 8.25079 5.00472 8.26945 5.01138 8.28694C5.01805 8.30442 5.02823 8.32036 5.04128 8.33376C5.05433 8.34717 5.06999 8.35776 5.0873 8.36489C5.1046 8.37202 5.12317 8.37554 5.14188 8.37522H7.36251C7.38059 8.37551 7.39855 8.37223 7.41537 8.36557C7.43218 8.3589 7.44751 8.34899 7.46049 8.33639C7.47347 8.32379 7.48383 8.30876 7.49098 8.29215C7.49814 8.27554 7.50195 8.25768 7.5022 8.23959V6.51803C7.50162 6.48331 7.48793 6.4501 7.46387 6.42505C7.43982 6.40001 7.40718 6.385 7.37251 6.38303Z" fill="white"/>
<path d="M12.9496 3.92526C12.3008 3.27 11.5289 2.7494 10.6782 2.39336C9.82758 2.03733 8.91496 1.85288 7.99281 1.85061C7.07066 1.84834 6.15715 2.02829 5.30476 2.38014C4.45237 2.73198 3.6779 3.24878 3.02584 3.90084C2.37378 4.5529 1.85698 5.32737 1.50514 6.17976C1.15329 7.03215 0.973338 7.94566 0.975607 8.86781C0.977877 9.78996 1.16233 10.7026 1.51836 11.5532C1.8744 12.4039 2.395 13.1758 3.05026 13.8246C3.69911 14.4799 4.47102 15.0005 5.32167 15.3565C6.17232 15.7126 7.08494 15.897 8.00709 15.8993C8.92924 15.9016 9.84275 15.7216 10.6951 15.3698C11.5475 15.0179 12.322 14.5011 12.9741 13.8491C13.6261 13.197 14.1429 12.4225 14.4948 11.5701C14.8466 10.7177 15.0266 9.80424 15.0243 8.88209C15.022 7.95994 14.8376 7.04732 14.4815 6.19667C14.1255 5.34602 13.6049 4.57411 12.9496 3.92526ZM5.5187 14.339C5.3779 14.1413 5.24772 13.9362 5.1287 13.7246C5.0662 13.6093 4.97745 13.4353 4.91839 13.3143C4.90485 13.2856 4.88547 13.2601 4.86149 13.2393C4.83751 13.2186 4.80945 13.203 4.77912 13.1937C4.74879 13.1844 4.71685 13.1816 4.68535 13.1853C4.65386 13.1891 4.62349 13.1994 4.5962 13.2156C4.46183 13.2909 4.2837 13.3943 4.15464 13.479C3.88398 13.2733 3.63696 13.0382 3.41808 12.7781C3.72077 12.5644 4.03835 12.3727 4.36839 12.2043C4.42651 12.1731 4.45495 12.1375 4.43651 12.0737C4.19471 11.2368 4.04702 10.3755 3.9962 9.50589C3.99469 9.47111 3.97992 9.43824 3.95493 9.414C3.92995 9.38977 3.89663 9.37602 3.86183 9.37558H2.0887C2.07363 9.37575 2.059 9.37046 2.04752 9.3607C2.03603 9.35094 2.02846 9.33735 2.0262 9.32245C2.00656 9.17412 1.99779 9.02456 1.99995 8.87495C1.99781 8.72564 2.0068 8.57637 2.02683 8.42839C2.02909 8.41349 2.03666 8.3999 2.04814 8.39014C2.05963 8.38038 2.07425 8.37509 2.08933 8.37526H3.86245C3.93401 8.37526 3.99276 8.33401 3.99651 8.26183C4.04666 7.3958 4.19341 6.53808 4.43401 5.70464C4.44297 5.67422 4.44104 5.64162 4.42855 5.61247C4.41605 5.58332 4.39378 5.55944 4.36558 5.54495C4.04263 5.37947 3.7311 5.1926 3.43308 4.98558C3.6508 4.72551 3.89294 4.48692 4.1562 4.27308C4.2837 4.35683 4.44995 4.45151 4.58308 4.52651C4.61241 4.54319 4.64486 4.55367 4.67841 4.55729C4.71196 4.56092 4.7459 4.55763 4.77812 4.54761C4.81035 4.53759 4.84017 4.52106 4.86575 4.49905C4.89133 4.47704 4.91212 4.45001 4.92683 4.41964C4.98558 4.2987 5.05183 4.16401 5.1162 4.04839C5.23573 3.83421 5.36654 3.62652 5.50808 3.4262C6.28726 3.05912 7.13863 2.87078 7.99995 2.87495C8.90433 2.87495 9.74683 3.0937 10.5165 3.45183C10.6524 3.64264 10.7776 3.84086 10.8915 4.04558C10.9725 4.1912 11.0584 4.36964 11.1309 4.52433C11.1387 4.5408 11.1497 4.55551 11.1634 4.56756C11.1771 4.57962 11.193 4.58876 11.2103 4.59444C11.2277 4.60011 11.2459 4.60219 11.2641 4.60056C11.2822 4.59893 11.2999 4.59362 11.3159 4.58495C11.484 4.49401 11.6662 4.38933 11.8265 4.28401C12.0905 4.49996 12.3333 4.74064 12.5515 5.00276C12.2616 5.20379 11.9582 5.38453 11.6434 5.5437C11.6151 5.55821 11.5928 5.58215 11.5804 5.61138C11.5679 5.64061 11.5661 5.67327 11.5753 5.7037C11.8198 6.53148 11.9651 7.38538 12.0081 8.24745C12.0098 8.28203 12.0246 8.31464 12.0496 8.33859C12.0746 8.36254 12.1078 8.376 12.1425 8.3762L13.9118 8.37401C13.9269 8.37384 13.9415 8.37913 13.953 8.38889C13.9645 8.39865 13.9721 8.41223 13.9743 8.42714C14.0108 8.72415 14.0108 9.0245 13.9743 9.32151C13.9722 9.33653 13.9647 9.35026 13.9532 9.36015C13.9417 9.37004 13.927 9.37541 13.9118 9.37526H12.1409C12.1061 9.37563 12.0727 9.38936 12.0477 9.41361C12.0227 9.43785 12.008 9.47077 12.0065 9.50558C11.9578 10.366 11.8125 11.2183 11.5731 12.0462C11.564 12.077 11.5659 12.1099 11.5784 12.1395C11.5908 12.1691 11.6131 12.1934 11.6415 12.2084C11.7978 12.2893 11.9718 12.3796 12.1218 12.4715C12.2718 12.5634 12.4203 12.6615 12.5634 12.7634C12.3468 13.0243 12.1062 13.2642 11.8446 13.4799C11.7684 13.4296 11.6778 13.3725 11.5996 13.3256C11.5459 13.2943 11.4468 13.239 11.3918 13.2081C11.2725 13.1412 11.1456 13.1912 11.0859 13.3143C11.0262 13.4375 10.935 13.614 10.8712 13.7284C10.7537 13.9387 10.6249 14.1424 10.4853 14.3387C9.71589 14.699 8.90433 14.875 7.99995 14.875C7.09558 14.875 6.28839 14.699 5.5187 14.339Z" fill="white"/>
</svg>
